<?xml version="1.0" standalone="no"?>
<!DOCTYPE svg PUBLIC "-//W3C//DTD SVG 20010904//EN"
 "http://www.w3.org/TR/2001/REC-SVG-20010904/DTD/svg10.dtd">
<svg version="1.0" xmlns="http://www.w3.org/2000/svg"
 width="6251.000000pt" height="5472.000000pt" viewBox="0 0 6251.000000 5472.000000"
 preserveAspectRatio="xMidYMid meet">

<g transform="translate(0.000000,5472.000000) scale(0.100000,-0.100000)"
fill="#000000" stroke="none">
<path d="M37040 47315 c-945 -116 -1812 -362 -2697 -764 -633 -288 -2192
-1069 -3498 -1753 -709 -372 -2149 -1143 -2342 -1255 l-43 -25 0 59 c-2 285
-30 1806 -34 1811 -3 3 -677 0 -1498 -7 -821 -6 -1616 -11 -1765 -11 l-273 0
-2 -1871 -3 -1870 -260 -146 c-1004 -560 -1755 -957 -2855 -1507 -925 -462
-1454 -715 -2275 -1088 -2699 -1226 -4346 -1852 -6146 -2333 -1252 -335 -2866
-691 -4001 -881 l-108 -18 0 -66 c0 -36 -3 -102 -7 -147 l-6 -83 364 0 c692 0
1481 42 2269 121 1985 198 3951 634 5835 1296 149 52 409 137 578 189 2042
624 4130 1368 6012 2142 826 339 1311 550 3395 1477 2721 1210 4121 1816 6717
2909 241 102 506 214 588 249 570 245 1255 387 1864 387 413 0 678 -60 1011
-226 265 -133 492 -292 970 -680 751 -609 878 -706 1990 -1521 487 -357 655
-483 1407 -1059 1502 -1150 2260 -1694 3138 -2251 1755 -1113 3661 -2055 5185
-2563 665 -222 1161 -338 1805 -424 473 -63 796 -86 1318 -93 l437 -6 0 227
c0 140 -4 226 -10 226 -21 0 -523 233 -830 386 -1380 685 -2438 1386 -3785
2509 -1381 1151 -2732 2387 -4175 3821 -560 556 -600 592 -1235 1115 -574 473
-1143 920 -1775 1393 -1321 990 -2185 1539 -2843 1805 -679 275 -1421 459
-2197 545 -19 2 -118 -7 -220 -19z"/>
<path d="M34545 35364 c-16 -2 -73 -9 -125 -15 -118 -13 -290 -57 -412 -104
-445 -172 -801 -493 -1008 -910 -83 -167 -131 -304 -167 -474 -25 -117 -27
-143 -27 -371 0 -228 2 -254 27 -371 143 -669 610 -1198 1247 -1410 480 -159
985 -122 1439 108 194 97 308 180 472 343 196 194 305 352 407 588 98 229 141
427 149 687 14 461 -129 885 -417 1240 -85 103 -262 271 -370 348 -121 86
-354 203 -495 249 -228 74 -535 113 -720 92z"/>
<path d="M15388 34225 c-59 -43 -103 -118 -117 -199 -40 -230 -53 -1797 -52
-6486 0 -4425 19 -10471 47 -15142 l7 -1108 288 0 289 0 0 258 c0 141 -5 1063
-10 2047 -55 10101 -57 19539 -4 20246 l6 87 -73 12 c-41 6 -103 19 -139 28
l-65 17 -49 138 c-35 100 -53 137 -65 137 -9 0 -37 -16 -63 -35z"/>
<path d="M49310 22444 l0 -11547 -47 7 c-3321 459 -6569 675 -9848 653 -1068
-8 -1597 -21 -2570 -68 -1130 -53 -2048 -120 -4115 -299 -2201 -190 -3199
-263 -4590 -335 -1793 -92 -3267 -128 -5180 -128 -1887 0 -3351 35 -5180 123
-694 34 -2022 111 -2147 126 -47 5 -53 3 -53 -13 0 -10 -9 -139 -19 -288 -11
-148 -18 -271 -17 -273 2 -1 172 -14 377 -27 4548 -297 9047 -308 13379 -35
1065 68 1607 110 3975 314 1875 162 3071 241 4290 286 1323 48 2939 52 4275
10 2648 -84 5324 -319 7787 -685 128 -19 240 -35 248 -35 13 0 15 1282 15
11880 l0 11880 -290 0 -290 0 0 -11546z"/>
<path d="M37200 32069 c-1402 -83 -2726 -609 -3815 -1515 -655 -545 -1140
-1331 -1355 -2199 -84 -339 -122 -652 -124 -1015 0 -231 18 -549 34 -578 4 -9
30 31 71 110 326 629 808 1200 1364 1614 492 366 1048 629 1635 773 402 100
779 143 1245 145 202 0 242 -2 331 -22 282 -61 501 -175 696 -360 364 -347
565 -917 520 -1479 -31 -394 -174 -1046 -343 -1568 -149 -462 -286 -790 -549
-1316 -385 -770 -884 -1618 -1495 -2540 -606 -915 -1700 -2406 -2728 -3716
-199 -254 -233 -293 -257 -293 -38 0 -375 44 -649 86 -2341 352 -4699 1152
-6761 2292 -114 63 -433 241 -465 260 -5 4 20 -30 56 -73 256 -311 324 -393
413 -495 386 -442 939 -990 1321 -1311 441 -369 974 -747 1655 -1171 1334
-831 3234 -1843 4952 -2638 l158 -73 147 139 c573 541 1236 1229 1789 1854
2440 2762 4350 6014 5567 9480 132 374 210 734 263 1200 22 197 30 734 15 938
-72 938 -378 1742 -896 2357 -533 632 -1287 1016 -2179 1110 -153 16 -390 17
-616 4z"/>
<path d="M28425 30669 c-977 -42 -1930 -342 -2759 -868 -467 -296 -846 -631
-1196 -1055 -982 -1190 -1401 -2687 -1179 -4209 24 -167 87 -481 135 -670 196
-779 543 -1530 1009 -2181 477 -667 1042 -1205 1775 -1691 1731 -1148 3896
-1310 5812 -434 735 336 1401 870 1886 1512 95 126 99 130 199 188 95 56 107
67 205 187 827 1011 1491 2102 2006 3297 225 523 428 1092 587 1650 64 222
195 735 195 759 -1 6 -16 -20 -34 -59 -168 -357 -465 -816 -752 -1160 -205
-245 -598 -644 -874 -885 -480 -420 -967 -675 -1450 -760 -157 -28 -459 -38
-611 -21 -565 64 -1110 330 -1599 779 l-95 87 74 -85 c106 -123 284 -363 393
-530 382 -585 602 -1164 673 -1765 20 -165 22 -491 6 -645 -66 -606 -295
-1152 -692 -1651 l-69 -87 -147 -41 c-340 -94 -848 -174 -1353 -213 -208 -16
-965 -16 -1185 1 -526 39 -920 117 -1416 281 -882 292 -1583 774 -2146 1475
-114 141 -298 412 -388 569 -279 490 -464 1073 -537 1701 -8 70 -13 235 -13
450 1 367 14 515 71 805 189 953 693 1823 1424 2459 47 41 148 133 225 206
562 529 1136 902 1806 1173 1059 430 2200 521 3340 267 149 -33 415 -106 508
-140 24 -8 46 -13 48 -11 6 6 -188 163 -333 269 -1025 748 -2231 1103 -3549
1046z"/>
<path d="M33780 26921 c-239 -53 -433 -162 -598 -335 -87 -91 -141 -170 -197
-289 -209 -435 -121 -952 220 -1292 450 -451 1177 -444 1619 15 139 144 232
308 284 498 24 89 26 113 26 292 0 169 -3 205 -21 272 -116 417 -406 710 -814
824 -130 36 -390 44 -519 15z"/>
<path d="M34670 8546 c0 -5 -52 -273 -115 -596 -63 -322 -115 -592 -115 -599
0 -8 24 -11 87 -9 l87 3 42 237 c73 411 76 430 84 421 4 -4 76 -164 160 -355
84 -192 156 -348 159 -348 4 0 63 123 131 273 68 149 142 310 164 357 l39 85
17 -100 c10 -55 34 -207 55 -337 l38 -238 89 0 c80 0 89 2 84 18 -2 9 -51 281
-107 604 -57 324 -106 585 -110 580 -3 -4 -93 -197 -199 -430 -106 -233 -197
-419 -201 -415 -5 5 -89 191 -188 415 -177 401 -200 452 -201 434z"/>
<path d="M16612 7958 c-149 -321 -274 -591 -278 -601 -6 -16 1 -18 87 -15 l93
3 60 133 60 132 244 -2 245 -3 56 -130 56 -130 94 -3 c86 -3 93 -1 88 15 -5
18 -511 1144 -525 1170 -6 9 -98 -178 -280 -569z m352 12 c42 -96 76 -180 76
-187 0 -10 -37 -13 -165 -13 -91 0 -165 2 -165 4 0 3 25 60 56 128 31 68 69
152 85 187 16 35 31 62 33 60 2 -2 38 -83 80 -179z"/>
<path d="M18582 7958 c-149 -321 -274 -591 -278 -601 -6 -16 1 -18 87 -15 l93
3 60 133 60 132 244 -2 245 -3 56 -130 56 -130 94 -3 c86 -3 93 -1 88 15 -5
18 -511 1144 -525 1170 -6 9 -98 -178 -280 -569z m352 12 c42 -96 76 -180 76
-187 0 -10 -37 -13 -165 -13 -91 0 -165 2 -165 4 0 3 25 60 56 128 31 68 69
152 85 187 16 35 31 62 33 60 2 -2 38 -83 80 -179z"/>
<path d="M22552 7958 c-149 -321 -274 -591 -278 -601 -6 -16 1 -18 87 -15 l93
3 60 133 60 132 244 -2 245 -3 56 -130 56 -130 94 -3 c86 -3 93 -1 88 15 -5
18 -511 1144 -525 1170 -6 9 -98 -178 -280 -569z m352 12 c42 -96 76 -180 76
-187 0 -10 -37 -13 -165 -13 -91 0 -165 2 -165 4 0 3 25 60 56 128 31 68 69
152 85 187 16 35 31 62 33 60 2 -2 38 -83 80 -179z"/>
<path d="M28742 7958 c-149 -321 -274 -591 -278 -601 -6 -16 1 -18 87 -15 l93
3 60 133 60 132 244 -2 245 -3 56 -130 56 -130 94 -3 c86 -3 93 -1 88 15 -5
18 -511 1144 -525 1170 -6 9 -98 -178 -280 -569z m352 12 c42 -96 76 -180 76
-187 0 -10 -37 -13 -165 -13 -91 0 -165 2 -165 4 0 3 25 60 56 128 31 68 69
152 85 187 16 35 31 62 33 60 2 -2 38 -83 80 -179z"/>
<path d="M31042 7958 c-149 -321 -274 -591 -278 -601 -6 -16 1 -18 87 -15 l93
3 60 133 60 132 244 -2 245 -3 56 -130 56 -130 94 -3 c86 -3 93 -1 88 15 -5
18 -511 1144 -525 1170 -6 9 -98 -178 -280 -569z m352 12 c42 -96 76 -180 76
-187 0 -10 -37 -13 -165 -13 -91 0 -165 2 -165 4 0 3 25 60 56 128 31 68 69
152 85 187 16 35 31 62 33 60 2 -2 38 -83 80 -179z"/>
<path d="M33052 7958 c-149 -321 -274 -591 -278 -601 -6 -16 1 -18 87 -15 l93
3 60 133 60 132 244 -2 245 -3 56 -130 56 -130 94 -3 c86 -3 93 -1 88 15 -5
18 -511 1144 -525 1170 -6 9 -98 -178 -280 -569z m352 12 c42 -96 76 -180 76
-187 0 -10 -37 -13 -165 -13 -91 0 -165 2 -165 4 0 3 25 60 56 128 31 68 69
152 85 187 16 35 31 62 33 60 2 -2 38 -83 80 -179z"/>
<path d="M36072 7958 c-149 -321 -274 -591 -278 -601 -6 -16 1 -18 87 -15 l93
3 60 133 60 132 244 -2 245 -3 56 -130 56 -130 94 -3 c86 -3 93 -1 88 15 -5
18 -511 1144 -525 1170 -6 9 -98 -178 -280 -569z m352 12 c42 -96 76 -180 76
-187 0 -10 -37 -13 -165 -13 -91 0 -165 2 -165 4 0 3 25 60 56 128 31 68 69
152 85 187 16 35 31 62 33 60 2 -2 38 -83 80 -179z"/>
<path d="M45032 7958 c-149 -321 -274 -591 -278 -601 -6 -16 1 -18 87 -15 l93
3 60 133 60 132 244 -2 245 -3 56 -130 56 -130 94 -3 c86 -3 93 -1 88 15 -5
18 -511 1144 -525 1170 -6 9 -98 -178 -280 -569z m352 12 c42 -96 76 -180 76
-187 0 -10 -37 -13 -165 -13 -91 0 -165 2 -165 4 0 3 25 60 56 128 31 68 69
152 85 187 16 35 31 62 33 60 2 -2 38 -83 80 -179z"/>
<path d="M45990 7940 l0 -600 85 0 85 0 2 390 3 390 408 -425 407 -425 0 600
0 600 -85 0 -85 0 -2 -389 -3 -389 -405 424 c-222 233 -406 424 -407 424 -2 0
-3 -270 -3 -600z"/>
<path d="M15756 8475 c-94 -24 -174 -72 -256 -155 -131 -130 -186 -270 -177
-450 10 -213 121 -387 309 -485 156 -83 382 -85 537 -5 l41 20 0 100 c0 55 -3
100 -6 100 -3 0 -23 -14 -44 -30 -218 -173 -538 -84 -641 177 -31 80 -32 223
-2 306 86 232 340 340 559 238 38 -18 83 -43 101 -57 l33 -25 0 99 c0 71 -4
103 -13 111 -8 6 -45 23 -83 37 -57 22 -88 28 -184 30 -78 2 -134 -1 -174 -11z"/>
<path d="M17758 8466 c-78 -32 -129 -75 -164 -138 -25 -46 -29 -63 -29 -133 0
-63 5 -89 22 -121 38 -71 111 -126 244 -185 142 -62 189 -94 212 -142 33 -68
14 -171 -40 -219 -105 -95 -287 -35 -309 102 -10 60 -11 60 -99 41 l-80 -18 2
-31 c9 -102 92 -221 191 -269 52 -25 67 -28 162 -28 94 0 111 3 162 28 69 34
131 94 166 162 21 41 27 67 30 148 4 94 3 100 -28 163 -45 92 -116 143 -297
215 -134 53 -187 112 -163 183 28 87 141 131 234 92 26 -11 72 -58 92 -94 2
-5 124 70 130 80 9 14 -44 84 -88 120 -91 71 -238 90 -350 44z"/>
<path d="M23836 8475 c-94 -24 -174 -72 -256 -155 -131 -130 -186 -270 -177
-450 10 -213 121 -387 309 -485 156 -83 382 -85 537 -5 l41 20 0 100 c0 55 -3
100 -6 100 -3 0 -23 -14 -44 -30 -218 -173 -538 -84 -641 177 -31 80 -32 223
-2 306 86 232 340 340 559 238 38 -18 83 -43 101 -57 l33 -25 0 99 c0 71 -4
103 -13 111 -8 6 -45 23 -83 37 -57 22 -88 28 -184 30 -78 2 -134 -1 -174 -11z"/>
<path d="M24890 8474 c-104 -27 -179 -72 -265 -158 -135 -135 -181 -255 -172
-441 3 -65 13 -123 27 -165 77 -228 308 -390 555 -390 170 0 299 54 420 175
125 124 175 240 175 410 0 165 -53 289 -174 411 -88 88 -182 142 -284 163 -73
15 -216 13 -282 -5z m282 -165 c207 -68 329 -294 274 -509 -88 -344 -516 -432
-738 -152 -98 123 -114 314 -37 464 44 86 150 171 254 204 63 20 175 17 247
-7z"/>
<path d="M26228 8475 c-206 -52 -381 -231 -424 -434 -52 -247 37 -480 238
-621 107 -75 177 -95 328 -95 106 1 134 4 183 24 93 37 176 99 234 176 69 92
93 162 100 298 l6 107 -232 0 -231 0 0 -80 0 -80 141 0 141 0 -6 -27 c-15 -62
-62 -138 -113 -179 -151 -123 -354 -109 -501 36 -64 63 -96 117 -116 195 -28
104 -15 219 35 317 33 65 120 145 196 181 63 30 75 32 173 32 95 0 110 -3 165
-29 32 -16 86 -56 119 -88 l60 -58 55 48 c30 27 57 54 59 61 5 16 -81 99 -150
145 -87 58 -157 78 -288 82 -78 2 -133 -1 -172 -11z"/>
<path d="M40058 8466 c-78 -32 -129 -75 -164 -138 -25 -46 -29 -63 -29 -133 0
-63 5 -89 22 -121 38 -71 111 -126 244 -185 142 -62 189 -94 212 -142 33 -68
14 -171 -40 -219 -105 -95 -287 -35 -309 102 -10 60 -11 60 -99 41 l-80 -18 2
-31 c9 -102 92 -221 191 -269 52 -25 67 -28 162 -28 94 0 111 3 162 28 69 34
131 94 166 162 21 41 27 67 30 148 4 94 3 100 -28 163 -45 92 -116 143 -297
215 -134 53 -187 112 -163 183 28 87 141 131 234 92 26 -11 72 -58 92 -94 2
-5 124 70 130 80 9 14 -44 84 -88 120 -91 71 -238 90 -350 44z"/>
<path d="M41588 8475 c-206 -52 -381 -231 -424 -434 -52 -247 37 -480 238
-621 107 -75 177 -95 328 -95 106 1 134 4 183 24 93 37 176 99 234 176 69 92
93 162 100 298 l6 107 -232 0 -231 0 0 -80 0 -80 141 0 141 0 -6 -27 c-15 -62
-62 -138 -113 -179 -151 -123 -354 -109 -501 36 -64 63 -96 117 -116 195 -28
104 -15 219 35 317 33 65 120 145 196 181 63 30 75 32 173 32 95 0 110 -3 165
-29 32 -16 86 -56 119 -88 l60 -58 55 48 c30 27 57 54 59 61 5 16 -81 99 -150
145 -87 58 -157 78 -288 82 -78 2 -133 -1 -172 -11z"/>
<path d="M43508 8466 c-78 -32 -129 -75 -164 -138 -25 -46 -29 -63 -29 -133 0
-63 5 -89 22 -121 38 -71 111 -126 244 -185 142 -62 189 -94 212 -142 33 -68
14 -171 -40 -219 -105 -95 -287 -35 -309 102 -10 60 -11 60 -99 41 l-80 -18 2
-31 c9 -102 92 -221 191 -269 52 -25 67 -28 162 -28 94 0 111 3 162 28 69 34
131 94 166 162 21 41 27 67 30 148 4 94 3 100 -28 163 -45 92 -116 143 -297
215 -134 53 -187 112 -163 183 28 87 141 131 234 92 26 -11 72 -58 92 -94 2
-5 124 70 130 80 9 14 -44 84 -88 120 -91 71 -238 90 -350 44z"/>
<path d="M49018 8466 c-78 -32 -129 -75 -164 -138 -25 -46 -29 -63 -29 -133 0
-63 5 -89 22 -121 38 -71 111 -126 244 -185 142 -62 189 -94 212 -142 33 -68
14 -171 -40 -219 -105 -95 -287 -35 -309 102 -10 60 -11 60 -99 41 l-80 -18 2
-31 c9 -102 92 -221 191 -269 52 -25 67 -28 162 -28 94 0 111 3 162 28 69 34
131 94 166 162 21 41 27 67 30 148 4 94 3 100 -28 163 -45 92 -116 143 -297
215 -134 53 -187 112 -163 183 28 87 141 131 234 92 26 -11 72 -58 92 -94 2
-5 124 70 130 80 9 14 -44 84 -88 120 -91 71 -238 90 -350 44z"/>
<path d="M20000 7906 l0 -566 173 0 c294 1 400 34 532 164 113 111 165 237
165 401 0 262 -146 464 -390 540 -42 14 -104 19 -267 22 l-213 5 0 -566z m388
389 c91 -22 152 -56 210 -119 176 -193 111 -525 -123 -632 -63 -29 -143 -44
-237 -44 l-68 0 0 405 0 405 78 0 c42 0 105 -7 140 -15z"/>
<path d="M21090 7905 l0 -565 310 0 310 0 0 80 0 80 -225 0 -225 0 0 190 0
190 220 0 220 0 0 80 0 80 -220 0 -220 0 0 135 0 135 225 0 225 0 0 80 0 80
-310 0 -310 0 0 -565z"/>
<path d="M27110 7905 l0 -565 85 0 85 0 0 565 0 565 -85 0 -85 0 0 -565z"/>
<path d="M27550 7906 l0 -566 173 0 c294 1 400 34 532 164 113 111 165 237
165 401 0 262 -146 464 -390 540 -42 14 -104 19 -267 22 l-213 5 0 -566z m388
389 c91 -22 152 -56 210 -119 176 -193 111 -525 -123 -632 -63 -29 -143 -44
-237 -44 l-68 0 0 405 0 405 78 0 c42 0 105 -7 140 -15z"/>
<path d="M30160 7905 l0 -565 85 0 85 0 0 230 0 230 70 0 c176 0 306 69 361
193 35 78 34 210 -2 288 -15 31 -43 72 -63 92 -77 78 -154 97 -383 97 l-153 0
0 -565z m376 379 c59 -31 84 -75 84 -148 0 -115 -61 -166 -207 -174 l-83 -5 0
178 0 178 83 -5 c57 -3 96 -11 123 -24z"/>
<path d="M32000 7905 l0 -565 85 0 85 0 0 230 c0 192 2 230 14 230 8 0 85
-102 171 -226 87 -124 163 -228 169 -230 7 -3 55 -3 108 -2 l95 3 -174 238
c-140 193 -170 239 -155 243 94 30 162 86 202 169 34 71 35 208 2 280 -67 146
-181 195 -454 195 l-148 0 0 -565z m376 374 c64 -33 86 -75 82 -156 -3 -43
-10 -72 -24 -90 -32 -44 -102 -74 -188 -80 l-76 -6 0 183 0 183 79 -5 c58 -3
93 -11 127 -29z"/>
<path d="M37030 7906 l0 -566 173 0 c294 1 400 34 532 164 113 111 165 237
165 401 0 262 -146 464 -390 540 -42 14 -104 19 -267 22 l-213 5 0 -566z m388
389 c91 -22 152 -56 210 -119 176 -193 111 -525 -123 -632 -63 -29 -143 -44
-237 -44 l-68 0 0 405 0 405 78 0 c42 0 105 -7 140 -15z"/>
<path d="M38120 7905 l0 -565 85 0 85 0 0 230 c0 192 2 230 14 230 8 0 85
-102 171 -226 87 -124 163 -228 169 -230 7 -3 55 -3 108 -2 l95 3 -174 238
c-140 193 -170 239 -155 243 94 30 162 86 202 169 34 71 35 208 2 280 -67 146
-181 195 -454 195 l-148 0 0 -565z m376 374 c64 -33 86 -75 82 -156 -3 -43
-10 -72 -24 -90 -32 -44 -102 -74 -188 -80 l-76 -6 0 183 0 183 79 -5 c58 -3
93 -11 127 -29z"/>
<path d="M39020 7905 l0 -565 310 0 310 0 0 80 0 80 -225 0 -225 0 0 190 0
190 220 0 220 0 0 80 0 80 -220 0 -220 0 0 135 0 135 225 0 225 0 0 80 0 80
-310 0 -310 0 0 -565z"/>
<path d="M42470 7905 l0 -565 310 0 310 0 0 80 0 80 -225 0 -225 0 0 190 0
190 220 0 220 0 0 80 0 80 -220 0 -220 0 0 135 0 135 225 0 225 0 0 80 0 80
-310 0 -310 0 0 -565z"/>
<path d="M44090 8390 l0 -80 130 0 130 0 0 -485 0 -485 85 0 85 0 0 485 0 485
130 0 130 0 0 80 0 80 -345 0 -345 0 0 -80z"/>
<path d="M47130 8390 l0 -80 130 0 130 0 0 -485 0 -485 85 0 85 0 0 485 0 485
130 0 130 0 0 80 0 80 -345 0 -345 0 0 -80z"/>
<path d="M47980 7905 l0 -565 310 0 310 0 0 80 0 80 -225 0 -225 0 0 190 0
190 220 0 220 0 0 80 0 80 -220 0 -220 0 0 135 0 135 225 0 225 0 0 80 0 80
-310 0 -310 0 0 -565z"/>
<path d="M38830 5862 c-79 -405 -145 -745 -148 -754 -4 -16 6 -18 106 -18
l111 0 10 53 c6 28 38 207 71 397 34 190 64 355 68 368 6 18 48 -70 206 -428
110 -248 203 -447 207 -443 4 4 96 204 204 443 109 239 200 438 204 442 4 4
35 -171 70 -390 34 -218 65 -407 68 -419 5 -22 9 -23 115 -23 84 0 109 3 106
13 -3 6 -63 344 -134 749 -71 406 -132 738 -135 738 -3 0 -116 -241 -250 -535
-134 -294 -246 -535 -249 -535 -3 1 -111 242 -240 536 -129 295 -237 537 -240
539 -3 2 -70 -328 -150 -733z"/>
<path d="M15660 5843 l0 -753 105 0 105 0 2 491 3 491 508 -531 c280 -292 511
-531 513 -531 2 0 4 335 4 745 l0 745 -105 0 -105 0 0 -485 c0 -267 -3 -485
-7 -484 -5 0 -177 178 -383 395 -206 216 -434 455 -507 531 l-132 138 -1 -752z"/>
<path d="M19459 5849 c-189 -407 -345 -744 -347 -750 -2 -5 43 -9 111 -9 l115
0 78 170 78 170 302 0 302 0 73 -170 72 -170 119 0 c66 0 117 3 115 8 -3 4
-154 340 -337 747 -183 407 -333 741 -334 742 -1 1 -157 -331 -347 -738z m448
19 l101 -233 -206 -3 c-113 -1 -207 0 -210 3 -6 5 200 464 208 465 3 0 51
-105 107 -232z"/>
<path d="M24299 5849 c-189 -407 -345 -744 -347 -750 -2 -5 43 -9 111 -9 l115
0 78 170 78 170 302 0 302 0 73 -170 72 -170 119 0 c66 0 117 3 115 8 -3 4
-154 340 -337 747 -183 407 -333 741 -334 742 -1 1 -157 -331 -347 -738z m448
19 l101 -233 -206 -3 c-113 -1 -207 0 -210 3 -6 5 200 464 208 465 3 0 51
-105 107 -232z"/>
<path d="M37539 5849 c-189 -407 -345 -744 -347 -750 -2 -5 43 -9 111 -9 l115
0 78 170 78 170 302 0 302 0 73 -170 72 -170 119 0 c66 0 117 3 115 8 -3 4
-154 340 -337 747 -183 407 -333 741 -334 742 -1 1 -157 -331 -347 -738z m448
19 l101 -233 -206 -3 c-113 -1 -207 0 -210 3 -6 5 200 464 208 465 3 0 51
-105 107 -232z"/>
<path d="M41639 5849 c-189 -407 -345 -744 -347 -750 -2 -5 43 -9 111 -9 l115
0 78 170 78 170 302 0 302 0 73 -170 72 -170 119 0 c66 0 117 3 115 8 -3 4
-154 340 -337 747 -183 407 -333 741 -334 742 -1 1 -157 -331 -347 -738z m448
19 l101 -233 -206 -3 c-113 -1 -207 0 -210 3 -6 5 200 464 208 465 3 0 51
-105 107 -232z"/>
<path d="M44149 5849 c-189 -407 -345 -744 -347 -750 -2 -5 43 -9 111 -9 l115
0 78 170 78 170 302 0 302 0 73 -170 72 -170 119 0 c66 0 117 3 115 8 -3 4
-154 340 -337 747 -183 407 -333 741 -334 742 -1 1 -157 -331 -347 -738z m448
19 l101 -233 -206 -3 c-113 -1 -207 0 -210 3 -6 5 200 464 208 465 3 0 51
-105 107 -232z"/>
<path d="M22193 6515 c-122 -27 -229 -108 -281 -215 -23 -48 -27 -67 -27 -145
1 -74 5 -99 25 -140 50 -103 147 -174 353 -259 107 -44 153 -72 194 -120 78
-88 67 -222 -25 -309 -38 -35 -61 -47 -104 -56 -144 -30 -264 55 -284 202 -6
39 -10 47 -28 47 -26 -1 -186 -36 -193 -44 -10 -9 19 -110 50 -175 58 -126
177 -210 325 -231 232 -33 439 92 504 303 29 96 23 228 -14 308 -54 117 -138
182 -351 271 -150 62 -198 92 -222 138 -47 91 20 204 136 229 94 20 177 -10
230 -84 18 -25 36 -44 39 -43 42 18 160 95 160 104 0 17 -69 103 -110 137 -49
42 -118 74 -185 86 -74 14 -114 13 -192 -4z"/>
<path d="M31058 6519 c-157 -21 -314 -105 -430 -227 -129 -137 -187 -273 -196
-458 -13 -292 110 -521 361 -672 171 -103 411 -125 616 -56 181 61 343 204
425 377 99 208 86 487 -31 681 -70 114 -199 233 -321 295 -102 52 -291 79
-424 60z m277 -221 c223 -73 376 -315 350 -556 -14 -131 -62 -231 -155 -325
-185 -185 -466 -205 -673 -48 -261 196 -288 572 -58 802 144 144 342 191 536
127z"/>
<path d="M32473 6515 c-122 -27 -229 -108 -281 -215 -23 -48 -27 -67 -27 -145
1 -74 5 -99 25 -140 50 -103 147 -174 353 -259 107 -44 153 -72 194 -120 78
-88 67 -222 -25 -309 -38 -35 -61 -47 -104 -56 -144 -30 -264 55 -284 202 -6
39 -10 47 -28 47 -26 -1 -186 -36 -193 -44 -10 -9 19 -110 50 -175 58 -126
177 -210 325 -231 232 -33 439 92 504 303 29 96 23 228 -14 308 -54 117 -138
182 -351 271 -150 62 -198 92 -222 138 -47 91 20 204 136 229 94 20 177 -10
230 -84 18 -25 36 -44 39 -43 42 18 160 95 160 104 0 17 -69 103 -110 137 -49
42 -118 74 -185 86 -74 14 -114 13 -192 -4z"/>
<path d="M36573 6515 c-122 -27 -229 -108 -281 -215 -23 -48 -27 -67 -27 -145
1 -74 5 -99 25 -140 50 -103 147 -174 353 -259 107 -44 153 -72 194 -120 78
-88 67 -222 -25 -309 -38 -35 -61 -47 -104 -56 -144 -30 -264 55 -284 202 -6
39 -10 47 -28 47 -26 -1 -186 -36 -193 -44 -10 -9 19 -110 50 -175 58 -126
177 -210 325 -231 232 -33 439 92 504 303 29 96 23 228 -14 308 -54 117 -138
182 -351 271 -150 62 -198 92 -222 138 -47 91 20 204 136 229 94 20 177 -10
230 -84 18 -25 36 -44 39 -43 42 18 160 95 160 104 0 17 -69 103 -110 137 -49
42 -118 74 -185 86 -74 14 -114 13 -192 -4z"/>
<path d="M47268 6519 c-157 -21 -314 -105 -430 -227 -129 -137 -187 -273 -196
-458 -13 -292 110 -521 361 -672 171 -103 411 -125 616 -56 181 61 343 204
425 377 99 208 86 487 -31 681 -70 114 -199 233 -321 295 -102 52 -291 79
-424 60z m277 -221 c223 -73 376 -315 350 -556 -14 -131 -62 -231 -155 -325
-185 -185 -466 -205 -673 -48 -261 196 -288 572 -58 802 144 144 342 191 536
127z"/>
<path d="M48693 6515 c-122 -27 -229 -108 -281 -215 -23 -48 -27 -67 -27 -145
1 -74 5 -99 25 -140 50 -103 147 -174 353 -259 107 -44 153 -72 194 -120 78
-88 67 -222 -25 -309 -38 -35 -61 -47 -104 -56 -144 -30 -264 55 -284 202 -6
39 -10 47 -28 47 -26 -1 -186 -36 -193 -44 -10 -9 19 -110 50 -175 58 -126
177 -210 325 -231 232 -33 439 92 504 303 29 96 23 228 -14 308 -54 117 -138
182 -351 271 -150 62 -198 92 -222 138 -47 91 20 204 136 229 94 20 177 -10
230 -84 18 -25 36 -44 39 -43 42 18 160 95 160 104 0 17 -69 103 -110 137 -49
42 -118 74 -185 86 -74 14 -114 13 -192 -4z"/>
<path d="M17090 6400 l0 -100 163 -2 162 -3 3 -602 2 -603 105 0 105 0 0 605
0 605 160 0 160 0 0 100 0 100 -430 0 -430 0 0 -100z"/>
<path d="M18140 5795 l0 -705 105 0 105 0 2 287 c3 253 5 288 19 291 11 2 79
-88 218 -288 l202 -290 130 0 c71 0 129 1 129 3 0 2 -96 136 -214 298 -201
275 -213 295 -193 303 160 65 237 145 273 286 17 69 15 170 -6 242 -17 59 -86
154 -137 187 -105 70 -215 91 -469 91 l-164 0 0 -705z m455 476 c63 -28 83
-46 106 -96 35 -76 19 -186 -34 -243 -47 -50 -149 -82 -264 -82 l-53 0 0 226
0 227 98 -5 c70 -3 111 -11 147 -27z"/>
<path d="M22980 5795 l0 -705 105 0 105 0 2 287 c3 253 5 288 19 291 11 2 79
-88 218 -288 l202 -290 130 0 c71 0 129 1 129 3 0 2 -96 136 -214 298 -201
275 -213 295 -193 303 160 65 237 145 273 286 17 69 15 170 -6 242 -17 59 -86
154 -137 187 -105 70 -215 91 -469 91 l-164 0 0 -705z m455 476 c63 -28 83
-46 106 -96 35 -76 19 -186 -34 -243 -47 -50 -149 -82 -264 -82 l-53 0 0 226
0 227 98 -5 c70 -3 111 -11 147 -27z"/>
<path d="M26730 5796 l0 -706 198 0 c302 0 422 21 551 97 181 106 298 278 331
483 50 318 -93 620 -355 749 -125 62 -193 73 -472 78 l-253 5 0 -706z m465
489 c116 -22 204 -66 273 -139 96 -100 131 -195 132 -351 0 -152 -42 -258
-139 -356 -104 -103 -232 -148 -428 -149 l-93 0 0 505 0 505 89 0 c49 0 124
-7 166 -15z"/>
<path d="M28090 5795 l0 -705 390 0 390 0 0 100 0 100 -285 0 -285 0 0 235 0
235 275 0 275 0 0 100 0 100 -275 0 -275 0 0 170 0 170 285 0 285 0 0 100 0
100 -390 0 -390 0 0 -705z"/>
<path d="M29730 5795 l0 -705 315 0 315 0 0 100 0 100 -210 0 -210 0 0 605 0
605 -105 0 -105 0 0 -705z"/>
<path d="M33850 5796 l0 -706 198 0 c302 0 422 21 551 97 181 106 298 278 331
483 50 318 -93 620 -355 749 -125 62 -193 73 -472 78 l-253 5 0 -706z m465
489 c116 -22 204 -66 273 -139 96 -100 131 -195 132 -351 0 -152 -42 -258
-139 -356 -104 -103 -232 -148 -428 -149 l-93 0 0 505 0 505 89 0 c49 0 124
-7 166 -15z"/>
<path d="M35210 5795 l0 -705 390 0 390 0 0 100 0 100 -285 0 -285 0 0 235 0
235 275 0 275 0 0 100 0 100 -275 0 -275 0 0 170 0 170 285 0 285 0 0 100 0
100 -390 0 -390 0 0 -705z"/>
<path d="M40540 5796 l0 -706 105 0 105 0 0 284 0 283 113 6 c178 9 284 51
370 147 67 75 91 142 91 265 0 55 -5 119 -12 142 -20 67 -91 162 -152 205 -86
59 -142 70 -397 75 l-223 5 0 -706z m428 489 c60 -18 119 -66 138 -112 8 -18
14 -60 14 -93 0 -141 -84 -209 -272 -218 l-98 -5 0 222 0 221 83 0 c46 0 107
-7 135 -15z"/>
<path d="M42840 5795 l0 -705 105 0 105 0 2 287 c3 253 5 288 19 291 11 2 79
-88 218 -288 l202 -290 130 0 c71 0 129 1 129 3 0 2 -96 136 -214 298 -201
275 -213 295 -193 303 160 65 237 145 273 286 17 69 15 170 -6 242 -17 59 -86
154 -137 187 -105 70 -215 91 -469 91 l-164 0 0 -705z m455 476 c63 -28 83
-46 106 -96 35 -76 19 -186 -34 -243 -47 -50 -149 -82 -264 -82 l-53 0 0 226
0 227 98 -5 c70 -3 111 -11 147 -27z"/>
<path d="M45350 5796 l0 -706 198 0 c302 0 422 21 551 97 181 106 298 278 331
483 50 318 -93 620 -355 749 -125 62 -193 73 -472 78 l-253 5 0 -706z m465
489 c116 -22 204 -66 273 -139 96 -100 131 -195 132 -351 0 -152 -42 -258
-139 -356 -104 -103 -232 -148 -428 -149 l-93 0 0 505 0 505 89 0 c49 0 124
-7 166 -15z"/>
<path d="M20793 5305 c-57 -24 -85 -94 -63 -159 38 -115 208 -104 241 16 14
54 -15 118 -64 141 -42 20 -71 21 -114 2z"/>
<path d="M25633 5305 c-57 -24 -85 -94 -63 -159 38 -115 208 -104 241 16 14
54 -15 118 -64 141 -42 20 -71 21 -114 2z"/>
<path d="M31036 4685 l-118 -125 33 -27 c17 -16 38 -31 45 -36 8 -5 62 28 153
93 77 55 142 104 145 109 4 6 -73 68 -130 103 -7 5 -57 -41 -128 -117z"/>
<path d="M36902 4687 l-122 -123 27 -25 c63 -56 48 -60 213 52 83 56 152 105
155 108 3 5 -119 96 -145 109 -3 1 -60 -53 -128 -121z"/>
<path d="M37750 3827 l0 -637 90 0 90 0 2 415 3 415 355 -370 c195 -204 390
-407 432 -453 l77 -82 1 633 0 632 -90 0 -90 0 -2 -409 -3 -409 -410 430
c-225 236 -420 439 -432 450 l-23 21 0 -636z"/>
<path d="M27192 4409 c-11 -24 -141 -306 -291 -626 -149 -321 -271 -585 -271
-588 0 -3 44 -4 97 -3 l97 3 64 143 65 142 255 -2 255 -3 61 -142 61 -143 98
0 c53 0 97 3 97 6 0 9 -552 1238 -560 1248 -5 4 -17 -11 -28 -35z m112 -567
l84 -192 -179 0 -179 0 24 53 c121 271 155 341 161 335 3 -2 42 -90 89 -196z"/>
<path d="M31822 4409 c-11 -24 -141 -306 -291 -626 -149 -321 -271 -585 -271
-588 0 -3 44 -4 97 -3 l97 3 64 143 65 142 255 -2 255 -3 61 -142 61 -143 98
0 c53 0 97 3 97 6 0 9 -552 1238 -560 1248 -5 4 -17 -11 -28 -35z m112 -567
l84 -192 -179 0 -179 0 24 53 c121 271 155 341 161 335 3 -2 42 -90 89 -196z"/>
<path d="M28820 4384 c-294 -77 -489 -367 -451 -671 14 -116 40 -186 105 -282
84 -122 215 -215 352 -247 94 -22 256 -15 339 15 163 58 297 202 339 364 8 31
18 99 22 152 l7 95 -247 0 -246 0 0 -85 0 -85 146 0 147 0 -7 -32 c-19 -97
-120 -209 -223 -248 -87 -32 -205 -26 -293 16 -90 42 -182 130 -220 208 -58
122 -60 273 -5 394 35 76 134 176 215 215 62 30 71 32 180 32 109 0 119 -2
183 -32 46 -22 88 -53 128 -93 l58 -60 62 58 c74 69 73 73 -27 156 -81 66
-160 109 -240 130 -77 20 -249 20 -324 0z"/>
<path d="M34290 4384 c-294 -77 -489 -367 -451 -671 14 -116 40 -186 105 -282
84 -122 215 -215 352 -247 94 -22 256 -15 339 15 163 58 297 202 339 364 8 31
18 99 22 152 l7 95 -247 0 -246 0 0 -85 0 -85 146 0 147 0 -7 -32 c-19 -97
-120 -209 -223 -248 -87 -32 -205 -26 -293 16 -90 42 -182 130 -220 208 -58
122 -60 273 -5 394 35 76 134 176 215 215 62 30 71 32 180 32 109 0 119 -2
183 -32 46 -22 88 -53 128 -93 l58 -60 62 58 c74 69 73 73 -27 156 -81 66
-160 109 -240 130 -77 20 -249 20 -324 0z"/>
<path d="M36746 4384 c-99 -24 -193 -80 -281 -169 -131 -130 -179 -245 -179
-425 1 -124 19 -203 70 -301 42 -80 137 -179 218 -228 187 -112 422 -121 619
-24 101 51 221 171 271 273 86 178 87 372 0 550 -28 58 -57 95 -123 160 -93
92 -170 138 -276 165 -74 19 -239 18 -319 -1z m347 -191 c223 -105 317 -382
207 -609 -40 -82 -146 -183 -227 -215 -48 -19 -77 -23 -168 -24 -103 0 -114 2
-177 32 -186 88 -283 267 -257 477 12 93 47 165 116 237 105 110 178 140 333
136 94 -2 112 -6 173 -34z"/>
<path d="M25990 3785 l0 -595 265 0 265 0 0 85 0 85 -175 0 -175 0 0 510 0
510 -90 0 -90 0 0 -595z"/>
<path d="M29750 3978 c0 -440 6 -496 56 -588 38 -69 121 -145 200 -182 131
-61 309 -48 432 31 73 48 117 99 156 181 l31 65 3 448 3 447 -90 0 -90 0 -3
-432 c-3 -423 -4 -434 -25 -474 -29 -54 -93 -110 -140 -123 -59 -17 -153 -13
-199 8 -55 25 -109 83 -130 139 -16 42 -18 96 -22 465 l-3 417 -90 0 -89 0 0
-402z"/>
<path d="M30920 3785 l0 -595 90 0 90 0 0 595 0 595 -90 0 -90 0 0 -595z"/>
<path d="M35220 3785 l0 -595 90 0 90 0 0 595 0 595 -90 0 -90 0 0 -595z"/>
<path d="M35868 3913 c-3 -458 -3 -469 -25 -509 -12 -22 -33 -45 -48 -52 -39
-18 -101 -14 -146 9 -23 11 -42 19 -43 17 -7 -8 -86 -150 -86 -153 0 -1 24
-13 53 -25 63 -28 177 -37 244 -21 102 25 183 108 219 221 15 48 18 117 22
518 l4 462 -96 0 -95 0 -3 -467z"/>
<path d="M32910 3575 l0 -75 170 0 170 0 0 75 0 75 -170 0 -170 0 0 -75z"/>
</g>
</svg>
