<svg width="100" height="100" viewBox="0 0 100 100" fill="none" xmlns="http://www.w3.org/2000/svg">
<g clip-path="url(#clip0_415_2447)">
<path fill-rule="evenodd" clip-rule="evenodd" d="M89.4583 17.5831C88.4789 16.6075 87.2924 15.865 85.9868 15.4105C84.6813 14.9561 83.2901 14.8015 81.9166 14.9581C79.8664 15.2093 77.9956 16.2518 76.7033 17.8632C75.4111 19.4746 74.7998 21.5272 75 23.5831C75.1099 24.3991 75.3639 25.1891 75.75 25.9164L68.5833 28.7497C67.9365 28.8494 67.2964 28.9885 66.6666 29.1664C64.2916 25.7081 60.5416 19.2497 57.7916 15.3747C57.4583 14.9581 57.1666 14.6247 56.9166 14.2497C57.4288 13.8963 57.9035 13.4914 58.3333 13.0414C59.2384 12.3843 59.9448 11.4905 60.375 10.4581C60.8751 9.11339 60.9474 7.64697 60.5819 6.25962C60.2165 4.87226 59.4311 3.63179 58.3333 2.70807C57.3845 1.74632 56.2357 1.00513 54.9683 0.537072C53.701 0.0690184 52.3462 -0.114431 51 -0.000264749C48.9346 0.230838 47.043 1.26481 45.7334 2.87846C44.4237 4.49212 43.8011 6.55604 44 8.62474C44.1672 9.86713 44.671 11.0401 45.4568 12.0169C46.2426 12.9936 47.2806 13.737 48.4583 14.1664C44.9166 18.3331 39 26.6664 36.9166 29.4997L34.875 29.1664C32.1501 28.0848 29.3682 27.1529 26.5416 26.3747C27.0083 25.0595 27.0713 23.6348 26.7223 22.2836C26.3734 20.9323 25.6285 19.7162 24.5833 18.7914C23.6039 17.8158 22.4174 17.0733 21.1118 16.6189C19.8063 16.1644 18.4151 16.0098 17.0416 16.1664C14.9559 16.4269 13.0579 17.502 11.7621 19.157C10.4662 20.812 9.87767 22.9124 10.125 24.9997C10.2653 25.944 10.595 26.8501 11.0944 27.6636C11.5937 28.4772 12.2523 29.1815 13.0307 29.7341C13.809 30.2867 14.691 30.6763 15.6238 30.8795C16.5565 31.0827 17.5206 31.0952 18.4583 30.9164V33.7914L19.2083 37.9581L21 44.2081L22.6666 49.8331C23.2083 51.6247 25.25 51.0414 25.0833 49.0414L23.625 43.5414L22.125 37.2914L21.9166 33.3331C21.9166 32.9164 21.6666 31.5414 21.625 30.5831C22.3474 30.2949 23.0443 29.9464 23.7083 29.5414C24.4776 29.5897 25.2431 29.6871 26 29.8331C28.65 30.722 31.2509 31.7512 33.7916 32.9164C35.1519 33.3134 36.5472 33.5785 37.9583 33.7081C38.3296 33.7327 38.701 33.6613 39.0367 33.5008C39.3724 33.3402 39.6611 33.0959 39.875 32.7914C40.5 31.8747 48.9583 20.2914 52.7916 16.1247C55.875 19.7497 61.4583 29.2081 64.0833 32.7914C64.3195 33.103 64.6303 33.3503 64.9871 33.5105C65.3438 33.6707 65.7351 33.7386 66.125 33.7081C67.3604 33.5017 68.5739 33.1808 69.75 32.7497C70.7916 32.3747 71.8333 31.9997 72.8333 31.5414C73.8333 31.0831 75.7916 30.2081 77.25 29.5414C77.5416 29.5414 78.5833 29.2914 78.875 28.9164C79.3229 29.4428 79.5863 30.1013 79.625 30.7914C79.8194 32.1735 79.8194 33.576 79.625 34.9581C79.0926 38.5328 78.2705 42.0583 77.1666 45.4997C76.4166 47.9997 75.2916 50.1247 74.3333 52.5414C73.375 54.9581 75.2916 56.7081 76.125 54.8747C77.3333 52.2081 79.0833 49.2081 80.0416 46.5414C81.3086 42.9703 82.2976 39.3066 83 35.5831C83.3406 33.6116 83.3406 31.5962 83 29.6247C85.0833 29.6247 84.625 30.2497 85.7083 29.8747C87.064 29.4884 88.3358 28.8525 89.4583 27.9997C90.352 27.3309 91.0557 26.4404 91.5 25.4164C92.0068 24.0593 92.0826 22.5789 91.7173 21.177C91.3519 19.7752 90.563 18.5202 89.4583 17.5831ZM23.375 25.4164C23.0416 26.7497 14.125 31.2081 13.875 24.4581C13.9489 23.4043 14.4203 22.418 15.1939 21.6986C15.9674 20.9792 16.9853 20.5805 18.0416 20.5831C18.7886 20.4726 19.5507 20.5314 20.2719 20.7549C20.9931 20.9785 21.6548 21.3612 22.2083 21.8747C22.7292 22.2852 23.1177 22.8399 23.3252 23.4698C23.5327 24.0997 23.55 24.7767 23.375 25.4164ZM47.75 8.33307C47.8339 7.28676 48.3097 6.31069 49.0822 5.6C49.8547 4.88931 50.867 4.49637 51.9166 4.49974C52.621 4.41307 53.3358 4.47992 54.0119 4.6957C54.688 4.91147 55.3094 5.27105 55.8333 5.74974C56.4252 6.10991 56.8936 6.64152 57.1764 7.27405C57.4592 7.90659 57.543 8.61015 57.4166 9.2914C57.2132 9.97848 56.7884 10.5791 56.2083 10.9997C56.2083 10.9997 47.9166 13.5414 47.75 8.33307ZM88.2083 24.1664C87.9892 24.8457 87.5675 25.4418 87 25.8747C86.3275 26.4269 85.5274 26.8019 84.6727 26.9653C83.818 27.1287 82.9361 27.0753 82.1073 26.8101C81.2786 26.5449 80.5295 26.0763 79.9284 25.4471C79.3274 24.8179 78.8936 24.0481 78.6666 23.2081C78.7506 22.1618 79.2264 21.1857 79.9989 20.475C80.7714 19.7643 81.7836 19.3714 82.8333 19.3747C83.5377 19.2881 84.2525 19.3549 84.9286 19.5707C85.6047 19.7865 86.226 20.1461 86.75 20.6247C87.3184 21.0125 87.7599 21.5593 88.0192 22.1966C88.2786 22.8339 88.3444 23.5336 88.2083 24.2081V24.1664Z" fill="#EF476F"/>
<path fill-rule="evenodd" clip-rule="evenodd" d="M73.0833 56.2494C71.4912 54.9706 69.6857 53.9832 67.75 53.3327C61.602 51.4561 55.2191 50.46 48.7917 50.3744C41.4179 49.9226 34.023 50.7975 26.9583 52.9577L26.4583 53.2077C25.7854 53.4714 25.1429 53.8067 24.5417 54.2077C23.2738 54.9089 22.2547 55.9862 21.625 57.2911C20.8075 59.2746 20.1117 61.3061 19.5417 63.3744C18.75 66.3327 18.25 68.9161 17.875 70.5411C17.7321 70.7961 17.6068 71.0606 17.5 71.3327L16.6667 71.6661C14.8213 72.0835 12.9993 72.5981 11.2083 73.2077C9.49999 73.8744 8.62499 74.9161 8.49999 75.7494C7.37499 81.6244 11.125 88.2494 18.9583 93.2494C27.675 98.225 37.6461 100.569 47.6667 99.9994C47.9435 99.9473 48.1935 99.8001 48.3733 99.5833C48.5531 99.3665 48.6516 99.0936 48.6516 98.8119C48.6516 98.5302 48.5531 98.2573 48.3733 98.0405C48.1935 97.8237 47.9435 97.6765 47.6667 97.6244C38.1185 97.9737 28.6763 95.5262 20.5 90.5827C14.5417 86.6244 11.2083 81.5827 11.9583 76.9994C11.2917 75.8744 15.4583 75.9577 17.3333 75.5411C18.5136 75.3383 19.6363 74.8835 20.625 74.2077C21.2251 73.5592 21.6546 72.7717 21.875 71.9161C22.9126 67.4915 24.3061 63.1579 26.0417 58.9577C26.5417 57.6661 28.5833 56.9994 31.2083 56.3327C37.0447 55.0351 43.0274 54.5167 49 54.7911C51.1667 54.7911 53.1667 54.9994 55.3333 55.2077C53.8034 57.7627 51.7944 59.9981 49.4167 61.7911C48.279 62.6279 47.0813 63.38 45.8333 64.0411C44.5656 64.6816 43.2572 65.2384 41.9167 65.7077C39.4452 66.6156 36.8406 67.1083 34.2083 67.1661C34.3599 65.6651 34.6104 64.1757 34.9583 62.7077C35.0234 62.3991 34.9693 62.0773 34.8071 61.8068C34.6448 61.5364 34.3863 61.3372 34.0833 61.2494C33.7906 61.1717 33.4792 61.2108 33.2148 61.3586C32.9504 61.5063 32.7539 61.751 32.6667 62.0411C31.2262 66.2027 30.5899 70.6002 30.7917 74.9994C31.0152 78.1022 31.9874 81.1045 33.625 83.7494C35.5265 86.4368 38.2445 88.4388 41.375 89.4577C45.7476 90.9075 50.3945 91.3351 54.9583 90.7077C56.5738 90.5367 58.1582 90.1441 59.6667 89.5411C60.8393 89.1055 61.9049 88.4235 62.7917 87.5411C64.9849 85.0479 66.4293 81.9859 66.9583 78.7077C67.7885 74.1795 67.6893 69.5298 66.6667 65.0411C66.5778 64.6965 66.3589 64.3998 66.0558 64.2133C65.7528 64.0269 65.3893 63.9651 65.0417 64.0411C64.7003 64.1206 64.404 64.3313 64.2169 64.6276C64.0298 64.9239 63.9668 65.282 64.0417 65.6244C64.6672 69.0825 64.6672 72.6247 64.0417 76.0827C63.6503 79.3654 62.1855 82.4268 59.875 84.7911C59.3533 85.2447 58.7433 85.5852 58.0833 85.7911C56.862 86.1597 55.6049 86.3972 54.3333 86.4994C51.0755 86.8496 47.7823 86.6666 44.5833 85.9577C41.5901 85.4884 38.8439 84.0199 36.7917 81.7911C34.9712 79.1922 33.9304 76.1277 33.7917 72.9577V70.2494C36.7752 70.8544 39.8498 70.8544 42.8333 70.2494C44.5096 69.8691 46.123 69.2518 47.625 68.4161C49.1429 67.6256 50.5449 66.6302 51.7917 65.4577C54.5769 62.8294 56.6916 59.5717 57.9583 55.9577C60.7865 56.3119 63.576 56.9256 66.2917 57.7911C68.875 58.6661 70.8333 59.5411 71.4167 60.9577C73.4583 65.8744 74.5417 70.4161 75.2917 72.5827C75.4889 73.3562 75.8921 74.0618 76.4583 74.6244C77.1025 75.0613 77.8235 75.3724 78.5833 75.5411C79.9167 75.9577 82.375 77.5411 83.4583 77.4161C83.2626 80.3331 82.3978 83.1658 80.931 85.6948C79.4642 88.2238 77.4348 90.3811 75 91.9994C69.2321 95.456 62.6409 97.2981 55.9167 97.3327C55.7398 97.3324 55.5647 97.3683 55.4023 97.4384C55.2399 97.5085 55.0936 97.6111 54.9725 97.74C54.8514 97.8689 54.7581 98.0214 54.6983 98.1878C54.6385 98.3543 54.6136 98.5312 54.625 98.7077C54.6465 99.0651 54.8065 99.4 55.0711 99.6412C55.3356 99.8824 55.6838 100.011 56.0417 99.9994C63.3457 100.136 70.5485 98.2773 76.875 94.6244C80.0585 92.6149 82.6925 89.8454 84.5399 86.5652C86.3873 83.2849 87.3902 79.5968 87.4583 75.8327C87.4645 75.3556 87.3293 74.8873 87.0698 74.4869C86.8103 74.0865 86.438 73.7719 86 73.5827C84.2637 72.8198 82.4655 72.2065 80.625 71.7494C80.125 71.7494 79.625 71.2911 79.3333 71.2077L79.1667 70.8327C78.7083 69.4161 78.1667 67.1661 77.375 64.4994C76.8333 62.8327 76.2916 60.9994 75.5416 59.1244C74.7881 58.1117 73.9667 57.1511 73.0833 56.2494Z" fill="#EF476F"/>
</g>
<defs>
<clipPath id="clip0_415_2447">
<rect width="100" height="100" fill="white"/>
</clipPath>
</defs>
</svg>
