<svg width="274" height="215" viewBox="0 0 274 215" fill="none" xmlns="http://www.w3.org/2000/svg">
<path opacity="0.5" d="M47.9851 104.188C49.4068 87.6335 59.7562 71.3645 76.1539 59.9074L95.3894 46.4676C111.979 34.8767 132.956 29.4695 152.36 31.7823L173.573 34.3109C193.103 36.6388 208.884 46.53 216.378 61.1407L224.738 77.4388C232.124 91.8389 230.66 109.264 220.755 124.834L209.014 143.29C199.11 158.861 181.829 170.902 162.012 176.043L139.583 181.861C119.476 187.077 98.9682 184.617 83.9557 175.187L67.6493 164.945C52.7337 155.576 44.8791 140.355 46.3174 123.607L47.9851 104.188Z" fill="#EF476F"/>
<path d="M60.8695 134.329C60.8443 134.311 60.8191 134.293 60.7939 134.275C56.0137 130.785 53.8283 125.571 54.9486 120.329C56.083 115.016 60.819 109.903 66.5585 107.567C62.6182 105.704 60.0301 102.248 59.3671 97.877C58.6179 92.9503 60.46 87.8013 64.419 83.7556C68.3779 79.71 74.2947 76.9274 80.654 76.121C86.1857 75.4197 91.1276 76.3318 94.5404 78.6331C95.1058 74.0029 97.9194 69.0405 102.456 64.7555C107.994 59.5244 115.239 55.9605 122.328 54.9782C135.639 53.1312 147.645 59.8338 150.225 70.3446C154.025 67.6997 158.788 66.18 163.796 66.0313C170.302 65.839 176.367 68.0534 179.626 71.8146C184.95 77.9533 184.981 87.71 179.735 98.0264C193.694 100.677 201.02 114.049 195.131 126.514C193.47 130.025 190.491 133.46 186.953 135.943C183.58 138.307 179.988 139.592 176.659 139.654C179.012 144.877 175.292 152.71 168.025 157.178C161.24 161.353 152.262 162.748 144.011 160.91C136.859 159.321 131.187 155.718 126.145 151.983C122.487 155.295 116.921 156.348 112.825 155.888C108.302 155.379 104.744 153.415 101.195 151.275C93.8161 146.823 87.5045 141.645 90.5219 133.972C85.6087 136.141 80.3286 137.476 75.4611 137.766C69.5214 138.118 64.4815 136.932 60.8751 134.333L60.8695 134.329ZM69.2172 106.987C69.3938 107.114 69.4701 107.322 69.4093 107.547C69.3321 107.837 69.0478 108.095 68.6953 108.197C62.8267 109.875 57.7425 114.951 56.6053 120.262C55.5746 125.085 57.6147 129.905 62.0558 133.151C62.0754 133.165 62.0979 133.181 62.1175 133.195C67.607 137.15 78.8523 138.303 91.6939 131.98C92.0153 131.82 92.3839 131.822 92.62 131.982C92.8684 132.135 92.9148 132.428 92.7647 132.706C88.6365 140.402 94.9401 145.609 102.367 150.091C105.78 152.149 109.188 154.035 113.395 154.509C118.705 155.107 123.331 152.995 125.556 150.638C125.719 150.466 125.952 150.344 126.191 150.303C126.433 150.264 126.651 150.304 126.819 150.425C131.901 154.229 137.592 157.968 144.758 159.563C152.401 161.262 161.003 159.947 167.208 156.131C174.293 151.771 177.678 143.916 174.45 139.318C174.295 139.1 174.347 138.792 174.578 138.541C174.809 138.29 175.172 138.156 175.5 138.194C182.552 139.01 190.532 132.692 193.564 126.275C199.227 114.287 191.942 101.403 178.274 99.2463C178.064 99.212 177.895 99.1053 177.815 98.951C177.732 98.7946 177.74 98.6023 177.839 98.4194C183.203 88.3 183.325 78.7095 178.17 72.7684C175.15 69.2863 169.518 67.2367 163.473 67.4156C158.436 67.5634 153.69 69.2172 150.116 72.0711C149.878 72.2605 149.562 72.3528 149.282 72.3135C149.004 72.2714 148.804 72.1067 148.765 71.8752C146.851 61.3667 135.197 54.5457 122.232 56.342C115.605 57.2606 108.818 60.6058 103.613 65.5225C98.8128 70.0552 96.0792 75.3752 96.113 80.122C96.1153 80.4134 95.8807 80.7172 95.5303 80.8713C95.1798 81.0255 94.8014 80.9968 94.586 80.7959C91.5134 77.9568 86.3897 76.746 80.5335 77.488C74.6774 78.23 69.2471 80.7734 65.6356 84.4644C62.024 88.1555 60.3489 92.8758 61.038 97.4135C61.7272 101.951 64.6453 105.411 69.0435 106.902C69.1097 106.925 69.1637 106.953 69.2141 106.99L69.2172 106.987Z" fill="black"/>
<path d="M117.171 188.43C115.778 187.427 115.067 185.726 115.421 183.83C115.561 183.082 115.831 182.453 116.243 181.911C116.523 181.544 116.885 181.199 117.298 180.912C116.119 179.362 116.06 177.179 117.186 175.179C117.664 174.329 118.28 173.68 119.013 173.258C120.547 172.375 122.133 172.623 123.29 173.024C123.432 172.329 123.774 171.609 124.296 170.923C125.222 169.709 126.591 168.774 128.055 168.36C130.308 167.721 132.423 168.248 133.817 168.699C136.506 169.569 137.933 170.78 138.181 172.397C138.313 173.26 138.072 174.169 137.863 174.969C137.35 176.907 136.715 178.905 135.183 180.49C136.824 181.006 137.788 182.378 138.04 183.733C138.328 185.283 137.832 186.827 136.675 187.975C134.646 189.985 131.182 190.204 129.127 189.257C127.749 188.62 126.826 187.605 126.056 186.444C125.688 186.952 125.192 187.439 124.586 187.871C123.054 188.969 121.114 189.528 119.524 189.328C118.618 189.214 117.821 188.899 117.173 188.432L117.171 188.43ZM119.114 181.169C119.027 181.355 118.858 181.528 118.628 181.637C118.228 181.831 117.868 182.116 117.626 182.44C117.365 182.781 117.192 183.205 117.095 183.735C116.75 185.581 117.79 187.662 120.128 187.959C121.215 188.096 122.563 187.695 123.646 186.92C124.558 186.265 125.095 185.463 125.117 184.721C125.128 184.399 125.414 184.076 125.807 183.948C126.2 183.819 126.588 183.92 126.742 184.189C127.666 185.836 128.562 187.264 130.186 188.012C131.669 188.7 134.149 188.554 135.472 187.241C136.244 186.476 136.577 185.348 136.371 184.223C136.144 183.003 135.12 181.68 133.408 181.656C133.084 181.652 132.833 181.486 132.775 181.231C132.717 180.976 132.859 180.687 133.139 180.487C134.981 179.176 135.647 177.129 136.215 174.971C136.406 174.245 136.605 173.499 136.505 172.857C136.324 171.659 135.147 170.725 132.917 170.002C131.741 169.623 129.981 169.173 128.27 169.658C127.273 169.942 126.325 170.596 125.673 171.452C125.02 172.309 124.764 173.233 124.975 173.979C125.05 174.252 124.89 174.574 124.572 174.777C124.256 174.981 123.858 175.02 123.585 174.874C121.922 173.986 120.669 173.805 119.764 174.327C119.364 174.557 119.005 174.954 118.696 175.504C117.73 177.223 117.902 179.182 119.124 180.388C119.33 180.592 119.316 180.903 119.114 181.164L119.114 181.169Z" fill="black"/>
</svg>
