<svg width="84" height="64" viewBox="0 0 84 64" fill="none" xmlns="http://www.w3.org/2000/svg">
<path d="M0.317039 38.8483C-0.187073 43.0493 0.149002 46.242 1.32527 48.4265C2.50153 50.611 4.01388 53.0475 5.8623 55.7361C7.54268 56.2402 8.46689 56.7444 8.63493 57.2485C8.80296 57.7526 9.13904 58.0887 9.64316 58.2567C11.1555 59.2649 12.9199 60.0211 14.9364 60.5252C16.7848 60.8613 18.8012 60.9453 20.9857 60.7773C23.0022 60.6092 24.9346 60.1051 26.783 59.2649C28.6315 58.4247 29.8917 57.3325 30.5639 55.9882C31.4041 56.1562 31.9922 56.1562 32.3283 55.9882C32.6644 55.6521 33.0845 55.4001 33.5886 55.232C33.5886 53.5516 34.4288 52.7114 36.1091 52.7114C35.9411 51.0311 36.1932 50.0228 36.8653 49.6868C37.3694 49.3507 37.7895 48.9306 38.1256 48.4265C37.6215 47.7543 37.5375 47.1662 37.8736 46.6621C38.2096 45.9899 38.2096 45.2337 37.8736 44.3936C38.2096 43.7214 38.6297 43.3013 39.1338 43.1333C39.4699 42.9652 39.806 42.7132 40.1421 42.3771C40.6462 41.2008 40.4781 40.2766 39.638 39.6045C38.7978 38.9323 38.4617 37.9241 38.6297 36.5798C38.9658 36.2437 39.5539 35.9917 40.3941 35.8236C41.0663 35.6556 41.6544 35.4035 42.1585 35.0674C41.8224 34.5633 41.9065 34.0592 42.4106 33.5551C42.7467 33.051 43.0827 32.6309 43.4188 32.2948C43.0827 31.1185 42.7467 30.3624 42.4106 30.0263C42.0745 29.6902 41.9065 29.2701 41.9065 28.766C38.3777 24.7331 35.521 21.2043 33.3365 18.1796C30.984 14.9869 28.3794 11.9622 25.5228 9.10556C23.8424 8.09733 22.33 7.42518 20.9857 7.08911C19.4734 6.75303 18.2971 6.08088 17.4569 5.07265C15.2724 4.90461 13.0039 4.48452 10.6514 3.81236C8.13081 2.97217 5.94632 3.39227 4.0979 5.07265C4.0979 5.91284 4.77005 6.58499 6.11436 7.08911C7.45866 7.42518 8.38287 7.17313 8.88699 6.33293C9.55914 7.5092 10.2313 8.18135 10.9034 8.34939C11.4076 8.51743 11.7436 8.85351 11.9117 9.35762C17.2889 10.5339 21.3218 13.3065 24.0104 17.6755C26.699 22.0445 27.1191 27.0016 25.2707 32.5469C23.9264 33.051 22.7501 32.967 21.7419 32.2948C20.5656 31.4546 19.4734 31.1185 18.4652 31.2866C16.2807 31.7907 14.7683 31.8747 13.9281 31.5386C13.0879 31.2026 12.4998 31.4546 12.1637 32.2948C10.6514 31.9587 9.47511 32.1268 8.63493 32.7989C7.79474 33.4711 6.78651 33.9752 5.61024 34.3113C3.76183 35.4875 2.66958 36.4958 2.3335 37.336C1.82938 38.0081 1.15723 38.5122 0.317039 38.8483ZM42.1585 44.3936C41.8224 45.2337 41.8224 46.326 42.1585 47.6703C42.4946 49.0146 43.3348 49.8548 44.6791 50.1909C45.3512 52.3754 45.9394 54.3078 46.4435 55.9882C46.9476 57.5005 47.6198 59.0129 48.4599 60.5252C49.8043 60.8613 50.9805 61.3654 51.9887 62.0376C52.8289 62.7097 53.7531 63.2138 54.7614 63.5499C57.618 64.3901 60.3066 64.054 62.8272 62.5417C65.3478 61.0293 67.5323 59.3489 69.3807 57.5005C72.2373 54.6439 74.8419 51.6192 77.1945 48.4265C79.547 45.0657 81.2274 41.7049 82.2356 38.3442C82.4036 37.8401 82.4036 37.42 82.2356 37.0839C82.0676 36.7478 81.9835 36.2437 81.9835 35.5716C82.9918 34.7314 83.4959 33.9752 83.4959 33.303C83.4959 32.4629 83.6639 31.7907 84 31.2866C82.8237 29.9423 81.8155 28.4299 80.9753 26.7496C80.1351 25.0692 79.2949 23.3888 78.4547 21.7084C77.6146 20.028 76.6903 18.4317 75.6821 16.9193C74.6739 15.407 73.4136 14.1467 71.9013 13.1385C71.5652 11.7942 71.0611 10.87 70.3889 10.3658C69.7168 9.6937 69.1286 8.93752 68.6245 8.09733C66.7761 6.92107 65.0957 5.57676 63.5834 4.06442C62.071 2.55208 60.1386 1.37581 57.7861 0.535621C56.4418 0.367583 55.0134 0.199545 53.5011 0.0315071C51.8207 -0.136531 50.5604 0.367583 49.7202 1.54385C49.7202 2.38404 49.8883 3.14021 50.2243 3.81236C50.5604 4.31648 50.8965 4.90461 51.2326 5.57676C53.5851 5.91284 55.9376 6.50097 58.2902 7.34116C60.6427 8.01332 62.2391 9.35762 63.0793 11.3741C63.7514 11.206 64.1715 11.3741 64.3395 11.8782C64.5076 12.3823 64.8437 12.8024 65.3478 13.1385C65.8519 14.4828 66.272 15.9111 66.6081 17.4234C66.9441 18.9358 67.5323 20.1961 68.3725 21.2043C68.2044 22.5486 68.2044 23.8929 68.3725 25.2372C68.3725 26.4135 68.7085 27.5057 69.3807 28.514C68.7085 28.682 68.4565 29.1021 68.6245 29.7742C68.7926 30.2784 68.9606 30.7825 69.1286 31.2866C68.9606 32.1268 68.6245 32.7989 68.1204 33.303C67.4482 33.6391 66.9441 34.1432 66.6081 34.8154C65.2638 33.4711 63.8354 32.7149 62.3231 32.5469C60.6427 32.3788 59.0463 32.1268 57.534 31.7907C55.8536 32.6309 53.6691 33.7231 50.9805 35.0674C48.1239 36.2437 46.1914 37.504 45.1832 38.8483C44.5111 40.5287 43.9229 41.7049 43.4188 42.3771C42.7467 42.8812 42.3266 43.5534 42.1585 44.3936ZM31.068 30.2784C32.0762 29.1021 32.6644 28.682 32.8324 29.0181C33.0004 29.3542 33.4205 29.5222 34.0927 29.5222C33.0845 30.8665 32.4123 31.4546 32.0762 31.2866C31.7402 30.9505 31.4041 30.6144 31.068 30.2784ZM12.6678 36.8318C14.5163 35.9917 16.0286 36.1597 17.2049 37.336C18.2131 38.3442 19.6414 38.8483 21.4898 38.8483C22.8341 39.8565 24.2625 40.7807 25.7748 41.6209C27.2872 42.4611 28.9675 43.3013 30.816 44.1415C30.1438 45.4858 29.7237 46.0739 29.5557 45.9059C29.2196 45.7379 28.7995 45.7379 28.2954 45.9059C27.7913 44.5616 26.8671 43.6374 25.5228 43.1333C24.1784 42.6292 22.5821 42.2931 20.7337 42.125C20.3976 40.7807 19.2213 39.9405 17.2049 39.6045C15.0204 39.1004 13.508 38.1761 12.6678 36.8318ZM5.35818 40.1086C7.03857 39.6045 7.96278 39.5205 8.13081 39.8565C8.29885 40.0246 8.55091 40.1926 8.88699 40.3606C10.5674 40.8648 11.9117 41.5369 12.9199 42.3771C13.7601 43.2173 14.6003 43.8054 15.4405 44.1415C15.6085 44.8137 16.2807 45.4018 17.4569 45.9059C18.6332 46.242 19.8935 46.494 21.2378 46.6621C19.5574 48.0064 18.1291 48.1744 16.9528 47.1662C15.6085 46.158 14.4322 45.6538 13.424 45.6538C13.7601 46.326 14.1802 46.8301 14.6843 47.1662C15.1884 47.3342 15.6085 47.6703 15.9446 48.1744C17.1208 47.6703 17.961 47.9224 18.4652 48.9306C18.9693 49.7708 19.8935 50.1909 21.2378 50.1909C23.2542 49.1826 24.4305 49.2667 24.7666 50.4429C24.4305 50.779 24.0944 50.695 23.7584 50.1909C23.2542 49.6868 22.6661 49.5187 21.994 49.6868C22.6661 50.695 23.2542 51.5352 23.7584 52.2073C24.0944 52.8795 24.6826 53.2996 25.5228 53.4676C24.6826 55.4841 23.3383 56.4923 21.4898 56.4923C19.6414 56.4923 17.5409 56.6603 15.1884 56.9964C14.0121 55.9882 12.6678 54.98 11.1555 53.9717C9.47511 52.9635 8.13081 51.7872 7.12258 50.4429C5.94632 49.0986 5.10612 47.5863 4.60201 45.9059C4.0979 44.2255 4.34995 42.2931 5.35818 40.1086ZM29.3036 37.336C30.816 35.9917 31.9082 35.6556 32.5804 36.3277C33.0845 36.8318 33.7566 37.2519 34.5968 37.588C32.9164 38.5962 31.8242 38.9323 31.3201 38.5962C30.816 38.0921 30.1438 37.672 29.3036 37.336ZM16.7008 41.873C17.3729 41.7049 17.961 41.873 18.4652 42.3771C18.8012 42.7132 19.3894 42.7132 20.2296 42.3771C21.4058 44.2255 23.1702 45.4018 25.5228 45.9059C27.7072 46.41 29.5557 47.3342 31.068 48.6785C28.2114 49.3507 25.8588 48.8466 24.0104 47.1662C22.162 45.4858 20.0615 44.4776 17.709 44.1415L16.7008 41.873ZM27.7913 39.3524C29.3036 39.0163 30.6479 39.3524 31.8242 40.3606C32.8324 41.3689 33.3365 42.2931 33.3365 43.1333C32.3283 42.7972 31.4041 42.2931 30.5639 41.6209C29.5557 40.9488 28.6315 40.1926 27.7913 39.3524ZM73.6657 23.7249C74.3378 23.7249 75.01 24.061 75.6821 24.7331C76.1862 25.4053 76.6063 26.0774 76.9424 26.7496C77.1104 27.4217 77.1104 28.0939 76.9424 28.766C76.6063 29.4382 75.8502 29.7742 74.6739 29.7742C74.3378 28.766 74.0858 27.8418 73.9177 27.0016C73.7497 26.1614 73.6657 25.0692 73.6657 23.7249ZM46.4435 47.9224C46.2755 46.5781 46.5275 45.4858 47.1997 44.6456C47.7038 43.6374 48.1239 42.7132 48.4599 41.873C50.3084 41.2008 51.8207 40.3606 52.997 39.3524C54.0052 38.1761 55.1815 37.1679 56.5258 36.3277C58.0381 36.4958 59.2144 36.6638 60.0546 36.8318C60.8948 36.8318 61.4829 37.0839 61.819 37.588C60.9788 37.7561 60.3066 37.7561 59.8025 37.588C59.2984 37.2519 58.7943 36.9999 58.2902 36.8318C57.9541 39.1844 58.6263 40.7807 60.3066 41.6209C61.987 42.2931 63.2473 43.4693 64.0875 45.1497C62.071 44.8137 60.3907 44.2255 59.0463 43.3853C57.702 42.3771 55.9376 42.041 53.7531 42.3771C52.913 43.3853 52.6609 44.3936 52.997 45.4018C53.165 46.41 53.5851 47.3342 54.2573 48.1744C54.9294 48.8466 55.6856 49.4347 56.5258 49.9388C57.366 50.4429 58.0381 50.863 58.5422 51.1991C58.7103 52.5434 58.9623 53.4676 59.2984 53.9717C59.6345 54.4758 60.0546 54.98 60.5587 55.4841C60.0546 57.5005 59.8025 58.6768 59.8025 59.0129C58.9623 59.0129 58.2062 59.0969 57.534 59.2649C56.6938 59.433 55.7696 59.3489 54.7614 59.0129C54.0892 58.8448 53.249 58.2567 52.2408 57.2485C51.2326 56.2402 50.3084 55.148 49.4682 53.9717C48.628 52.6274 47.9558 51.4512 47.4517 50.4429C46.7796 49.2667 46.4435 48.4265 46.4435 47.9224ZM74.1698 31.2866C75.01 31.1185 75.6821 31.2026 76.1862 31.5386C76.5223 31.8747 76.9424 32.1268 77.4465 32.2948C77.2785 33.135 77.4465 33.8072 77.9506 34.3113C78.2867 34.8154 78.2867 35.4875 77.9506 36.3277C76.6063 34.9834 75.346 33.303 74.1698 31.2866ZM54.7614 45.9059C56.4418 44.8977 57.702 44.7296 58.5422 45.4018C59.3824 45.9059 60.3907 46.326 61.5669 46.6621C63.5834 47.5023 65.0117 48.2584 65.8519 48.9306C66.524 49.6027 67.7003 49.8548 69.3807 49.6868C68.8766 50.863 68.2044 51.8713 67.3642 52.7114C66.524 53.3836 65.9359 54.3918 65.5998 55.7361C62.9112 54.0557 60.8948 52.3754 59.5505 50.695C58.2062 48.8466 56.6098 47.2502 54.7614 45.9059ZM71.9013 37.588C73.0775 37.588 73.8337 37.8401 74.1698 38.3442C74.5058 38.8483 75.094 39.2684 75.9342 39.6045C74.7579 40.7807 73.9177 40.9488 73.4136 40.1086C72.7414 39.2684 72.2373 38.4282 71.9013 37.588ZM66.6081 42.6292C67.4482 42.7972 68.3725 43.1333 69.3807 43.6374C70.3889 44.1415 71.2291 44.7296 71.9013 45.4018C72.4054 45.9059 72.7414 46.494 72.9095 47.1662C72.9095 47.8383 72.2373 48.5105 70.893 49.1826C70.725 47.6703 70.0528 46.5781 68.8766 45.9059C67.5323 45.0657 66.7761 43.9735 66.6081 42.6292ZM6.36641 44.1415C6.36641 45.1497 6.70249 45.8219 7.37464 46.158C7.87875 46.494 8.29885 47.0822 8.63493 47.9224C10.6514 48.7625 11.6596 48.8466 11.6596 48.1744C10.6514 46.6621 9.8112 45.6538 9.13904 45.1497C8.29885 44.6456 7.79474 43.8894 7.6267 42.8812L6.36641 44.1415ZM9.89521 45.4018C11.4076 45.9059 12.3318 45.9899 12.6678 45.6538C11.6596 45.1497 10.9034 44.8977 10.3993 44.8977C9.89521 44.7296 9.72717 44.2255 9.89521 43.3853V45.4018ZM11.9117 49.4347C11.5756 50.2749 11.8277 51.0311 12.6678 51.7032C13.34 52.2073 13.8441 52.7955 14.1802 53.4676C13.6761 52.2913 13.424 51.4512 13.424 50.947C13.256 50.4429 13.34 50.0228 13.6761 49.6868L11.9117 49.4347Z" fill="#073B4C"/>
</svg>
