<svg width="100" height="100" viewBox="0 0 100 100" fill="none" xmlns="http://www.w3.org/2000/svg">
<path fill-rule="evenodd" clip-rule="evenodd" d="M9.61456 50.9712C13.7795 55.5428 16.7367 51.272 13.5296 46.2191L13.1964 45.7379C12.5131 44.7918 11.7898 43.9078 11.0306 43.0912C10.2393 42.249 9.40631 41.5272 8.57331 40.8054C6.5584 39.169 4.43819 37.8193 2.24255 36.7751C1.8725 36.5119 1.44521 36.4717 1.05466 36.6635C0.664122 36.8553 0.342324 37.2633 0.160061 37.7977C-0.022201 38.3322 -0.0499974 38.9493 0.082787 39.5133C0.215571 40.0774 0.498059 40.5421 0.868107 40.8054C2.65905 42.5498 4.15844 44.7755 5.86608 46.8206C6.96099 48.2265 8.11554 49.5323 9.32301 50.7306L9.61456 50.9712Z" fill="#EF476F"/>
<path fill-rule="evenodd" clip-rule="evenodd" d="M49.9731 83.7546C49.8351 83.1962 49.5491 82.7399 49.178 82.4861C48.807 82.2323 48.3814 82.2017 47.9948 82.4011C47.6082 82.6006 47.2922 83.0136 47.1165 83.5495C46.9407 84.0853 46.9196 84.7 47.0577 85.2584C47.2895 87.0133 47.0292 88.8293 46.334 90.307C45.6389 91.7847 44.5658 92.8032 43.3508 93.1384C42.6163 93.1671 41.8877 92.9401 41.2267 92.4767C40.5148 92.0831 39.8637 91.4903 39.3108 90.7323C38.9417 90.179 38.5941 89.5966 38.2696 88.9879C38.0793 88.5627 37.9386 88.0953 37.8531 87.6044C37.6839 86.46 37.802 85.266 38.1863 84.2358C38.4778 83.8147 38.6861 83.3937 38.936 82.9726C39.2813 82.2724 39.7204 81.6793 40.2271 81.2282C41.143 80.3613 42.2141 79.8995 43.3092 79.8995C44.4042 79.8995 45.4754 80.3613 46.3913 81.2282C46.6569 81.5449 46.9952 81.706 47.3391 81.6797C47.6831 81.6533 48.0077 81.4414 48.2486 81.0859C48.4895 80.7304 48.6293 80.2571 48.6401 79.7599C48.6509 79.2627 48.5321 78.7777 48.3071 78.401C47.2836 76.8861 46.0014 75.7881 44.59 75.2178C43.1786 74.6474 41.688 74.625 40.2687 75.1527C40.2598 74.2154 40.1617 73.2844 39.9772 72.3857C39.8358 71.8229 39.5472 71.3627 39.1733 71.104C38.7995 70.8453 38.3703 70.8087 37.978 71.0022C37.7817 71.0965 37.6006 71.2469 37.4454 71.4445C37.2902 71.6421 37.1642 71.8828 37.0748 72.1522C36.9854 72.4217 36.9345 72.7144 36.9251 73.0128C36.9157 73.3113 36.948 73.6094 37.0201 73.8895C37.2491 74.9059 37.2491 76.001 37.0201 77.0175C35.7374 78.0798 34.6736 79.6162 33.938 81.4688C33.7719 81.4946 33.6043 81.4946 33.4382 81.4688C32.716 81.5129 31.9983 81.2849 31.3557 80.8071C30.5543 80.5381 29.8017 80.0254 29.1483 79.3033C28.7728 78.7751 28.4377 78.1902 28.1487 77.5588C27.9302 77.1494 27.7741 76.6779 27.6905 76.1753C27.5562 74.9073 27.706 73.6106 28.1181 72.4743C28.5302 71.338 29.183 70.4217 29.9813 69.8593C30.8932 68.9774 31.9659 68.5066 33.0633 68.5066C34.1608 68.5066 35.2335 68.9774 36.1454 69.8593C36.4105 70.2262 36.7657 70.426 37.1328 70.4147C37.4999 70.4034 37.8489 70.182 38.103 69.7991C38.357 69.4162 38.4954 68.9033 38.4875 68.3731C38.4797 67.8429 38.3264 67.3389 38.0613 66.9719C37.2168 65.6783 36.174 64.6888 35.0166 64.0829C33.8593 63.477 32.6196 63.2715 31.3973 63.4831C31.5459 61.8038 31.3731 60.0979 30.8975 58.5505C30.7595 57.9921 30.4735 57.5359 30.1024 57.282C29.7314 57.0282 29.3058 56.9977 28.9192 57.1971C28.5326 57.3965 28.2166 57.8096 28.0409 58.3454C27.8651 58.8812 27.844 59.496 27.9821 60.0543C28.1257 60.9376 28.1291 61.8564 27.9921 62.7418C27.855 63.6273 27.5811 64.4565 27.1907 65.1673C26.3799 65.7903 25.6363 66.5806 24.9833 67.5133C24.7434 67.6883 24.4923 67.8293 24.2336 67.9344C23.5144 67.9346 22.8038 67.7088 22.1511 67.2727C21.4392 66.8791 20.7881 66.2862 20.2352 65.5283C19.8546 64.9904 19.5063 64.4068 19.194 63.7838C18.9786 63.3565 18.836 62.8619 18.7775 62.3401C18.6049 61.0531 18.7473 59.7195 19.1803 58.5673C19.6134 57.4152 20.3102 56.5162 21.1515 56.0241C22.0674 55.1572 23.1386 54.6954 24.2336 54.6954C25.3286 54.6954 26.3998 55.1572 27.3157 56.0241C27.5847 56.2521 27.8995 56.3411 28.2082 56.2765C28.517 56.2118 28.8013 55.9975 29.0145 55.6686C29.2277 55.3396 29.3571 54.9158 29.3814 54.4666C29.4057 54.0174 29.3235 53.5697 29.1483 53.1969C27.8328 51.5031 26.2216 50.3611 24.489 49.8946C22.7565 49.4281 20.9686 49.6548 19.3189 50.5502C17.5812 51.3623 16.1032 53.0487 15.1539 55.3023C13.9548 57.7252 13.4205 60.7045 13.6545 63.6635C13.8013 64.9299 14.0972 66.1505 14.5292 67.2727C15.1199 68.611 15.819 69.8428 16.6117 70.942C17.824 72.4481 19.2652 73.5198 20.8183 74.07C21.4537 74.3516 22.1117 74.5134 22.7758 74.5512C22.6922 75.53 22.6922 76.5199 22.7758 77.4987C22.9302 78.752 23.2406 79.9544 23.6921 81.0477C24.2558 82.4317 24.9575 83.6883 25.7746 84.7772C26.9824 86.2589 28.4061 87.3281 29.9396 87.9051C30.9292 88.2956 31.9553 88.458 32.98 88.3863C33.0004 88.5454 33.0004 88.7085 32.98 88.8676C33.1228 90.1442 33.4338 91.3694 33.8963 92.4767C34.4609 93.842 35.1627 95.0786 35.9788 96.1461C37.1699 97.6633 38.5997 98.7371 40.1438 99.274C41.6686 99.8994 43.2838 99.8994 44.8086 99.274C45.9244 98.7765 46.9599 97.9613 47.854 96.8765C48.7482 95.7918 49.4829 94.4594 50.0148 92.958C50.4736 91.5126 50.7076 89.9396 50.7004 88.3496C50.6932 86.7596 50.445 85.1912 49.9731 83.7546Z" fill="#EF476F"/>
<path fill-rule="evenodd" clip-rule="evenodd" d="M44.9752 16.0226C45.5418 16.1793 46.0988 16.4005 46.6412 16.6843C49.515 18.3686 51.0977 13.9774 49.0152 12.0526C47.9784 11.1571 46.8556 10.4882 45.6832 10.0675C43.0822 9.25808 40.4011 9.1358 37.7698 9.7066C35.4462 9.93358 33.1122 9.7721 30.8143 9.22537L22.2761 4.5936C20.3037 3.39514 18.2524 2.48822 16.1536 1.88672C15.9757 1.90814 15.8028 1.98261 15.6459 2.10541C15.4889 2.22821 15.3513 2.39667 15.2417 2.60017C15.1321 2.80366 15.0529 3.03777 15.0092 3.28769C14.9654 3.53762 14.958 3.79795 14.9874 4.05222C15.0154 4.50125 15.1516 4.92184 15.3724 5.24063C15.5931 5.55943 15.8843 5.75621 16.1952 5.79666C16.1952 5.79666 16.695 6.15757 17.1532 6.51849C19.7354 8.44338 25.1916 13.3759 28.8984 16.0828C30.4211 17.3386 32.1098 18.1174 33.8547 18.3686L38.5611 16.9851C40.6551 16.2134 42.8161 15.8891 44.9752 16.0226Z" fill="#EF476F"/>
<path fill-rule="evenodd" clip-rule="evenodd" d="M99.6197 1.10469C99.4035 0.587421 99.0543 0.21479 98.6485 0.0682552C98.2427 -0.0782794 97.8132 0.0132029 97.4539 0.322703L90.0402 6.33799C88.7119 7.43799 87.318 8.36403 85.8752 9.10502C85.0281 9.49839 84.1409 9.68144 83.2513 9.6464C81.8573 9.61574 80.466 9.45499 79.0863 9.16518C77.8605 8.86 76.65 8.43801 75.4628 7.90197C73.7135 7.05983 72.0475 5.97707 70.2982 5.25524C68.9485 4.66477 67.5434 4.38067 66.1333 4.4131C65.0088 4.48878 63.8991 4.81338 62.8429 5.37555C61.3692 6.08334 59.9683 7.07476 58.6779 8.32304C57.6367 9.22533 48.0573 22.0379 47.141 23.4214C45.5364 25.6165 44.1364 28.1036 42.976 30.8202C42.1755 32.8642 41.7189 35.1514 41.6432 37.4972C41.5497 38.8689 41.6737 40.2534 42.0056 41.5457C42.3376 42.838 42.8688 44.0043 43.5591 44.9561C44.5387 46.0748 45.6799 46.861 46.8983 47.2567C48.1166 47.6524 49.381 47.6473 50.5979 47.242C52.7482 46.6207 54.7628 45.2587 56.4705 43.2719C58.1721 41.317 59.7601 39.1644 61.2186 36.8355C63.3397 38.1228 65.5892 38.9147 67.8825 39.1815C68.9619 39.3615 70.0519 39.3615 71.1312 39.1815C72.2014 38.9577 73.2497 38.5539 74.255 37.9784C76.553 36.5827 78.6347 34.5376 80.3775 31.9631C80.5298 31.8187 80.6601 31.6306 80.7601 31.4106C80.8601 31.1905 80.9279 30.9432 80.9591 30.6838C80.9903 30.4245 80.9844 30.1587 80.9417 29.9028C80.8989 29.6469 80.8203 29.4064 80.7107 29.1961C80.6068 28.9827 80.4748 28.801 80.3223 28.6613C80.1698 28.5216 79.9997 28.4267 79.8218 28.382C79.6439 28.3373 79.4616 28.3437 79.2853 28.4008C79.1091 28.458 78.9424 28.5647 78.7948 28.7149C76.879 29.8881 74.8611 30.6774 72.7972 31.0608L69.1737 31.9631C68.3407 31.9631 67.591 32.3842 66.758 32.4443C65.4551 32.595 64.1459 32.595 62.8429 32.4443C62.8836 32.2277 62.8836 31.9993 62.8429 31.7827C62.7186 31.5971 62.5698 31.4496 62.4052 31.3488C62.2407 31.248 62.0637 31.1961 61.885 31.1961C61.7062 31.1961 61.5293 31.248 61.3647 31.3488C61.2002 31.4496 61.0513 31.5971 60.927 31.7827C58.9601 34.6037 56.8434 37.1982 54.5963 39.5424C53.2531 40.8777 51.713 41.7428 50.0981 42.0688C48.9804 42.3324 47.8339 42.0352 46.8494 41.2267C46.4578 40.9178 46.1453 40.4354 45.9578 39.8506C45.7703 39.2658 45.7179 38.6095 45.8082 37.9784C45.9829 36.6016 46.3515 35.2913 46.8911 34.1286C47.9283 32.0304 49.1302 30.1128 50.4729 28.4141C52.5138 25.4666 54.6379 22.3988 56.8037 19.4513C58.1669 17.6394 59.6294 15.9898 61.1769 14.5188C61.9819 13.7337 62.8319 13.0495 63.7176 12.4736C65.3582 11.4336 67.1969 11.2424 68.9238 11.9322C70.6314 12.4736 72.2558 13.3759 73.9634 14.0977C75.4559 14.6344 76.973 15.0163 78.5032 15.2406C80.0015 15.3603 81.5032 15.3603 83.0014 15.2406C84.3382 15.1846 85.66 14.819 86.9165 14.1579C88.5694 13.1581 90.1582 11.9504 91.6646 10.5487L98.87 3.99203C99.2289 3.74371 99.5074 3.30446 99.6471 2.76626C99.7869 2.22806 99.777 1.63264 99.6197 1.10469Z" fill="#EF476F"/>
<path fill-rule="evenodd" clip-rule="evenodd" d="M77.337 62.0389C77.0821 60.9863 76.776 59.9611 76.4207 58.9711C75.2427 56.0518 73.846 53.3286 72.2557 50.8504L67.7992 43.5118C67.5731 43.1332 67.2564 42.8918 66.9125 42.8358C66.5685 42.7797 66.2226 42.9132 65.9438 43.2095C65.665 43.5058 65.4739 43.9431 65.4086 44.434C65.3433 44.925 65.4087 45.4334 65.5917 45.8578L68.8821 54.3995C69.9649 56.8963 70.9118 59.5108 71.7143 62.2193C72.2215 63.737 72.5589 65.3613 72.7138 67.0316C72.8464 68.0835 72.8221 69.1642 72.6425 70.2014C72.463 71.2387 72.1323 72.2088 71.6726 73.0469C71.0887 74.007 70.3425 74.7323 69.5068 75.1522C69.4453 74.9266 69.3758 74.7058 69.2986 74.4905C68.42 72.604 67.4455 70.8146 66.3831 69.1369L60.3855 59.332C60.2707 59.0871 60.1235 58.8773 59.9525 58.7145C59.7815 58.5518 59.59 58.4393 59.3889 58.3834C58.9827 58.2706 58.5622 58.3954 58.2197 58.7305C57.8773 59.0655 57.641 59.5833 57.5629 60.1699C57.4848 60.7565 57.5713 61.3639 57.8032 61.8584L62.468 73.3476C63.2613 74.9574 63.998 76.6237 64.6754 78.3403C65.0356 79.2274 65.3156 80.1776 65.5084 81.1675C65.7399 81.8559 65.8082 82.6352 65.7028 83.3852C65.5975 84.1352 65.3243 84.8143 64.9253 85.318C64.3297 86.0298 63.6086 86.488 62.8429 86.6414C62.8429 86.6414 62.8429 86.2805 62.8429 86.1C62.4007 84.7347 61.856 83.4437 61.2185 82.2502C60.2189 80.5058 59.261 78.8215 58.1781 77.1974C57.0952 75.5733 56.0956 74.0093 54.9711 72.5055C54.7428 72.1025 54.4141 71.8452 54.0557 71.7889C53.6974 71.7326 53.338 71.882 53.0552 72.2047C52.7734 72.5449 52.5941 73.03 52.5553 73.5575C52.5164 74.085 52.621 74.6137 52.8469 75.0319C53.5133 76.4756 54.0964 77.8591 54.6795 79.3629C55.2626 80.8667 56.3038 83.7541 57.0535 86.0399L58.2197 90.1303L57.6366 91.5739C57.3556 92.2239 56.985 92.7836 56.548 93.2182C56.1109 93.6528 55.6167 93.953 55.096 94.1004C54.0899 94.4869 53.02 94.3152 52.0972 93.6191C51.925 93.4647 51.7334 93.3609 51.5333 93.3136C51.3333 93.2663 51.1288 93.2765 50.9315 93.3436C50.7341 93.4106 50.5479 93.5332 50.3835 93.7044C50.219 93.8755 50.0796 94.0919 49.9731 94.341C49.7551 94.8526 49.6853 95.4676 49.7788 96.053C49.8723 96.6383 50.1217 97.147 50.4729 97.4689C51.8116 99.1449 53.5329 100.045 55.3042 99.9953C56.4582 100.038 57.6058 99.7341 58.6741 99.1024C59.7424 98.4707 60.7082 97.5253 61.5101 96.326C62.118 95.4231 62.6239 94.3879 63.0095 93.2582C63.1366 92.6711 63.2203 92.0662 63.2594 91.4536C64.6927 91.5978 66.1275 91.2041 67.4243 90.3107C68.6501 89.3198 69.6328 87.804 70.2371 85.9725C70.8413 84.141 71.0373 82.0839 70.798 80.0847C72.3379 79.6677 73.7745 78.6718 74.9629 77.1974C75.9119 75.9488 76.6775 74.4374 77.2141 72.753C77.7507 71.0687 78.0475 69.2457 78.0867 67.3925C77.9912 65.57 77.7393 63.7717 77.337 62.0389Z" fill="#EF476F"/>
<path fill-rule="evenodd" clip-rule="evenodd" d="M99.9528 54.6394C99.9042 54.3546 99.817 54.0865 99.6963 53.8505C99.5756 53.6146 99.4238 53.4154 99.2496 53.2644C99.0754 53.1135 98.8823 53.0138 98.6813 52.971C98.4804 52.9283 98.2755 52.9433 98.0786 53.0153C95.538 53.4364 93.0806 53.5567 90.6233 54.1582C88.951 54.5463 87.3062 55.1502 85.7086 55.9628C83.872 56.9632 82.1243 58.2757 80.5024 59.8727C77.0871 61.9179 79.128 65.888 82.335 64.5647L86.2084 63.4218L89.1239 62.3992L91.9977 61.0758C94.2885 59.9329 96.5376 58.6697 98.8283 57.3463C99.0255 57.276 99.2111 57.1501 99.3745 56.9757C99.5379 56.8014 99.6758 56.5822 99.7803 56.3306C99.8849 56.0791 99.9539 55.8001 99.9835 55.5099C100.013 55.2197 100.003 54.9238 99.9528 54.6394Z" fill="#EF476F"/>
</svg>
