<svg width="100" height="100" viewBox="0 0 100 100" fill="none" xmlns="http://www.w3.org/2000/svg">
<path d="M72.5616 43.6696C72.4077 43.3436 72.1158 43.0859 71.7502 42.953C71.3845 42.8202 70.9751 42.8232 70.6119 42.9613C70.2487 43.0994 69.9615 43.3614 69.8135 43.6896C69.6655 44.0177 69.6688 44.3852 69.8227 44.7112C71.9117 49.5026 70.4726 65.3351 63.4629 71.7515C51.5789 82.7925 17.4589 77.7095 17.4589 58.7105C17.8333 53.3356 19.9295 48.1721 23.4953 43.8408C27.0612 39.5095 31.9449 36.1948 37.5596 34.2951C40.5258 38.0878 44.7353 40.9565 49.6024 42.5022C54.4696 44.0479 59.7525 44.1938 64.7163 42.9197C65.1041 42.8478 65.4443 42.6407 65.6619 42.3437C65.8796 42.0468 65.9569 41.6845 65.8768 41.3364C65.7968 40.9883 65.566 40.683 65.2352 40.4877C64.9044 40.2924 64.5006 40.223 64.1128 40.2948C54.8285 41.3781 42.2946 35.1284 37.4667 29.7537C37.2759 29.494 36.9779 29.313 36.6384 29.2505C36.2989 29.188 35.9456 29.2491 35.6563 29.4204C35.3669 29.5916 35.1653 29.8591 35.0956 30.1638C35.026 30.4685 35.0941 30.7856 35.2849 31.0453C35.517 31.4619 35.7955 31.8369 36.0277 32.2119C31.4429 33.6566 27.2561 35.9658 23.7489 38.9843C20.2417 42.0027 17.4954 45.6603 15.6949 49.711C0.282891 81.2093 59.2385 94.0836 70.9832 67.8767C73.5364 62.0853 75.3933 49.461 72.5616 43.6696Z" fill="#EF476F"/>
<path d="M2.69676 76.9989C7.33894 76.5823 -4.59145 55.5417 15.927 35.3345C27.6717 23.8351 45.0334 17.8354 60.3062 25.3767C60.4741 25.4876 60.6662 25.5655 60.8699 25.6053C61.0736 25.6452 61.2844 25.6462 61.4886 25.6081C61.6927 25.5701 61.8856 25.4939 62.0548 25.3845C62.224 25.2751 62.3656 25.1349 62.4705 24.9732C62.5753 24.8114 62.6411 24.6317 62.6634 24.4456C62.6858 24.2596 62.6642 24.0714 62.6002 23.8933C62.5362 23.7152 62.4311 23.5512 62.2918 23.412C62.1525 23.2727 61.9821 23.1614 61.7917 23.0851C36.8632 9.25251 1.76833 29.4181 0.0507229 58.3332C-0.151757 64.2703 0.252253 70.2115 1.25769 76.0823C1.34271 76.3608 1.5325 76.6042 1.79483 76.7713C2.05716 76.9384 2.37585 77.0188 2.69676 76.9989Z" fill="#EF476F"/>
<path d="M98.8362 20.8355C97.7684 20.1689 96.7007 20.5439 96.0973 20.4606C93.9209 20.2287 91.8941 19.3485 90.341 17.9607C88.6563 15.8135 87.5445 13.3473 87.0914 10.7527C86.6083 8.12347 86.4836 5.45117 86.7201 2.79484C86.3023 -0.871637 82.8206 -0.454993 82.0779 1.33658C82.0779 1.75322 81.3816 18.0024 68.662 21.2939C68.4649 21.3082 68.2737 21.3614 68.102 21.4497C67.9304 21.5379 67.7825 21.6589 67.669 21.8043C67.5554 21.9496 67.4789 22.1156 67.4449 22.2905C67.4109 22.4654 67.4202 22.6448 67.4723 22.8161C67.5243 22.9873 67.6178 23.1462 67.746 23.2814C67.8742 23.4165 68.034 23.5247 68.2141 23.5982C68.3941 23.6716 68.59 23.7085 68.7878 23.7063C68.9855 23.7041 69.1803 23.6628 69.3583 23.5854C72.2879 22.7844 74.9945 21.4342 77.2993 19.6243C79.604 17.8143 81.4543 15.5857 82.7278 13.086C83.2898 15.8972 84.5776 18.5513 86.488 20.8355C87.8956 22.2589 89.7093 23.3105 91.7336 23.8771C88.1076 25.6106 85.3282 28.4912 83.9348 31.96C82.4493 25.752 72.6543 21.5022 71.8651 24.377C71.7786 24.719 71.841 25.0777 72.0395 25.3797C72.238 25.6818 72.5575 25.9044 72.9328 26.0019C74.6876 26.4098 76.2898 27.2295 77.575 28.3768C79.7963 30.3883 81.0753 33.0868 81.1494 35.9181C81.3816 37.293 81.1495 38.3346 82.0779 39.2096C83.8883 40.7512 85.3738 39.0013 86.3951 36.9597C88.0663 33.6265 87.4628 31.8766 91.6408 29.0434C95.8187 26.2103 100.136 24.877 99.9967 22.4605C99.9529 22.1284 99.8257 21.8097 99.6247 21.5282C99.4237 21.2467 99.154 21.0099 98.8362 20.8355Z" fill="#EF476F"/>
<path d="M19.1302 83.8735C17.8768 83.0819 18.1089 82.9986 16.2984 79.2071C15.8806 78.2905 16.2984 76.7072 14.4416 76.1656C13.8069 75.9455 13.1015 75.9575 12.4766 76.199C11.8517 76.4405 11.3572 76.8922 11.0992 77.4572C9.98508 79.6237 10.3565 82.6653 6.68913 84.8318C3.02181 86.9984 0.93283 86.1234 1.35063 87.915C1.76842 89.7065 3.16108 88.7899 4.60015 88.4983C4.9251 89.9149 6.4106 88.9982 8.91738 91.5398C10.4582 93.1293 11.271 95.1837 11.192 97.2895C11.517 99.1644 12.3062 100.414 14.3023 99.8727C16.2984 99.331 15.6485 98.0811 15.7414 97.6645C16.3376 96.1939 17.1328 94.7947 18.1089 93.498C20.2443 90.8315 26.2327 89.3316 24.5151 86.3734C23.5867 84.8318 21.4977 85.4151 19.1302 83.8735ZM13.6524 92.2064C12.4145 90.1653 10.5002 88.52 8.17463 87.4983C10.0557 86.6276 11.6546 85.3361 12.8168 83.7485C13.281 83.1652 12.8168 82.2069 13.7917 84.9568C14.6114 86.3887 15.9101 87.5542 17.5054 88.29C15.8957 89.2703 14.5738 90.5854 13.6524 92.1231V92.2064Z" fill="#EF476F"/>
<path d="M84.5847 43.8321C84.48 43.5337 84.2476 43.2849 83.9386 43.1403C83.6295 42.9958 83.2691 42.9673 82.9367 43.0613C82.6043 43.1552 82.3271 43.3638 82.166 43.6412C82.005 43.9186 81.9733 44.242 82.0779 44.5404C84.1669 52.8732 82.3565 70.414 80.6853 78.4136C80.6585 78.736 80.7591 79.0565 80.9696 79.319C81.18 79.5814 81.4867 79.7688 81.8359 79.8484C82.185 79.928 82.5542 79.8946 82.8786 79.7541C83.2031 79.6136 83.462 79.375 83.6098 79.0802C88.0663 66.6642 90.016 56.2064 84.5847 43.8321Z" fill="#EF476F"/>
<path d="M49.9541 65.8325C50.0973 65.7082 50.2112 65.5593 50.2889 65.3946C50.3667 65.23 50.4068 65.053 50.4068 64.8742C50.4068 64.6954 50.3667 64.5184 50.2889 64.3538C50.2112 64.1891 50.0973 64.0402 49.9541 63.9159C48.2365 62.1243 46.6117 66.2491 41.6446 64.8742C39.4426 64.2284 37.5038 63.0103 36.074 61.3744C35.885 61.1432 35.6105 60.9798 35.2996 60.9136C34.9888 60.8473 34.6618 60.8824 34.3771 61.0127C34.0925 61.1429 33.8687 61.3598 33.7458 61.6245C33.623 61.8892 33.609 62.1845 33.7065 62.4577C36.9096 70.8322 44.662 71.4155 49.9541 65.8325Z" fill="#EF476F"/>
<path d="M53.2502 54.1664C55.0725 53.9617 56.9208 54.2673 58.5422 55.0413C58.8258 55.2786 59.1991 55.4105 59.5867 55.4105C59.9744 55.4105 60.3476 55.2786 60.6312 55.0413C62.4881 53.1248 55.6177 48.4167 50.7434 50.0833C49.745 50.377 48.821 50.8447 48.0244 51.4596C47.2278 52.0745 46.5743 52.8244 46.1012 53.6664C45.8858 53.9095 45.7867 54.2195 45.8259 54.5281C45.8651 54.8367 46.0392 55.1188 46.3101 55.3121C46.581 55.5055 46.9263 55.5944 47.2702 55.5592C47.6141 55.5241 47.9283 55.3678 48.1438 55.1247C49.6895 54.3271 51.4779 53.9914 53.2502 54.1664Z" fill="#EF476F"/>
<path d="M38.3487 54.1675C38.5703 54.4106 38.8905 54.5648 39.2387 54.596C39.5869 54.6273 39.9347 54.5331 40.2056 54.3342C40.4764 54.1353 40.6482 53.848 40.683 53.5354C40.7178 53.2229 40.6129 52.9107 40.3913 52.6676C39.7087 51.5353 38.7096 50.582 37.4921 49.9014C36.2746 49.2208 34.8807 48.8364 33.4474 48.786C32.0142 48.7355 30.591 49.0208 29.3178 49.6137C28.0447 50.2066 26.9654 51.0868 26.1862 52.1676C26.0209 52.2772 25.8828 52.4163 25.7805 52.5761C25.6782 52.736 25.6139 52.9132 25.5918 53.0965C25.5696 53.2798 25.5901 53.4652 25.6519 53.6411C25.7137 53.8169 25.8154 53.9794 25.9507 54.1181C26.086 54.2569 26.2518 54.3689 26.4378 54.4472C26.6238 54.5255 26.8259 54.5684 27.0312 54.573C27.2366 54.5776 27.4408 54.544 27.6309 54.4742C27.8211 54.4044 27.993 54.3 28.1359 54.1675C29.765 53.4134 31.6064 53.1089 33.428 53.2926C35.1294 53.125 36.847 53.4304 38.3487 54.1675Z" fill="#EF476F"/>
</svg>
