<svg width="91" height="99" viewBox="0 0 91 99" fill="none" xmlns="http://www.w3.org/2000/svg">
<path d="M2.30309 54.4602C1.99936 54.5494 1.67037 54.5352 1.34141 54.4104C0.401785 54.0442 -0.153674 52.8458 0.0981874 51.7315C2.06403 43.0971 4.3246 35.7043 6.94168 27.1444C7.56005 25.1257 8.19953 23.0454 8.85254 20.8726C9.1761 19.7926 10.1828 19.2869 11.1063 19.7353C12.0215 20.1861 12.4976 21.4299 12.1766 22.5202C11.5235 24.6931 10.8866 26.7837 10.2598 28.8049C7.6672 37.2802 5.43112 44.5882 3.4974 53.0583C3.3309 53.7823 2.86838 54.2943 2.30309 54.4602Z" fill="#24B47E"/>
<path d="M11.7213 23.8381C10.8101 24.1055 9.84195 23.4378 9.54125 22.3196C9.23802 21.1911 9.73958 20.0257 10.6685 19.7199C14.1421 18.5788 20.6431 16.3943 28.1717 13.8641C43.4938 8.70362 62.5604 2.2894 68.8038 0.457216C69.7319 0.184864 70.7187 0.89143 70.9966 2.02736C71.2745 3.16329 70.7425 4.31552 69.8144 4.58787C63.63 6.40272 44.5888 12.8095 29.2894 17.9522C21.7608 20.4825 15.254 22.6797 11.7694 23.8129C11.7526 23.8179 11.7357 23.8229 11.7272 23.8253L11.7213 23.8381Z" fill="#24B47E"/>
<path d="M89.1324 24.4086C88.6262 24.5572 88.0602 24.4244 87.5939 23.9968C84.6365 21.2233 81.5907 17.9776 78.3628 14.5419C75.1324 11.0959 71.7847 7.54036 68.2649 4.16819C67.4857 3.42285 67.3193 2.07714 67.895 1.1777C68.4707 0.278257 69.5793 0.152166 70.3584 0.8975C73.9601 4.34529 77.3456 7.945 80.614 11.4352C83.793 14.8189 86.8008 18.0204 89.6629 20.7001C90.4506 21.443 90.6314 22.7734 90.0582 23.6832C89.8252 24.0614 89.4952 24.3021 89.1324 24.4086Z" fill="#24B47E"/>
<path d="M60.8943 98.8601C60.4809 98.9814 60.0136 98.9194 59.591 98.6338C39.7465 85.1989 21.3344 71.8527 1.64414 56.6458C0.806703 55.9951 0.522101 54.6841 1.01349 53.6987C1.50741 52.7236 2.58061 52.453 3.42648 53.1012C23.051 68.261 41.4057 81.5575 61.187 94.9557C62.054 95.5425 62.4002 96.8465 61.9611 97.8608C61.7356 98.3808 61.3415 98.7289 60.8943 98.8601Z" fill="#24B47E"/>
<path d="M61.5988 98.8194C61.2023 98.9358 60.7543 98.8791 60.3503 98.6324C59.4656 98.084 59.0857 96.7899 59.4945 95.7624C68.9951 71.8344 78.2124 47.4139 86.8999 23.1933C87.2758 22.1422 88.3085 21.7064 89.2109 22.2163C90.105 22.7287 90.5246 24.0001 90.1512 25.0616C81.4485 49.3309 72.205 73.7922 62.6892 97.7689C62.4629 98.3224 62.0654 98.6936 61.5929 98.8322L61.5988 98.8194Z" fill="#24B47E"/>
<path d="M3.02837 54.9115C2.30278 55.1245 1.48634 54.7442 1.04717 53.9102C0.517806 52.8923 0.74356 51.5975 1.55957 51.0149C6.06665 47.7775 62.1871 29.3718 85.8279 22.4343C86.756 22.1619 87.7427 22.8685 88.0206 24.0044C88.2986 25.1403 87.7666 26.2926 86.8385 26.5649C62.7674 33.6287 7.28224 51.9698 3.48908 54.6878C3.34393 54.7968 3.18868 54.8645 3.02837 54.9115Z" fill="#24B47E"/>
<path d="M61.4205 97.4993C61.1842 97.5686 60.9244 97.5785 60.6638 97.5111C59.7013 97.2733 59.0294 96.1534 59.1733 95.0044C61.6409 74.7451 62.2367 54.0059 60.963 33.3503C60.8927 32.1756 61.6152 31.2109 62.5871 31.1914C63.5589 31.1718 64.4005 32.0981 64.4708 33.2728C65.7671 54.2426 65.1577 75.2959 62.6545 95.8533C62.5521 96.6913 62.0533 97.3136 61.4205 97.4993Z" fill="#24B47E"/>
<path d="M61.6482 97.6538C61.0491 97.8296 60.3709 97.608 59.8979 97.0053C46.9529 80.5385 34.4662 63.1734 22.7854 45.4059C22.1649 44.459 22.2659 43.1344 23.0178 42.4378C23.7698 41.7413 24.8757 41.9369 25.4962 42.8838C37.1154 60.5476 49.5211 77.8036 62.3878 94.1717C63.0716 95.0446 63.0761 96.3936 62.3891 97.1708C62.1764 97.4103 61.9181 97.5746 61.6482 97.6538Z" fill="#24B47E"/>
<path d="M25.7971 43.7805C25.4933 43.8697 25.1559 43.858 24.8244 43.7229C23.8907 43.3439 23.3352 42.1455 23.5955 41.0287C25.639 32.3051 28.1793 23.6902 31.1489 15.4253C31.5248 14.3742 32.5575 13.9383 33.46 14.4483C34.354 14.9607 34.7736 16.2321 34.4003 17.2935C31.4907 25.397 28.9993 33.8425 26.9964 42.3993C26.8274 43.1129 26.3649 43.625 25.808 43.7884L25.7971 43.7805Z" fill="#24B47E"/>
<path d="M62.2034 32.8756C61.5537 33.0662 60.8241 32.7823 60.3562 32.0895C57.3472 27.6266 47.1661 14.3996 45.8053 12.7182C45.1071 11.8605 45.0942 10.514 45.7677 9.71866C46.4497 8.92086 47.559 8.98272 48.2572 9.84038C49.683 11.6024 59.8994 24.8633 63.0374 29.5207C63.6638 30.4548 63.5739 31.7872 62.8329 32.4916C62.6413 32.6696 62.4286 32.7984 62.2008 32.8653L62.2034 32.8756Z" fill="#24B47E"/>
</svg>
