<svg width="20" height="16" viewBox="0 0 20 16" fill="none" xmlns="http://www.w3.org/2000/svg">
<path id="Vector" d="M17.5 0H2.5C1.83718 0.000721921 1.2017 0.269135 0.733016 0.746344C0.264329 1.22355 0.000709029 1.87058 0 2.54545V13.4545C0.000709029 14.1294 0.264329 14.7764 0.733016 15.2537C1.2017 15.7309 1.83718 15.9993 2.5 16H17.5C18.1628 15.9993 18.7983 15.7309 19.267 15.2537C19.7357 14.7764 19.9993 14.1294 20 13.4545V2.54545C19.9993 1.87058 19.7357 1.22355 19.267 0.746344C18.7983 0.269135 18.1628 0.000721921 17.5 0ZM16.867 4.21045L10.4384 9.30136C10.313 9.40059 10.1588 9.45445 10 9.45445C9.84122 9.45445 9.68696 9.40059 9.56161 9.30136L3.13304 4.21045C3.05751 4.15238 2.99407 4.0796 2.9464 3.99634C2.89873 3.91309 2.86779 3.82102 2.85538 3.72548C2.84296 3.62995 2.84932 3.53285 2.87408 3.43984C2.89884 3.34683 2.9415 3.25975 2.9996 3.18367C3.05769 3.1076 3.13006 3.04403 3.21249 2.99668C3.29492 2.94932 3.38577 2.91912 3.47977 2.90782C3.57376 2.89653 3.66903 2.90436 3.76002 2.93088C3.85102 2.95739 3.93593 3.00206 4.00982 3.06227L10 7.80591L15.9902 3.06227C16.14 2.9471 16.3283 2.89659 16.5143 2.92166C16.7004 2.94673 16.8693 3.04536 16.9845 3.19624C17.0997 3.34711 17.152 3.5381 17.13 3.72789C17.108 3.91769 17.0135 4.09104 16.867 4.21045Z" fill="#EF476F"/>
</svg>
