<svg width="100" height="100" viewBox="0 0 100 100" fill="none" xmlns="http://www.w3.org/2000/svg">
<g clip-path="url(#clip0_415_2445)">
<path fill-rule="evenodd" clip-rule="evenodd" d="M39.7083 28.6663C41.4555 28.796 43.2123 28.6554 44.9167 28.2496C46.7393 27.8533 48.4664 27.103 50 26.0413C52.1764 24.3055 53.8466 22.017 54.8361 19.415C55.8256 16.813 56.0981 13.993 55.625 11.2496C55.3157 8.4802 54.0898 5.89353 52.1421 3.90054C50.1944 1.90756 47.6366 0.622546 44.875 0.249635C36.75 -0.667032 34.0417 1.08297 31.7917 2.74964C28.9003 4.90055 26.9106 8.04842 26.2083 11.583C25.8862 13.5937 25.9826 15.6492 26.4917 17.6209C27.0007 19.5926 27.9114 21.4379 29.1667 23.0413C30.448 24.6475 32.044 25.9749 33.8568 26.9422C35.6695 27.9094 37.6607 28.4961 39.7083 28.6663ZM33.7917 5.20797C34.3333 4.70797 36.4583 1.9163 44.4583 3.2913C46.4274 3.66357 48.2137 4.68829 49.5291 6.20018C50.8444 7.71207 51.6121 9.62297 51.7083 11.6246C51.9562 13.6148 51.6656 15.6349 50.8667 17.4745C50.0679 19.314 48.7901 20.9055 47.1667 22.083C46.1545 22.7517 45.0226 23.2186 43.8333 23.458C42.6045 23.7394 41.3409 23.8377 40.0833 23.7496C38.6575 23.6598 37.2648 23.281 35.9899 22.6364C34.7149 21.9917 33.5843 21.0947 32.6667 19.9996C31.7109 18.8962 30.9861 17.6123 30.5352 16.2239C30.0844 14.8355 29.9165 13.3707 30.0417 11.9163C30.4147 9.29191 31.7515 6.90045 33.7917 5.20797Z" fill="#EF476F"/>
<path fill-rule="evenodd" clip-rule="evenodd" d="M89.5833 65.5415C89.1156 61.8387 87.9416 58.2601 86.125 54.9998C83.8766 51.2222 80.8167 47.9916 77.1667 45.5415C73.3222 43.4466 69.0423 42.2767 64.6667 42.1248C62.7083 42.1248 58.1667 42.1248 54.4167 41.7915C53.2108 41.6886 52.0291 41.3932 50.9167 40.9165C50.375 40.6665 50 40.4165 50 39.9998C49.826 37.569 48.926 35.2465 47.4167 33.3332C46.4579 32.5111 45.3303 31.9096 44.1135 31.5712C42.8968 31.2328 41.6205 31.1658 40.375 31.3748C38.5852 31.3823 36.8379 31.9209 35.3544 32.9222C33.8709 33.9236 32.718 35.3427 32.0417 36.9998C30.3658 41.4675 29.642 46.2361 29.9167 50.9998C29.7036 55.1115 30.9099 59.1715 33.3333 62.4998C36.0181 65.2693 39.5536 67.059 43.375 67.5832C45.25 68.0415 47 68.3748 47.7917 69.9165C49.0578 72.6732 49.8063 75.6391 50 78.6665C50.3148 81.7557 50.3148 84.8689 50 87.9582C49.6056 91.2099 50.5033 94.4865 52.5 97.0832C53.2778 97.9925 54.2424 98.7238 55.328 99.227C56.4137 99.7303 57.595 99.9939 58.7917 99.9998C61.4594 100.065 64.0517 99.111 66.0417 97.3332C68.0042 95.6402 69.3398 93.3359 69.8333 90.7915C70.25 88.5832 70.625 85.7082 70.875 82.8748C71.125 80.0415 71.2083 77.6665 71.25 75.6665C71.8341 75.4452 72.4328 75.2642 73.0417 75.1248C76.75 74.8748 82.0417 75.5415 84.8333 75.1248C86.0361 75.0446 87.1721 74.543 88.0417 73.7082C89.5791 71.2825 90.1307 68.3607 89.5833 65.5415ZM84.8333 70.5415H82.0833C78.4765 70.2941 74.8569 70.2941 71.25 70.5415C68.0833 71.0415 66.4583 72.7082 66.5 74.9165C66.5017 77.4351 66.3766 79.9522 66.125 82.4582C65.875 85.1248 65.5417 87.8332 65.1667 89.9582C64.8764 91.4339 64.0987 92.7692 62.9583 93.7498C61.8968 94.7439 60.4959 95.2953 59.0417 95.2915C58.3336 95.2929 57.6368 95.1138 57.0171 94.7712C56.3974 94.4285 55.8753 93.9336 55.5 93.3332C54.7104 91.8061 54.364 90.0885 54.5 88.3748C54.9235 84.2944 54.8114 80.1762 54.1667 76.1248C53.6945 73.3445 52.7801 70.6577 51.4583 68.1665C50.6481 67.0022 49.5955 66.0269 48.3728 65.3077C47.1501 64.5885 45.7863 64.1423 44.375 63.9998C41.2683 63.7644 38.332 62.4871 36.0417 60.3748C34.0707 57.5364 33.1163 54.1153 33.3333 50.6665C32.9865 46.4382 33.5112 42.1838 34.875 38.1665C35.2998 36.9802 36.0711 35.9488 37.0889 35.2059C38.1066 34.463 39.324 34.0429 40.5833 33.9998C43.125 33.9998 44.75 34.2498 45.6667 35.2915C46.7092 36.8585 47.2605 38.701 47.25 40.5832C47.5 42.5415 49.4167 43.9582 52.2917 44.7498C56.3152 45.403 60.3823 45.7512 64.4583 45.7915C68.3074 46.0145 72.0551 47.1117 75.4167 48.9998C78.4983 51.3123 81.0545 54.2519 82.9167 57.6248C84.0421 59.8792 84.8016 62.2984 85.1667 64.7915C85.6244 66.6991 85.5084 68.6995 84.8333 70.5415Z" fill="#EF476F"/>
</g>
<defs>
<clipPath id="clip0_415_2445">
<rect width="100" height="100" fill="white"/>
</clipPath>
</defs>
</svg>
