<svg width="178" height="193" viewBox="0 0 178 193" fill="none" xmlns="http://www.w3.org/2000/svg">
<path d="M63.2951 191.728C62.4533 191.497 61.5998 191.123 60.7565 190.59C58.179 188.94 56.7629 186.223 55.8298 184.421L17.2296 109.715C9.28905 94.3478 -0.587751 75.2377 0.601829 55.3869C1.08096 47.3672 3.39733 38.9878 7.68391 29.7433C11.862 20.7701 23.7698 -0.0170525 44.1316 0.566005C55.6709 0.898649 67.8116 8.92489 75.8091 21.517C82.5583 32.1407 86.0219 44.5941 89.0154 55.7541C106.379 40.9799 126.576 28.4479 147.789 36.3113C171.772 45.2148 181.887 77.3597 175.975 100.654C169.553 125.957 149.211 143.588 134.466 154.644C115.331 169.013 94.5185 181.034 72.6078 190.386C70.6849 191.204 67.047 192.757 63.3135 191.733L63.2951 191.728ZM49.5305 9.25354C47.865 8.79696 46.1455 8.52633 44.4051 8.47081C28.1017 7.99653 18.005 25.8873 14.4098 33.5948C10.5248 41.9256 8.43824 49.3841 8.03491 56.3807C6.99197 73.9026 16.2786 91.8472 23.7214 106.275L62.3216 180.981C62.8564 182.031 63.6087 183.462 64.2943 183.911C65.53 184.712 68.3576 183.479 69.4231 183.028C90.8339 173.881 111.173 162.131 129.882 148.087C143.759 137.657 162.892 121.139 168.75 98.1314C173.782 78.3101 165.572 51.1042 145.728 43.7367C126.17 36.4876 106.387 50.8196 89.5801 65.8067C88.0545 67.1752 85.6843 66.8868 84.3093 65.1848C83.2762 63.9179 83.0783 62.1973 83.6755 60.8552C82.9492 60.3148 82.3898 59.499 82.1442 58.5483C79.1061 47.2154 75.9675 35.4935 69.708 25.6465C65.3963 18.8631 58.1323 11.6117 49.5305 9.25354Z" fill="#FFCF5E"/>
</svg>
