<svg width="335" height="373" viewBox="0 0 335 373" fill="none" xmlns="http://www.w3.org/2000/svg">
<path d="M165.386 237.764C164.949 237.904 164.48 237.971 163.985 237.95C162.468 237.873 161.287 236.858 160.507 236.184L128.182 208.183C121.532 202.423 113.262 195.261 110 184.227C108.682 179.77 108.15 174.543 108.368 168.233C108.588 162.102 110.135 147.2 119.725 141.12C125.16 137.676 132.353 138.175 138.496 142.426C143.679 146.013 147.685 151.613 151.223 156.666C156.465 143.281 163.457 130.21 174.842 127.772C187.716 125.024 198.602 139.112 200.328 153.477C202.202 169.082 196.123 184.937 191.385 195.503C185.24 209.228 177.863 222.218 169.462 234.119C168.724 235.162 167.33 237.138 165.395 237.761L165.386 237.764ZM123.907 144.091C123.044 144.369 122.192 144.763 121.371 145.28C113.692 150.144 112.431 162.921 112.239 168.189C112.032 173.883 112.494 178.543 113.651 182.427C116.533 192.165 124.305 198.886 130.542 204.297L162.867 232.298C163.318 232.694 163.943 233.226 164.348 233.252C165.077 233.294 166.156 231.744 166.566 231.168C174.773 219.533 181.982 206.837 187.99 193.422C192.445 183.463 198.176 168.586 196.48 154.391C195.013 142.166 185.963 130.134 175.31 132.407C164.813 134.655 158.36 148.562 153.418 161.888C152.971 163.102 151.812 163.691 150.845 163.209C150.121 162.852 149.698 161.991 149.718 161.082C149.276 161.02 148.859 160.758 148.562 160.324C144.969 155.192 141.256 149.882 136.45 146.559C133.139 144.27 128.364 142.657 123.907 144.091Z" fill="#EF476F"/>
<g clip-path="url(#clip0_888_4044)">
<path d="M211.085 258.483L245.69 273.548L262.426 280.842C268.319 283.411 274.071 286.175 280.303 288.551C282.551 289.416 283.672 288.512 283.876 287.636C284.146 286.493 283.253 284.88 281.195 283.877C275.583 281.132 269.283 278.621 263.336 276.032L246.6 268.738L211.997 253.661C209.764 252.685 208.531 253.788 208.333 254.615C208.069 255.721 208.906 257.527 211.113 258.487L211.085 258.483Z" fill="#FFCF5E"/>
<path d="M154.284 266.295C157.481 284.501 160.373 302.615 163.948 320.952C164.066 321.589 164.405 323.157 166.082 323.78C167.683 324.365 167.972 322.992 167.879 322.399C165.062 304.323 161.588 286.016 158.373 267.8C158.249 267.131 157.897 265.495 156.138 264.851C154.48 264.237 154.14 265.665 154.262 266.293L154.284 266.295Z" fill="#FFCF5E"/>
<path d="M81.5362 260.998L61.781 272.885L52.0615 278.73C48.7168 280.74 45.0924 282.679 42.0838 284.836C41.0706 285.577 41.5676 286.997 42.2687 287.898C42.6278 288.367 44.2427 289.914 45.4608 289.303C49.162 287.455 52.3485 285.298 55.6948 283.277L65.4143 277.432L85.5074 265.351C87.3012 264.272 84.1787 259.406 81.5378 260.987L81.5362 260.998Z" fill="#FFCF5E"/>
</g>
<g clip-path="url(#clip1_888_4044)">
<path d="M224.167 114.516L258.772 99.451L275.508 92.1573C281.401 89.5879 287.153 86.8241 293.385 84.4477C295.633 83.5826 296.754 84.4868 296.958 85.3629C297.228 86.5064 296.335 88.1189 294.277 89.1218C288.665 91.8669 282.365 94.3778 276.418 96.9669L259.682 104.261L225.079 119.338C222.846 120.314 221.613 119.211 221.415 118.384C221.151 117.278 221.988 115.472 224.195 114.512L224.167 114.516Z" fill="#FFCF5E"/>
<path d="M167.366 106.704C170.563 88.4976 173.455 70.3839 177.031 52.0467C177.148 51.4105 177.487 49.8419 179.164 49.219C180.765 48.6337 181.054 50.007 180.961 50.6004C178.144 68.6765 174.67 86.9827 171.455 105.199C171.331 105.868 170.979 107.504 169.22 108.148C167.562 108.762 167.222 107.334 167.344 106.706L167.366 106.704Z" fill="#FFCF5E"/>
<path d="M94.6183 112.001L74.8631 100.114L65.1435 94.269C61.7988 92.2588 58.1745 90.3201 55.1659 88.1627C54.1527 87.4221 54.6497 86.002 55.3507 85.1006C55.7099 84.6317 57.3247 83.0849 58.5429 83.6956C62.244 85.5444 65.4306 87.7008 68.7768 89.7222L78.4963 95.5672L98.5895 107.648C100.383 108.727 97.2607 113.593 94.6198 112.012L94.6183 112.001Z" fill="#FFCF5E"/>
</g>
<defs>
<clipPath id="clip0_888_4044">
<rect width="105.798" height="310.407" fill="white" transform="matrix(-0.13466 0.990892 -0.991186 -0.132478 321.918 268.165)"/>
</clipPath>
<clipPath id="clip1_888_4044">
<rect width="105.798" height="310.407" fill="white" transform="matrix(-0.13466 -0.990892 -0.991186 0.132478 335 104.834)"/>
</clipPath>
</defs>
</svg>
