<svg width="139" height="135" viewBox="0 0 139 135" fill="none" xmlns="http://www.w3.org/2000/svg">
<path d="M60.4217 94.0949L60.9705 93.7209L60.4594 93.2968C50.5374 85.0658 43.3171 80.112 38.4449 76.8622C37.9121 76.5069 37.4087 76.1727 36.9336 75.8574C35.2305 74.7269 33.8928 73.839 32.8828 73.0894C32.2388 72.6114 31.7452 72.202 31.3841 71.8343C31.0215 71.4651 30.8153 71.1605 30.7155 70.8965C30.542 70.4374 30.6382 69.9511 31.2775 69.1596C31.9252 68.3575 33.0179 67.3828 34.5715 66.0008L34.5785 65.9945C37.6629 63.2507 42.388 59.0474 48.3843 51.8192C59.5219 38.3937 58.0542 22.5068 57.1434 12.6476C57.064 11.7885 56.9889 10.9751 56.9266 10.2132C56.7301 7.8052 56.6691 5.98065 56.9568 4.81214C57.0983 4.23754 57.3077 3.89452 57.5586 3.70505C57.7987 3.52366 58.1575 3.42269 58.7397 3.50884C59.9483 3.68766 61.8417 4.6304 64.7312 6.62177C67.5965 8.59652 71.3708 11.5503 76.3203 15.6564C83.251 21.4059 89.7182 26.4241 95.533 30.9361C98.0328 32.8758 100.412 34.7219 102.656 36.4924C110.133 42.3928 116.095 47.4455 120.073 52.3541C124.042 57.2508 126 61.9568 125.549 67.1769C125.096 72.4206 122.206 78.2791 116.255 85.4527C110.346 92.5755 101.059 98.571 91.121 103.07C81.1889 107.566 70.6549 110.545 62.2958 111.663C58.1131 112.223 54.5013 112.312 51.7922 111.906C49.0381 111.494 47.4039 110.599 46.8689 109.376C46.3443 108.177 46.7547 106.356 48.9095 103.742C51.0376 101.162 54.7488 97.9599 60.4217 94.0949Z" fill="#C8FAD9" fill-opacity="0.8" stroke="#FFEEEE"/>
<path d="M109.955 88.0464C109.687 88.25 109.375 88.4263 109.021 88.5657C107.933 88.9869 106.825 88.8305 106.091 88.725L75.6983 84.3248C69.4463 83.4198 61.6709 82.295 56.3594 77.6859C54.2132 75.8242 52.4093 73.3334 50.8372 70.0651C49.3155 66.8876 46.3285 58.8567 51.4106 52.8623C54.2913 49.4656 59.4872 47.5361 64.9703 47.8296C69.5967 48.0766 73.9456 49.703 77.8162 51.1937C77.8429 42.8109 79.186 34.0572 86.5273 29.366C94.8305 24.0657 106.34 27.9106 111.482 34.6765C117.067 42.0259 117.128 51.9155 116.685 58.7146C116.116 67.5428 114.48 76.3725 111.826 84.9603C111.592 85.7134 111.151 87.1392 109.961 88.042L109.955 88.0464ZM55.1648 53.1005C54.6337 53.5032 54.1421 53.962 53.7061 54.4732C49.6349 59.2712 52.2424 66.1374 53.5479 68.8687C54.9593 71.8205 56.559 74.0451 58.4349 75.6649C63.125 79.7312 70.429 80.7836 76.2958 81.637L106.689 86.0373C107.114 86.1014 107.699 86.1818 107.992 86.0719C108.516 85.872 108.851 84.7583 108.981 84.3415C111.572 75.9477 113.17 67.3186 113.728 58.6881C114.138 52.2835 114.1 42.9958 109.026 36.3074C104.65 30.5498 94.9944 27.1901 88.1237 31.5759C81.3555 35.9012 80.6201 44.916 80.7879 53.177C80.8054 53.9286 80.1516 54.5792 79.3395 54.6279C78.7327 54.667 78.1996 54.3579 77.9653 53.891C77.6374 53.9935 77.2722 53.9869 76.9448 53.8571C73.0146 52.3428 68.9505 50.7755 64.6615 50.5476C61.7069 50.3905 57.9073 51.0204 55.1648 53.1005Z" fill="#8F1120"/>
</svg>
