<svg width="100" height="100" viewBox="0 0 100 100" fill="none" xmlns="http://www.w3.org/2000/svg">
<rect width="100" height="100" rx="50" fill="#FFCF5E"/>
<path d="M63.2673 77.5532C65.6219 68.4533 67.702 59.1807 69.6985 50.0003C64.9593 52.1683 60.8741 54.8757 56.6195 57.8919C54.2713 54.0136 49.397 48.8477 45.833 46.0781C41.7124 50.1708 38.7327 53.9236 35.4656 58.5931C31.8909 55.7485 28.3064 53.5215 24.1194 51.6472C25.5272 60.3462 27.5022 68.8961 29.963 77.3559C34.892 75.6725 38.1408 75.8012 42.553 75.6725C50.1336 75.4474 55.765 76.1325 63.2684 77.5521L63.2673 77.5532Z" stroke="#EF476F" stroke-width="3.86817" stroke-miterlimit="1.5" stroke-linecap="round" stroke-linejoin="round"/>
<path d="M4.9834 47.814C7.25651 48.6599 9.50496 49.5896 11.7931 50.3894" stroke="#EF476F" stroke-width="3.86817" stroke-miterlimit="1.5" stroke-linecap="round" stroke-linejoin="round"/>
<path d="M27.0627 22.3691C28.017 24.891 29.1643 27.3282 30.154 29.8318" stroke="#EF476F" stroke-width="3.86817" stroke-miterlimit="1.5" stroke-linecap="round" stroke-linejoin="round"/>
<path d="M57.134 29.5712C59.0415 26.436 60.6241 23.1175 62.523 19.978" stroke="#EF476F" stroke-width="3.86817" stroke-miterlimit="1.5" stroke-linecap="round" stroke-linejoin="round"/>
<path d="M84.6819 50.086C88.0015 48.6117 91.4036 47.162 94.5817 45.395" stroke="#EF476F" stroke-width="3.86817" stroke-miterlimit="1.5" stroke-linecap="round" stroke-linejoin="round"/>
<path d="M68.582 55.057C70.1957 54.4747 71.7687 53.7521 73.4049 53.2363" stroke="#EF476F" stroke-width="3.86817" stroke-miterlimit="1.5" stroke-linecap="round" stroke-linejoin="round"/>
<path d="M66.2522 65.5571C68.3848 64.5867 70.5368 63.6936 72.6812 62.7607" stroke="#EF476F" stroke-width="3.86817" stroke-miterlimit="1.5" stroke-linecap="round" stroke-linejoin="round"/>
<path d="M63.6167 76.1948C65.6797 75.2694 67.7608 74.3688 69.7927 73.377" stroke="#EF476F" stroke-width="3.86817" stroke-miterlimit="1.5" stroke-linecap="round" stroke-linejoin="round"/>
<path d="M53.0103 80.8533C55.6908 79.6127 58.3596 78.2864 61.0948 77.1724" stroke="#EF476F" stroke-width="3.86817" stroke-miterlimit="1.5" stroke-linecap="round" stroke-linejoin="round"/>
<path d="M45.8504 75.6479C42.8653 77.207 39.6787 78.7124 36.9263 80.666" stroke="#EF476F" stroke-width="3.86817" stroke-miterlimit="1.5" stroke-linecap="round" stroke-linejoin="round"/>
</svg>
