<svg width="126" height="140" viewBox="0 0 126 140" fill="none" xmlns="http://www.w3.org/2000/svg">
<path d="M12.2189 138.8C10.0774 139.063 8.06599 137.514 7.66351 135.243C5.42158 122.688 5.04801 109.838 4.66616 97.427C4.21196 82.3978 3.79962 68.2175 0.396395 54.294C-0.179809 51.9562 1.14671 49.6041 3.35581 49.0489C5.54187 48.4745 7.80797 49.9046 8.36377 52.2449C12.0056 67.1025 12.456 82.4388 12.8864 97.2739C13.249 109.359 13.6211 121.858 15.7403 133.75C16.1534 136.107 14.6912 138.366 12.4636 138.77C12.382 138.78 12.3004 138.79 12.2189 138.8Z" fill="#06D6A0"/>
<path d="M14.3726 139.653C12.1903 139.921 10.1506 138.31 9.78098 135.968C9.40872 133.606 10.9373 131.382 13.1728 131.043L74.1629 121.447C79.526 120.615 84.8866 119.762 90.2097 119.109C98.8776 118.048 107.619 117.415 116.316 117.269C118.588 117.231 120.479 119.145 120.545 121.545C120.612 123.945 118.824 125.916 116.552 125.953C108.145 126.108 99.6596 126.797 91.2667 127.738C86.0659 128.375 80.7665 129.221 75.6481 130.023L14.4772 139.662C14.4772 139.662 14.3956 139.672 14.3344 139.68L14.3726 139.653Z" fill="#06D6A0"/>
<path d="M121.577 123.718C119.395 123.985 117.355 122.374 116.988 120.054L105.415 46.0262C105.042 43.6635 106.551 41.4424 108.804 41.0788C110.999 40.7443 113.161 42.3405 113.536 44.7248L125.109 118.753C125.482 121.116 123.973 123.337 121.72 123.7C121.679 123.705 121.618 123.713 121.577 123.718Z" fill="#06D6A0"/>
<path d="M5.35639 57.6053C4.1123 57.7577 2.81732 57.3254 1.88186 56.2796C0.303247 54.5463 0.316903 51.7859 1.93726 50.1424L49.0743 2.1565C50.692 0.491433 53.3093 0.564914 54.8879 2.29818C56.4666 4.03144 56.4528 6.79186 54.8324 8.43535L7.6955 56.4213C7.03263 57.0936 6.21034 57.4788 5.35375 57.5837L5.35639 57.6053Z" fill="#06D6A0"/>
<path d="M108.64 49.8782C107.62 50.0032 106.53 49.7209 105.654 48.9962C89.3019 35.8271 72.3666 22.9701 55.3271 10.7828C54.9173 10.9863 54.4969 11.1034 54.0278 11.1609C51.779 11.3926 49.7411 9.62793 49.4912 7.25022C49.2836 5.21764 50.1506 3.33828 51.7838 2.30625C54.0707 0.865706 57.0351 1.57513 58.8286 2.86609C76.3644 15.3867 93.7756 28.5795 110.589 42.1301C112.404 43.5936 112.78 46.3279 111.418 48.2243C110.728 49.1846 109.723 49.7674 108.663 49.8974L108.64 49.8782Z" fill="#06D6A0"/>
<path d="M49.0529 131.42C46.8094 131.695 44.7361 129.978 44.4454 127.606L38.2303 76.8729C37.9396 74.5001 39.5373 72.334 41.7808 72.0591C44.0242 71.7843 46.0976 73.5007 46.3883 75.8734L52.6034 126.606C52.8941 128.979 51.2963 131.145 49.0529 131.42Z" fill="#06D6A0"/>
<path d="M44.0008 80.7199C42.1653 80.9448 40.3521 79.8316 39.6426 77.9262C38.8091 75.6857 39.8468 73.172 41.9808 72.3413C53.5057 67.733 66.1253 65.6397 78.5016 66.291C80.7722 66.4069 82.5537 68.4436 82.4746 70.8397C82.3955 73.2358 80.4903 75.0894 78.217 74.9519C66.9658 74.3598 55.4831 76.2702 45.0047 80.4657C44.689 80.592 44.3476 80.6774 44.0212 80.7174L44.0008 80.7199Z" fill="#06D6A0"/>
<path d="M89.6142 124.218C87.4319 124.485 85.4152 122.893 85.0278 120.576C82.4745 104.972 79.4283 89.2316 75.9217 73.7882C75.3863 71.4454 76.7589 69.1315 78.9707 68.5978C81.1824 68.0642 83.3924 69.545 83.9279 71.8877C87.4556 87.5037 90.5664 103.434 93.1436 119.232C93.5362 121.592 92.0307 123.834 89.7978 124.195C89.7366 124.203 89.6754 124.21 89.6142 124.218Z" fill="#06D6A0"/>
</svg>
