<svg width="100" height="100" viewBox="0 0 100 100" fill="none" xmlns="http://www.w3.org/2000/svg">
<rect width="100" height="100" rx="50" fill="#FFCF5E"/>
<path d="M67.7561 39.5052C59.9878 23.9559 33.8149 27.3784 30.0761 44.4589C27.8201 54.7662 37.3318 61.979 38.5606 71.6322H60.3653C61.0065 69.0514 62.3103 65.9816 63.2142 64.0945C65.0916 60.1755 67.7475 57.6129 68.7554 53.2404C69.715 49.0802 69.6035 43.2044 67.7561 39.5052Z" stroke="#EF476F" stroke-width="3.86817" stroke-miterlimit="1.5" stroke-linecap="round" stroke-linejoin="round"/>
<path d="M38.1616 84.7862C38.1551 81.8076 38.0093 78.83 38.0608 75.8525C38.0812 74.673 37.8796 73.2309 38.9003 72.4064C40.3907 71.2033 42.607 71.0286 44.4555 70.9835C47.922 70.901 51.4142 70.9299 54.8839 70.9374C56.4644 70.9396 58.8222 70.6651 60.2461 71.451C61.6014 72.1962 61.9445 74.2302 62.0979 75.6037C62.3895 78.235 63.1679 84.1118 60.9334 86.149C59.5256 87.4325 57.3308 87.7005 55.5294 87.9225C50.7484 88.5111 38.168 88.3943 38.1616 84.7862Z" stroke="#EF476F" stroke-width="3.86817" stroke-miterlimit="1.5" stroke-linecap="round" stroke-linejoin="round"/>
<path d="M50.9017 88.1776C50.9403 89.7988 50.9596 91.4285 50.832 93.0454" stroke="#EF476F" stroke-width="3.86817" stroke-miterlimit="1.5" stroke-linecap="round" stroke-linejoin="round"/>
<path d="M13.0957 63.4297C14.7973 62.5322 16.5729 61.7934 18.2917 60.9357" stroke="#EF476F" stroke-width="3.86817" stroke-miterlimit="1.5" stroke-linecap="round" stroke-linejoin="round"/>
<path d="M13.0957 28.5449C14.9946 29.7511 16.811 31.0828 18.7141 32.2783" stroke="#EF476F" stroke-width="3.86817" stroke-miterlimit="1.5" stroke-linecap="round" stroke-linejoin="round"/>
<path d="M50.5689 14.2565C50.5024 11.8687 50.5163 9.49797 50.5935 7.11121" stroke="#EF476F" stroke-width="3.86817" stroke-miterlimit="1.5" stroke-linecap="round" stroke-linejoin="round"/>
<path d="M79.959 30.52C82.3425 28.9427 84.7969 27.4598 87.2211 25.9459" stroke="#EF476F" stroke-width="3.86817" stroke-miterlimit="1.5" stroke-linecap="round" stroke-linejoin="round"/>
<path d="M75.8008 63.0544C77.6386 64.7014 79.4839 66.3301 81.2627 68.0403" stroke="#EF476F" stroke-width="3.86817" stroke-miterlimit="1.5" stroke-linecap="round" stroke-linejoin="round"/>
</svg>
