<svg width="100" height="100" viewBox="0 0 100 100" fill="none" xmlns="http://www.w3.org/2000/svg">
<rect width="100" height="100" rx="50" fill="#FFCF5E"/>
<path d="M84.5733 44.7764C83.9815 35.1585 71.6959 11.6501 43.846 12.4006C37.0342 12.584 36.6053 24.4106 34.0942 30.7067C21.4366 29.8232 15.1459 38.358 15.7946 47.5137C17.1348 66.3934 37.6293 83.2992 55.2952 82.4532C62.4577 82.1101 71.5887 80.016 73.4211 69.222C74.7614 61.3347 71.4161 59.78 70.6484 57.1595C75.0123 52.7794 79.9306 48.8712 84.5733 44.7764Z" stroke="#EF476F" stroke-width="3.86817" stroke-miterlimit="1.5" stroke-linecap="round" stroke-linejoin="round"/>
<path d="M34.3802 30.1138C32.651 34.1797 31.1444 38.3368 29.8672 42.5666" stroke="#EF476F" stroke-width="3.86817" stroke-miterlimit="1.5" stroke-linecap="round" stroke-linejoin="round"/>
<path d="M70.7034 57.1627C67.3055 59.8347 63.5806 62.1014 60.1816 64.7819" stroke="#EF476F" stroke-width="3.86817" stroke-miterlimit="1.5" stroke-linecap="round" stroke-linejoin="round"/>
<path d="M18.3398 87.1249C22.4893 82.7245 25.8079 77.3237 29.5789 72.5695" stroke="#EF476F" stroke-width="3.86817" stroke-miterlimit="1.5" stroke-linecap="round" stroke-linejoin="round"/>
<path d="M42.3826 14.5762C41.9344 18.3643 43.3969 22.0667 45.0996 25.3627C49.4238 33.7303 58.245 41.7195 67.8393 43.3257" stroke="#EF476F" stroke-width="3.86817" stroke-miterlimit="1.5" stroke-linecap="round" stroke-linejoin="round"/>
</svg>
