<svg width="100" height="100" viewBox="0 0 100 100" fill="none" xmlns="http://www.w3.org/2000/svg">
<rect width="100" height="100" rx="50" fill="#FFCF5E"/>
<path d="M53.8328 80.0193C54.0326 82.5154 54.2244 84.9118 54.2486 86.5113C56.1922 87.332 60.7981 89.4956 63.3614 91.935C58.6863 92.4055 36.9746 91.8699 34.4681 91.4489C37.6795 89.5173 41.3437 87.7562 44.8796 86.5487C44.8217 83.665 44.9982 80.9473 45.1852 78.0644C45.3332 75.7861 45.4876 73.4046 45.5382 70.7565C45.1848 70.6897 44.6006 70.5378 44.0224 70.3874C43.4816 70.2462 42.946 70.1071 42.6094 70.0404C38.4109 69.2097 35.3514 66.8824 33.1408 63.86C30.134 65.1824 26.3793 63.5946 23.9089 61.8962C18.7233 58.3309 11.8231 51.1823 15.2083 44.3107C17.2287 40.2094 23.876 38.9159 27.9523 38.7338C28.1787 36.8235 28.6881 34.9646 29.8743 33.7246C32.0234 31.477 35.7205 30.5345 38.6771 30.1059C45.2499 29.1537 51.976 29.0661 58.5006 30.5867L59.0012 30.7013C61.9356 31.372 67.1908 32.5734 70.4115 35.1287C71.1441 35.762 71.7307 36.4889 72.1059 37.3285C72.4412 38.0796 72.6354 39.5259 72.6423 41.4104C73.1698 41.5544 73.7419 41.6967 74.3423 41.8463C78.2662 42.8242 83.3831 44.0992 84.9971 47.9326C86.5294 51.5727 84.5865 55.0218 82.4571 57.891C78.4769 63.2548 70.9905 70.1409 63.6698 66.4843C62.3803 67.699 60.9284 68.6966 59.2991 69.397C57.6671 70.0983 55.5694 70.6704 53.3788 70.9519C53.2667 72.9462 53.5574 76.5778 53.8328 80.0193ZM20.7164 43.8241C15.0129 45.8201 18.8958 54.1625 22.1446 56.7342C23.1321 57.5159 24.1824 58.2235 25.2507 58.8882C26.5012 59.6662 29.3017 60.71 30.8236 60.1326C30.0926 58.474 29.5361 56.6365 29.0134 54.8115C27.9298 51.0291 27.4388 46.8345 27.2856 42.8921C25.071 42.7944 22.8205 43.0875 20.7164 43.8241ZM81.2291 52.2027C78.7973 58.1974 73.1075 63.9605 66.1353 63.2745C69.1928 57.8926 72.2353 51.4324 72.9506 45.2415C73.1368 45.2813 73.3246 45.3183 73.5132 45.3553C73.9611 45.4433 74.4114 45.5314 74.8453 45.6633C77.6442 46.5153 82.864 48.1727 81.2291 52.2027Z" stroke="#EF476F" stroke-width="1.93409" stroke-miterlimit="1.5" stroke-linecap="round" stroke-linejoin="round"/>
<path d="M58.9764 61.1648C52.221 59.8951 45.4785 59.6751 40.0367 60.417C37.775 60.7254 35.3987 60.9007 33.2793 61.8379" stroke="#EF476F" stroke-width="1.93409" stroke-miterlimit="1.5" stroke-linecap="round" stroke-linejoin="round"/>
<path d="M26.1042 15.5373C25.8754 17.5107 25.5976 19.5585 25.5586 21.5412" stroke="#EF476F" stroke-width="1.93409" stroke-miterlimit="1.5" stroke-linecap="round" stroke-linejoin="round"/>
<path d="M20.333 22.8419C21.4564 22.7643 22.5847 22.7812 23.7097 22.819" stroke="#EF476F" stroke-width="1.93409" stroke-miterlimit="1.5" stroke-linecap="round" stroke-linejoin="round"/>
<path d="M27.375 22.7405C28.6609 22.9588 29.9033 22.8997 31.1964 22.9206" stroke="#EF476F" stroke-width="1.93409" stroke-miterlimit="1.5" stroke-linecap="round" stroke-linejoin="round"/>
<path d="M25.4006 29.094C25.175 27.8359 24.9474 26.0478 25.2759 24.7732" stroke="#EF476F" stroke-width="1.93409" stroke-miterlimit="1.5" stroke-linecap="round" stroke-linejoin="round"/>
<path d="M68.8137 72.5209C68.6175 73.5739 68.5278 74.6431 68.4297 75.709" stroke="#EF476F" stroke-width="1.93409" stroke-miterlimit="1.5" stroke-linecap="round" stroke-linejoin="round"/>
<path d="M65.0439 77.0721C65.5671 77.015 66.0878 76.9579 66.6129 76.9205" stroke="#EF476F" stroke-width="1.93409" stroke-miterlimit="1.5" stroke-linecap="round" stroke-linejoin="round"/>
<path d="M68.2362 78.3917C68.1755 79.5373 68.2081 80.6808 68.1719 81.8263" stroke="#EF476F" stroke-width="1.93409" stroke-miterlimit="1.5" stroke-linecap="round" stroke-linejoin="round"/>
<path d="M69.5791 77.3665C70.3853 77.3166 71.1955 77.2563 72.0029 77.2499" stroke="#EF476F" stroke-width="1.93409" stroke-miterlimit="1.5" stroke-linecap="round" stroke-linejoin="round"/>
<path d="M69.0914 21.7563C68.709 18.6068 68.6426 16.206 65.6045 14.5651C68.2578 13.8469 70.0857 10.4618 70.5176 7.88123C70.9924 10.3436 71.38 13.2197 73.341 14.9937C70.8553 16.0069 69.3873 18.8798 69.0918 21.4298" stroke="#EF476F" stroke-width="1.93409" stroke-miterlimit="1.5" stroke-linecap="round" stroke-linejoin="round"/>
</svg>
