<svg width="100" height="100" viewBox="0 0 100 100" fill="none" xmlns="http://www.w3.org/2000/svg">
<rect width="100" height="100" rx="50" fill="#FFCF5E"/>
<path d="M73.4208 19.6113C60.8748 9.73828 42.7735 10.8941 30.6896 18.2732C9.86272 30.9897 7.16072 62.7318 22.0367 77.0224C38.4417 92.7787 60.8297 88.9819 71.9873 78.9009C86.4483 65.8369 92.6297 44.3239 80.1833 28.2995" stroke="#EF476F" stroke-width="3.86817" stroke-miterlimit="1.5" stroke-linecap="round" stroke-linejoin="round"/>
<path d="M40.196 40.2151C39.8711 42.2201 39.736 44.2842 39.6846 46.315" stroke="#EF476F" stroke-width="3.86817" stroke-miterlimit="1.5" stroke-linecap="round" stroke-linejoin="round"/>
<path d="M58.1426 39.6522C58.1566 42.0732 58.3067 44.6005 58.0654 47.0183" stroke="#EF476F" stroke-width="3.86817" stroke-miterlimit="1.5" stroke-linecap="round" stroke-linejoin="round"/>
<path d="M30.668 57.2087C31.2695 59.4614 32.6119 61.4332 34.2535 63.0555C42.3059 71.0114 57.3416 68.526 63.0802 58.9232" stroke="#EF476F" stroke-width="3.86817" stroke-miterlimit="1.5" stroke-linecap="round" stroke-linejoin="round"/>
</svg>
