<svg width="576" height="485" viewBox="0 0 576 485" fill="none" xmlns="http://www.w3.org/2000/svg">
<path d="M243.711 485C227.197 485 210.434 483.866 193.699 481.598C173.438 478.838 154.455 473.357 138.552 468.367C125.674 464.322 113.185 459.2 101.39 453.171C87.3185 445.969 71.1657 437.407 57.3166 426.955C54.2637 424.649 51.2662 422.305 48.4076 419.999C38.8603 416.011 31.117 410.681 25.3998 404.16C25.3165 404.066 25.2332 403.971 25.1777 403.877C18.5723 394.577 13.5488 386.053 9.88531 377.812C8.08132 374.675 6.72147 372.028 5.63907 369.534C3.03022 363.58 2.03104 357.418 1.08741 351.445L0.893116 350.217C0.365794 346.928 0.171456 343.885 0.310225 340.898C0.310225 340.369 0.393622 339.84 0.44913 339.311L0.504522 338.63C-0.0783074 331.996 -0.161447 326.439 0.282614 321.166C1.42052 306.952 4.47343 292.455 9.30259 278.071C15.5749 259.435 25.6218 241.347 35.3079 223.863C37.4172 220.064 39.5263 216.284 41.5801 212.485C46.7423 202.996 52.6539 191.75 57.3998 180.183C61.5073 170.203 64.7546 159.165 67.6687 145.462C68.2515 142.683 68.8344 139.924 69.3894 137.145C71.2212 128.167 73.1084 118.868 75.8006 109.758C79.4085 97.5286 85.4311 85.224 95.256 69.8575C102.666 58.3089 113.435 47.2518 128.144 36.0624C136.332 29.844 146.101 24.9297 155.565 20.1666L155.843 20.0154C162.032 16.8968 168.942 14.1939 176.353 12.0014C187.732 8.61812 199.471 5.12141 212.294 3.30691C225.699 1.41681 238.66 0.320545 250.761 0.0559308C270.521 -0.359892 291.947 1.54911 312.735 5.57503C346.039 12.0392 379.372 23.6822 414.647 41.1846C450.921 59.1973 478.48 75.7357 501.349 93.2381C532.628 117.186 553.443 140.888 564.961 165.724C570.373 177.385 573.703 190.389 575.452 206.663C576.534 216.737 576.007 227.511 573.926 238.682C571.566 251.232 568.291 266.031 562.019 280.604C556.08 294.44 547.948 307.67 540.121 320.051C528.104 339.065 512.645 358.268 494.161 377.151C469.821 402.005 447.035 420.377 422.445 434.988C389.169 454.758 354.227 468.594 315.593 477.288C292.891 482.392 268.578 484.981 243.683 484.981L243.711 485ZM35.058 400.437C39.9704 405.994 46.6314 410.492 54.902 413.838C55.4294 414.064 55.929 414.329 56.3175 414.65C59.2594 417.032 62.3677 419.47 65.5594 421.871C78.7424 431.812 94.3956 440.11 108.05 447.103C119.207 452.83 131.058 457.669 143.215 461.487C158.535 466.307 176.741 471.58 195.863 474.17C235.968 479.613 276.183 478.215 312.124 470.125C349.314 461.752 383.035 448.408 415.174 429.317C438.987 415.161 461.162 397.261 484.947 372.992C503.07 354.488 518.196 335.682 529.964 317.102C537.651 304.93 545.644 291.945 551.417 278.525C557.467 264.463 560.631 250.022 562.963 237.774C564.961 227.095 565.461 216.832 564.434 207.268C562.741 191.599 559.577 179.143 554.415 168.048C543.369 144.252 523.33 121.438 493.106 98.3035C470.765 81.217 443.788 65.0188 408.18 47.3274C373.959 30.3543 341.765 19.0704 309.765 12.8708C290.06 9.05282 269.799 7.23832 251.177 7.63524C239.714 7.88095 227.392 8.92051 214.625 10.735C202.941 12.3983 191.728 15.7249 180.876 18.957C174.132 20.9605 168.137 23.3042 162.531 26.1205L162.254 26.2717C152.817 31.0158 143.908 35.4954 136.498 41.1279C122.566 51.7125 112.436 62.108 105.525 72.9005C96.0054 87.7568 90.2048 99.5888 86.7633 111.27C84.1545 120.153 82.2672 129.32 80.4632 138.204C79.8803 140.982 79.3253 143.779 78.7424 146.558C75.7728 160.601 72.4146 171.942 68.1683 182.243C63.3113 194.056 57.2888 205.491 52.0433 215.131C49.9618 218.949 47.8524 222.748 45.7432 226.547C36.1681 243.785 26.2601 261.627 20.1542 279.772C15.4639 293.721 12.4943 307.803 11.3841 321.582C10.9678 326.609 11.051 331.958 11.6338 338.403C11.6338 338.555 11.6338 338.687 11.6338 338.838L11.5506 339.821C11.4951 340.275 11.4673 340.709 11.4395 341.163C11.3008 343.771 11.495 346.455 11.9668 349.385L12.1611 350.614C13.077 356.246 14.0206 362.068 16.3242 367.379C17.3511 369.723 18.6278 372.199 20.3485 375.204C20.4041 375.298 20.4595 375.393 20.4873 375.487C23.9843 383.35 28.758 391.515 35.1136 400.437H35.058Z" fill="#EF476F"/>
</svg>
