<svg width="104" height="113" viewBox="0 0 104 113" fill="none" xmlns="http://www.w3.org/2000/svg">
<path d="M61.4282 111.579C61.1032 111.939 60.7577 112.288 60.3824 112.605C59.7682 113.138 58.7754 112.998 58.0102 112.28C52.5999 107.186 47.0463 102.136 41.4707 97.2252C39.3281 100.995 36.2453 103.509 32.6751 104.394C27.6732 105.625 21.7111 103.454 17.8243 98.9886C14.5004 95.171 12.731 89.8299 13.0794 84.6881C13.3168 81.2491 14.4247 77.955 16.5385 74.4284C11.6334 68.4336 6.50341 62.5571 1.26586 56.9137C0.462719 56.0425 0.279869 54.7951 0.865841 54.082L15.035 36.7192C15.6209 36.0061 16.802 36.1008 17.6485 36.9565C18.4894 37.8186 18.6908 39.1109 18.1008 39.8448L4.96671 55.9325C10.1906 61.6237 15.2921 67.5317 20.167 73.5436C20.8204 74.3522 20.9695 75.4255 20.5228 76.1149C18.2153 79.6439 17.0357 82.7727 16.8174 85.9952C16.5554 89.8197 17.8472 93.8808 20.2031 96.586C22.9269 99.7152 27.3672 101.272 31.007 100.374C34.3077 99.5588 37.1117 96.9306 38.9011 92.9645C39.1105 92.5049 39.5213 92.2136 40.0272 92.1754C40.5331 92.1372 41.0874 92.3387 41.5569 92.748C47.2875 97.7649 53.0182 102.944 58.6058 108.168C59.2522 107.421 59.8414 106.574 60.4061 105.737L69.8883 91.9452C70.4393 91.1567 71.5797 91.1823 72.4661 91.994C73.3525 92.8056 73.6253 94.1005 73.0874 94.8908L63.6053 108.683C62.9283 109.66 62.236 110.67 61.415 111.577L61.4282 111.579Z" fill="#073B4C"/>
<path d="M91.4379 77.7422C91.1471 78.0637 90.7191 78.2114 90.2422 78.1686C89.6659 78.1055 89.0942 77.7602 88.6674 77.2222C85.8355 73.6262 82.9337 71.0033 80.0593 69.4091C76.7699 67.5896 73.3765 67.1557 70.9899 68.2636C69.7476 68.8393 68.6492 69.8584 67.7291 71.2831C65.8257 74.2513 65.2585 78.1692 66.1725 82.0453C67.1284 86.0543 69.7189 89.9007 72.9369 92.0924C73.9019 92.752 74.3854 94.0257 74.0191 94.952C73.6453 95.8704 72.5662 96.0861 71.5955 95.4328C67.2724 92.4921 63.8055 87.383 62.5524 82.09C61.3786 77.1329 62.0825 72.1518 64.4821 68.4231C65.6791 66.5619 67.1453 65.2174 68.8408 64.4339C72.1148 62.9149 76.6647 63.4543 81.0064 65.8532C83.8734 67.4393 86.7063 69.8126 89.4471 72.9229C92.3066 68.5065 95.5777 64.4494 99.211 60.8225C94.7075 55.6379 89.8361 50.7787 84.7233 46.3819C84.1103 45.8544 83.7366 45.0621 83.7572 44.3226C83.7778 43.5831 84.1893 43.0304 84.8184 42.8885C89.7029 41.7551 94.2117 40.4016 95.8027 36.3453C96.4313 34.7543 96.5533 32.7136 96.6162 30.9336C96.6709 29.407 96.689 27.7906 96.2396 26.3166C95.6536 24.4072 94.1977 22.4659 92.9125 20.7596C90.5868 17.6626 88.185 14.4706 85.2555 12.3671C83.9046 11.4013 82.3826 10.6246 80.7044 10.0532C77.3481 8.91039 74.3838 8.9795 72.3452 10.2401C68.5403 12.6069 68.2686 18.9183 69.281 24.0377C69.4491 24.8943 69.1315 25.6364 68.4729 25.9086C67.8143 26.1808 66.9619 25.9181 66.3389 25.2549C59.7465 18.2916 52.8607 11.5223 45.8401 5.0813C41.4024 9.64653 37.105 14.4638 33.0243 19.4162C35.6117 21.1487 37.9713 23.6706 39.7417 26.6648C42.1517 30.7275 43.1951 35.1935 42.6223 38.9057C42.0438 42.6241 39.8373 45.6505 36.5628 47.219C33.2884 48.7875 29.3107 48.7066 25.6611 47.0085C22.0659 45.3317 18.966 42.4066 16.2311 39.8273C15.3561 39.0031 15.0965 37.7099 15.6493 36.9358C16.2226 36.1715 17.3575 36.2035 18.2325 37.0277C20.7998 39.4502 23.4471 41.9471 26.3298 43.288C28.9935 44.5288 31.9324 44.5694 34.3874 43.3859C36.8441 42.2167 38.4938 39.985 38.9157 37.2706C39.3375 34.5561 38.5382 31.2538 36.7345 28.1985C34.9252 25.1495 32.3556 22.762 29.6755 21.6533C29.0298 21.39 28.4664 20.7914 28.2066 20.085C27.9468 19.3786 28.0159 18.6668 28.3795 18.1995C33.2797 12.1129 38.5201 6.22042 43.954 0.700164C44.5407 0.100223 45.5734 0.19627 46.3649 0.917399C52.7157 6.68188 58.9715 12.7305 65.0094 18.9549C64.7783 13.1345 66.4977 8.64303 69.9055 6.51984C72.6891 4.79364 76.6014 4.65377 80.9222 6.13091C83.0049 6.84139 84.9476 7.8371 86.6736 9.07233C90.2823 11.6628 93.0697 15.373 95.5327 18.6439C97.0257 20.6255 98.8822 23.1012 99.7466 25.9245C100.418 28.114 100.407 30.1624 100.333 32.0682C100.256 34.1573 100.108 36.5692 99.2808 38.6567C97.6033 42.9064 93.769 44.8168 89.5432 46.0527C94.3071 50.3956 98.8379 55.1103 103.046 60.0997C103.825 61.0311 103.9 62.2995 103.242 62.9464C98.7846 67.1909 94.8528 72.0927 91.5512 77.503C91.5016 77.5741 91.4521 77.6452 91.3951 77.7082L91.4379 77.7422Z" fill="#073B4C"/>
</svg>
