<svg width="140" height="159" viewBox="0 0 140 159" fill="none" xmlns="http://www.w3.org/2000/svg">
<path d="M31.2188 27.8583C48.1618 20.3722 67.7117 23.017 85.6507 33.428C103.589 43.8387 119.88 61.9995 130.244 85.4555C132.837 91.3241 134.215 95.7696 134.601 99.0931C134.987 102.416 134.374 104.532 133.094 105.857C131.801 107.196 129.719 107.843 126.901 107.967C124.093 108.089 120.65 107.689 116.741 107.032C114.142 106.595 111.337 106.045 108.391 105.466C102.519 104.314 96.0842 103.051 89.5919 102.357C79.8248 101.314 69.803 101.54 61.1215 105.376C52.4353 109.213 45.9731 116.275 40.8446 123.907C37.0766 129.515 34.0034 135.473 31.2997 140.715C30.3282 142.598 29.4045 144.389 28.5133 146.038C26.8188 149.174 25.2502 151.782 23.6945 153.582C22.13 155.392 20.6688 156.279 19.1945 156.201C17.7089 156.122 16.0038 155.055 13.9814 152.42C11.9708 149.8 9.72068 145.727 7.12559 139.853C-3.2381 116.397 -5.69576 92.1246 -1.31418 71.8521C3.06752 51.5791 14.2757 35.3443 31.2188 27.8583Z" fill="#C8FAD9" fill-opacity="0.8" stroke="#FFEEEE"/>
<path d="M23.7948 122.939C23.0489 123.222 22.1864 122.817 21.8305 122.007L8.40768 90.8487C8.17262 90.2935 8.22662 89.6727 8.54158 89.2087C8.8665 88.7498 9.40251 88.5286 9.95546 88.6275L29.1389 92.2165C29.232 77.6233 28.614 62.8324 27.2939 48.2287C27.2342 47.5628 27.5626 46.9436 28.1121 46.6731C28.6546 46.4052 29.3394 46.5335 29.8096 47.0082L59.6443 76.8761L65.6044 57.441C65.7903 56.8495 66.2869 56.4401 66.8763 56.4017C67.4656 56.3632 68.0473 56.7072 68.3575 57.2692C75.3194 69.915 81.9429 82.9631 88.0352 96.0541C88.4209 96.8787 88.1281 97.8463 87.3775 98.202C86.6339 98.5551 85.714 98.1895 85.3283 97.3649C79.7747 85.4377 73.7802 73.5367 67.4901 61.9598L61.8363 80.3781C61.6762 80.8891 61.2909 81.2739 60.793 81.3836C60.2981 81.501 59.7668 81.332 59.3798 80.9493L30.6731 52.2067C31.8097 66.2003 32.3101 80.3208 32.1673 94.2531C32.1649 94.7131 31.9725 95.1393 31.6523 95.4198C31.3321 95.7004 30.9024 95.8195 30.4685 95.7371L12.3256 92.3443L24.5738 120.771C24.9314 121.606 24.6088 122.559 23.8494 122.891C23.8283 122.899 23.8001 122.91 23.7789 122.918L23.7948 122.939Z" fill="#24B47E" stroke="#FF8A00" stroke-width="4"/>
</svg>
