<svg width="23" height="25" viewBox="0 0 23 25" fill="none" xmlns="http://www.w3.org/2000/svg">
<path d="M11.5 1.5625C7.53205 1.5625 4.3125 4.7124 4.3125 8.59375C4.3125 14.8438 11.5 23.4375 11.5 23.4375C11.5 23.4375 18.6875 14.8438 18.6875 8.59375C18.6875 4.7124 15.4679 1.5625 11.5 1.5625ZM11.5 12.5C10.9314 12.5 10.3755 12.3167 9.90274 11.9733C9.42994 11.63 9.06145 11.1419 8.84385 10.5709C8.62624 9.99987 8.56931 9.37153 8.68024 8.76534C8.79117 8.15915 9.06499 7.60233 9.46707 7.16529C9.86914 6.72825 10.3814 6.43062 10.9391 6.31005C11.4968 6.18947 12.0749 6.25135 12.6002 6.48788C13.1256 6.7244 13.5746 7.12494 13.8905 7.63884C14.2064 8.15275 14.375 8.75693 14.375 9.375C14.3742 10.2035 14.071 10.9979 13.532 11.5837C12.993 12.1696 12.2622 12.4991 11.5 12.5Z" fill="#EF476F"/>
</svg>
