<svg width="178" height="176" viewBox="0 0 178 176" fill="none" xmlns="http://www.w3.org/2000/svg">
<g id="pen form">
<path id="Ellipse 82" d="M125.794 45.1279C139.708 57.3543 145.527 76.2048 143.621 96.8582C141.716 117.511 132.086 139.927 115.159 159.191C110.924 164.01 107.47 167.13 104.617 168.877C101.765 170.624 99.5865 170.958 97.8459 170.353C96.0871 169.743 94.6249 168.125 93.3285 165.62C92.0365 163.124 90.9529 159.832 89.9057 156.008C89.2095 153.467 88.5301 150.691 87.8164 147.775C86.3938 141.962 84.8348 135.592 82.7349 129.41C79.5757 120.109 75.1579 111.111 68.0281 104.846C60.8944 98.5777 51.771 95.6824 42.6899 94.2375C36.0177 93.1758 29.3196 92.892 23.4268 92.6423C21.3095 92.5526 19.2962 92.4673 17.4254 92.3518C13.8681 92.1324 10.8416 91.8058 8.55482 91.1506C6.25519 90.4918 4.83591 89.5389 4.28689 88.1684C3.73365 86.7874 3.98546 84.7916 5.52629 81.8489C7.05818 78.9233 9.80795 75.1694 14.0463 70.3458C30.9727 51.0821 51.9637 38.6487 72.1999 34.1025C92.4367 29.5561 111.879 32.9014 125.794 45.1279Z" fill="#C8FAD9" fill-opacity="0.8" stroke="#FFEEEE"/>
<g id="Vector">
<path d="M46.3583 95.1415C45.9857 95.1415 45.6266 94.9857 45.3623 94.7079C45.0303 94.3557 44.9151 93.8476 45.0642 93.387C47.9711 84.0189 50.1123 74.346 51.4269 64.6256C51.4947 64.1108 51.8538 63.6773 52.3552 63.5215C55.7161 62.4377 59.1854 61.3133 62.2956 59.6401C66.9304 57.1474 70.7861 53.4286 73.4491 48.8969C73.754 48.3754 74.3638 48.1382 74.9194 48.2602C75.5021 47.8334 76.322 47.9418 76.776 48.5108C81.2347 54.0856 86.0864 59.4302 91.2023 64.3953C91.4936 64.6798 91.6427 65.0727 91.6088 65.4723C91.5749 65.872 91.3649 66.2378 91.0396 66.4748C86.4658 69.6992 82.2511 72.9709 80.984 77.5906C80.7604 78.4102 80.6113 79.2976 80.4555 80.2392C80.0286 82.8064 79.5407 85.7191 77.1623 87.4667C75.9223 88.3744 74.4248 88.7199 73.2254 88.9908L46.6633 95.1076C46.5617 95.1279 46.46 95.1415 46.3583 95.1415ZM53.995 65.8314C52.755 74.6373 50.8577 83.4025 48.3302 91.9375L72.6155 86.3491C73.6726 86.1053 74.7704 85.8546 75.5564 85.2788C77.0471 84.1815 77.4062 82.0478 77.7789 79.7921C77.9415 78.8234 78.1041 77.8277 78.3684 76.8726C79.7372 71.8804 83.6876 68.4325 88.153 65.2014C83.6334 60.7307 79.3238 55.9688 75.326 51.0307C72.4326 55.6504 68.3873 59.4369 63.5831 62.0313C60.5135 63.6841 57.2204 64.8018 54.0018 65.8449L53.995 65.8314Z" fill="#FF8A00"/>
<path d="M81.0246 73.025C80.6655 73.025 80.3132 72.8828 80.0489 72.6051L75.9697 68.3443C75.387 67.7347 74.7297 67.0505 74.2282 66.2241L66.7204 59.5723C66.158 59.0779 66.1105 58.2175 66.6052 57.6621C67.0998 57.0999 67.9604 57.0525 68.5161 57.547L76.1797 64.3411C76.2949 64.4427 76.383 64.5578 76.4576 64.6865C76.8099 65.3097 77.352 65.8719 77.9212 66.468L82.0004 70.7287C82.5154 71.2706 82.5018 72.1241 81.9597 72.6457C81.6955 72.8963 81.3634 73.025 81.0246 73.025Z" fill="#FF8A00"/>
<path d="M63.9084 79.5482C63.6712 79.5482 63.4273 79.5346 63.1902 79.5075C61.7333 79.3314 60.5204 78.6405 59.8631 77.6042C59.4227 76.9132 59.2126 76.0597 59.2329 75.064C59.3074 71.3791 62.6006 68.1751 66.3004 68.2089C66.7069 68.2089 67.0728 68.3986 67.3168 68.6831C67.4049 68.7169 67.4997 68.7576 67.581 68.8118C69.851 70.2411 70.7725 73.445 69.6477 75.9513C68.6719 78.1121 66.3342 79.5482 63.9084 79.5482ZM65.9141 70.932C63.8677 71.1217 61.984 73.0521 61.9433 75.1114C61.9366 75.5584 62.0044 75.9175 62.1534 76.1478C62.3703 76.4865 62.8785 76.7371 63.5086 76.8116C65.0129 76.9945 66.585 76.141 67.1745 74.8337C67.7572 73.5331 67.2829 71.8261 66.1377 71.0946C66.0564 71.0404 65.9819 70.9862 65.9209 70.9252L65.9141 70.932Z" fill="#FF8A00"/>
<path d="M48.2354 94.7417C47.524 94.7417 46.8938 94.3014 46.677 93.6443C46.5415 93.2243 46.616 92.7705 46.8735 92.4115C50.79 87.1348 55.2758 82.2441 60.1952 77.8818C60.7576 77.3873 61.6113 77.4347 62.106 77.9969C62.6006 78.5591 62.5533 79.4127 61.9909 79.9072C57.5458 83.8495 53.4666 88.2321 49.8549 92.9535C49.882 93.1093 49.882 93.265 49.8549 93.4276C49.7262 94.1456 49.1028 94.6875 48.3439 94.7417C48.3032 94.7417 48.2625 94.7417 48.2287 94.7417H48.2354Z" fill="#FF8A00"/>
</g>
</g>
</svg>
