<svg width="20" height="17" viewBox="0 0 20 17" fill="none" xmlns="http://www.w3.org/2000/svg">
<path id="Vector" d="M19.1246 12.6115C18.371 11.9925 16.5459 11.0892 15.6604 10.7252C14.5072 10.2516 14.4123 10.2129 13.5059 10.7619C12.9013 11.1283 12.4994 11.4556 11.7918 11.3325C11.0843 11.2095 9.54676 10.5159 8.20047 9.42178C6.85417 8.32771 5.95395 7.03789 5.80257 6.463C5.65119 5.88811 6.0593 5.5643 6.50443 5.07026C7.13178 4.3739 7.08433 4.25783 6.54809 3.31774C6.13001 2.58655 4.98967 1.11257 4.22755 0.501319C3.41227 -0.155201 3.41227 -0.0391397 2.88695 0.138821C2.45927 0.285518 2.04897 0.463836 1.66119 0.671542C0.901913 1.08279 0.480515 1.42439 0.18582 1.93777C-0.108874 2.45115 -0.241273 3.6547 1.2806 5.90861C2.80248 8.16252 3.87021 9.31501 6.08018 11.1116C8.29016 12.9083 9.98951 13.8743 12.4738 15.0101C15.5469 16.4133 16.7257 16.1398 17.3574 15.8999C17.989 15.6601 18.4099 15.3196 18.9153 14.7006C19.1707 14.385 19.3899 14.0509 19.5702 13.7025C19.7889 13.2758 19.9313 13.2758 19.1246 12.6115Z" fill="#EF476F"/>
</svg>
