<svg width="322" height="347" viewBox="0 0 322 347" fill="none" xmlns="http://www.w3.org/2000/svg">
<path opacity="0.6" d="M61.1219 152.686C59.4916 136.021 67.0461 119.786 80.8452 110.3L152.088 61.3267C170.801 48.463 196.101 51.1791 211.657 67.7218L256.144 115.03C269.028 128.731 272.274 148.896 264.339 165.949L221.867 257.221C213.932 274.274 196.416 284.778 177.636 283.745L112.795 280.18C90.1216 278.934 71.7499 261.328 69.539 238.728L61.1219 152.686Z" fill="#EF476F"/>
<path d="M94.1669 197.989C94.0016 197.908 93.8529 197.835 93.7037 197.712C92.0309 196.493 91.5863 193.734 92.7345 191.527C105.485 166.978 129.945 151.896 152.224 154.848C160.09 155.895 166.091 159.027 170.037 164.174C172.46 167.345 174.058 171.195 175.171 174.204C180.476 188.596 182.524 204.87 181.101 221.261C180.877 223.768 179.061 225.775 177.061 225.73C175.045 225.677 173.579 223.602 173.795 221.115C175.075 206.291 173.222 191.572 168.432 178.563C167.47 175.98 166.259 173.024 164.503 170.732C161.639 167.019 157.036 164.696 150.809 163.87C131.347 161.287 109.962 174.448 98.8288 195.912C97.7941 197.923 95.8025 198.737 94.1829 197.946L94.1669 197.989Z" fill="#33072A"/>
<path d="M68.2802 179.159C66.5285 178.304 65.741 175.831 66.5014 173.51C73.4135 152.854 89.2601 139.53 103.867 129.224C115.458 121.044 129.29 112.322 143.975 109.679C160.902 106.645 177.897 112.024 190.605 124.444C203.312 136.864 211.258 155.867 212.392 176.576C213.141 190.177 211.011 203.832 208.951 217.043C207.948 223.473 206.914 230.14 206.24 236.58C205.975 239.092 204.142 241.041 202.125 240.937C200.109 240.833 198.691 238.732 198.957 236.219C199.652 229.463 200.717 222.66 201.735 216.087C203.796 202.876 205.739 190.387 205.051 177.973C204.045 159.617 196.99 142.76 185.727 131.75C174.464 120.74 159.391 115.973 144.377 118.657C130.982 121.049 118.001 129.281 107.072 137.004C93.7076 146.457 79.2478 158.496 73.2725 176.313C72.4715 178.689 70.3115 180 68.4535 179.219C68.4039 179.195 68.3544 179.17 68.2883 179.138L68.2802 179.159Z" fill="#33072A"/>
<path d="M41.4814 168.591C41.3492 168.526 41.2334 168.47 41.1092 168.384C39.3958 167.22 38.9021 164.488 39.9841 162.249C66.5971 107.881 109.896 70.9967 152.981 65.99C163.015 64.8248 171.569 65.5034 179.16 68.0525C195.094 73.4419 207.347 87.3756 218.136 99.6893C223.938 106.297 230.505 113.781 234.076 123.853C236.66 131.154 237.463 139.019 237.934 146.471C240.17 181.709 235.493 218.352 224.4 252.442C223.616 254.826 221.464 256.166 219.598 255.406C217.707 254.659 216.837 252.095 217.621 249.71C228.257 216.983 232.759 181.789 230.609 147.978C230.179 141.3 229.49 134.271 227.312 128.124C224.289 119.603 218.504 113.004 212.909 106.624C202.668 94.9302 191.039 81.6782 176.657 76.845C169.899 74.5771 162.16 73.9693 153.022 75.0434C112.41 79.7733 71.4806 114.795 46.192 166.437C45.1743 168.507 43.1504 169.406 41.4978 168.599L41.4814 168.591Z" fill="#33072A"/>
</svg>
