<svg width="176" height="144" viewBox="0 0 176 144" fill="none" xmlns="http://www.w3.org/2000/svg">
<path d="M58.7413 127.345C58.5871 127.402 58.4483 127.453 58.2834 127.478C56.5171 127.844 54.8069 126.661 54.4676 124.809C50.6812 104.217 59.7336 81.5517 76.4851 69.6855C82.402 65.4989 88.1047 63.5316 93.4289 63.8624C96.7029 64.0709 99.7588 65.1335 102.055 66.046C113.02 70.4205 122.716 77.7467 130.097 87.2248C131.222 88.6787 131.002 90.8282 129.611 92.0087C128.204 93.1949 126.142 92.9869 125.023 91.5491C118.343 82.9803 109.573 76.3544 99.6644 72.3978C97.69 71.6181 95.354 70.7925 92.9837 70.645C89.1314 70.4167 84.7971 71.9673 80.1149 75.2832C65.479 85.6469 57.5526 105.45 60.8732 123.444C61.1901 125.125 60.242 126.753 58.7306 127.313L58.7413 127.345Z" fill="#3C6B72"/>
<path d="M31.4284 133.032C29.7936 133.637 27.9942 132.811 27.3315 131.132C21.5338 116.105 25.5875 99.5519 30.3312 85.3334C34.0942 74.0496 39.1148 61.1312 47.8172 50.8961C57.8554 39.1054 72.2279 31.6985 87.2545 30.5774C102.281 29.4563 117.405 34.6652 128.736 44.8749C136.181 51.5779 141.683 60.0432 147.007 68.2328C149.598 72.2189 152.288 76.3481 155.109 80.1411C156.209 81.6224 155.947 83.7513 154.514 84.9112C153.081 86.0711 151.04 85.8196 149.941 84.3383C146.973 80.3657 144.235 76.1463 141.582 72.0755C136.258 63.8859 131.223 56.1469 124.424 50.0319C114.38 40.9823 100.96 36.3654 87.6403 37.3581C74.3205 38.3509 61.5751 44.9216 52.6686 55.3762C44.7205 64.7027 40.0325 76.8505 36.4899 87.4952C32.162 100.517 28.4022 115.558 33.394 128.528C34.0572 130.261 33.247 132.251 31.5772 132.959C31.5309 132.976 31.4847 132.993 31.423 133.016L31.4284 133.032Z" fill="#3C6B72"/>
<path d="M7.70163 143.614C7.57825 143.66 7.47023 143.7 7.34152 143.73C5.57579 144.15 3.84535 143.01 3.44433 141.18C-6.05322 96.5553 4.77874 51.076 31.7131 22.4921C37.9861 15.8359 44.1855 11.0411 50.6801 7.80955C64.3317 1.04719 79.8185 0.996523 93.4787 0.974699C100.817 0.955463 109.126 0.936715 116.703 4.08376C122.192 6.36763 126.751 10.0209 130.872 13.6568C150.362 30.8442 165.838 52.935 175.622 77.5465C176.301 79.2734 175.511 81.274 173.847 81.9981C172.172 82.744 170.27 81.9198 169.591 80.1928C160.189 56.5729 145.332 35.3502 126.627 18.8607C122.929 15.6081 118.874 12.3256 114.251 10.4046C107.839 7.74294 100.517 7.75647 93.4362 7.77012C80.4675 7.78771 65.7546 7.82159 53.4483 13.942C47.6675 16.8195 42.0619 21.1606 36.3556 27.2294C10.973 54.1778 0.812694 97.2505 9.82763 139.644C10.186 141.346 9.25922 143.038 7.71697 143.609L7.70163 143.614Z" fill="#3C6B72"/>
</svg>
