<svg width="108" height="108" viewBox="0 0 108 108" fill="none" xmlns="http://www.w3.org/2000/svg">
<g filter="url(#filter0_d_415_2446)">
<path fill-rule="evenodd" clip-rule="evenodd" d="M34.122 60.4026C35.2419 60.5614 36.3758 60.5614 37.4957 60.4026C38.5877 60.2272 39.6617 59.9374 40.7029 59.537C43.0359 58.5648 45.2695 57.3281 47.3671 55.8472C47.6814 55.6711 47.9216 55.3693 48.0379 55.0046C48.1542 54.6399 48.1377 54.2402 47.9918 53.8885C47.8235 53.5524 47.5472 53.2966 47.2164 53.1704C46.8856 53.0442 46.5238 53.0566 46.2008 53.2052C43.989 54.0544 41.7187 54.7094 39.4117 55.1639C38.0354 55.4726 36.6451 55.7007 35.2466 55.8472H33.164C35.5947 52.3645 37.0553 48.189 37.3708 43.8212C38.2038 34.7106 34.0803 25.5999 24.4173 24.6889C21.3118 24.6688 18.2463 25.4553 15.473 26.9837C12.6997 28.5122 10.2978 30.7388 8.46487 33.4806C6.41753 36.1082 5.19526 39.385 4.97782 42.8291C4.76039 46.2731 5.55928 49.7026 7.25698 52.613C8.33321 54.3647 9.75693 55.8284 11.4221 56.895L13.0048 57.806C9.80988 61.3787 7.39001 65.691 5.92414 70.4243C4.8298 74.0941 4.1992 77.9104 4.04984 81.767C3.86384 87.3926 4.19875 93.0243 5.04947 98.5761C5.05947 98.7821 5.10813 98.9836 5.19239 99.1681C5.27666 99.3526 5.39475 99.5162 5.5393 99.6487C5.68385 99.7811 5.85178 99.8796 6.03263 99.938C6.21349 99.9965 6.4034 100.014 6.59056 99.9883C6.92931 99.9425 7.23911 99.7564 7.45609 99.4682C7.67307 99.1801 7.7807 98.8119 7.7568 98.4395C7.49969 92.9989 7.65293 87.5445 8.21496 82.1314C8.5783 78.6639 9.20524 75.2356 10.0893 71.882C11.2546 67.205 13.2501 62.8246 15.9621 58.9904C17.0867 59.3093 18.2112 59.6282 19.3358 59.8559C19.6396 59.9224 19.9551 59.8541 20.2128 59.6662C20.4706 59.4782 20.6496 59.186 20.7103 58.8538C20.7711 58.5215 20.7087 58.1765 20.5368 57.8946C20.365 57.6127 20.0978 57.4169 19.794 57.3505C11.4638 55.2551 9.96431 51.0186 9.92266 50.8819C8.73863 48.5516 8.2734 45.8658 8.59605 43.2233C8.9187 40.5809 10.012 38.1227 11.7137 36.2138C13.1684 34.0954 15.0559 32.3783 17.2255 31.1998C19.3951 30.0213 21.7866 29.414 24.209 29.4264C31.3314 29.8819 34.1636 36.6693 33.7888 43.4112C33.8309 46.9371 32.8031 50.3787 30.8663 53.1977C28.9294 56.0166 26.1927 58.0538 23.0844 58.9904C22.742 59.0574 22.4356 59.2639 22.2269 59.5682C22.0182 59.8725 21.9228 60.2521 21.9599 60.6303C22.0211 61.0016 22.2115 61.3324 22.4912 61.5533C22.7708 61.7741 23.1178 61.8679 23.4593 61.8147C25.7127 61.4608 27.8476 60.4893 29.6653 58.9904C31.0763 59.7071 32.5793 60.1833 34.122 60.4026Z" fill="#EF476F"/>
<path fill-rule="evenodd" clip-rule="evenodd" d="M48.0751 62.1799C46.3748 63.9398 44.4869 65.4692 42.4522 66.7353C40.4387 67.9535 38.3175 68.9456 36.1212 69.6962C34.4312 70.1512 32.763 70.6985 31.1231 71.3361C29.9615 71.8039 28.9782 72.6867 28.3324 73.8416C27.3944 76.3513 26.9954 79.0629 27.1662 81.7678C27.1662 87.462 28.8739 94.4772 29.1238 98.0759C29.129 98.2654 29.1691 98.4518 29.2416 98.624C29.3141 98.7962 29.4176 98.9507 29.5459 99.0782C29.6741 99.2057 29.8246 99.3037 29.9882 99.3663C30.1518 99.4289 30.3253 99.4548 30.4983 99.4425C30.6679 99.4366 30.8347 99.3942 30.9893 99.3177C31.1439 99.2413 31.2833 99.1322 31.3993 98.9968C31.5153 98.8615 31.6059 98.7024 31.6657 98.5287C31.7255 98.3551 31.7534 98.1702 31.7478 97.9848C31.7478 94.8871 31.2897 89.193 31.2897 83.9544C31.2897 72.1561 33.8304 75.4815 37.6623 73.8416C39.9514 72.6596 42.1398 71.2571 44.2015 69.6507C46.3 68.0192 48.2031 66.1062 49.8661 63.9565C49.9823 63.8412 50.0752 63.7006 50.1388 63.5437C50.2024 63.3868 50.2352 63.2171 50.2352 63.0455C50.2352 62.8738 50.2024 62.7041 50.1388 62.5472C50.0752 62.3903 49.9823 62.2497 49.8661 62.1344C49.7536 61.9936 49.6142 61.8816 49.4578 61.8063C49.3014 61.731 49.1317 61.6942 48.9608 61.6986C48.79 61.7029 48.6221 61.7483 48.469 61.8315C48.3159 61.9147 48.1815 62.0336 48.0751 62.1799Z" fill="#EF476F"/>
<path fill-rule="evenodd" clip-rule="evenodd" d="M90.0178 55.0287C88.0379 55.2566 86.0416 55.2566 84.0617 55.0287C78.1472 54.1176 70.1085 48.469 72.9408 39.2217C73.8957 36.5213 75.4252 34.1086 77.4026 32.1836C79.3801 30.2586 81.7485 28.8767 84.3116 28.1523C87.0177 27.2555 89.9174 27.3486 92.5708 28.4173C95.2242 29.486 97.4865 31.4721 99.0144 34.0742C99.7733 35.4052 100.283 36.8879 100.514 38.4361C100.744 39.9842 100.691 41.5671 100.358 43.0928C100.025 44.6184 99.4178 46.0565 98.5723 47.3235C97.7267 48.5905 96.6594 49.6612 95.4324 50.4734C95.1486 50.6937 94.9548 51.0268 94.8926 51.4013C94.8303 51.7759 94.9045 52.1622 95.0992 52.4777C95.1911 52.6416 95.3136 52.7825 95.4586 52.8911C95.6037 52.9998 95.7681 53.0737 95.941 53.1081C96.114 53.1425 96.2917 53.1366 96.4624 53.0907C96.6332 53.0449 96.7931 52.9602 96.9319 52.8421C98.5304 51.8624 99.9349 50.545 101.064 48.9665C102.193 47.388 103.024 45.5798 103.508 43.6471C103.992 41.7144 104.121 39.6956 103.886 37.7081C103.651 35.7206 103.057 33.8041 102.138 32.0699C100.282 28.5552 97.4238 25.802 94.0017 24.2309C90.5795 22.6598 86.7812 22.3571 83.187 23.3692C79.9242 24.3016 76.9217 26.0984 74.4445 28.6011C71.9674 31.1037 70.092 34.235 68.9839 37.7185C68.2881 40.0481 68.1642 42.5368 68.6248 44.9353C69.0853 47.3337 70.114 49.5577 71.608 51.3844C70.9205 51.1209 70.2522 50.8012 69.6087 50.4278C67.4331 48.844 65.6455 46.7013 64.4023 44.187C63.3822 42.1791 62.0903 40.3515 60.5704 38.7662C59.3501 37.4261 57.8384 36.4471 56.1773 35.9212C54.5162 35.3953 52.7601 35.3397 51.0739 35.7597C49.6922 36.3985 48.4775 37.4034 47.5395 38.6837C46.6015 39.9641 45.9697 41.4796 45.7009 43.0937C45.4539 44.124 45.4539 45.2066 45.7009 46.2369C46.1405 47.4951 46.641 48.7268 47.2004 49.9267C47.7602 51.1067 48.3862 52.2477 49.0747 53.3432C50.7863 56.2168 52.7992 58.8616 55.0724 61.2239C57.3701 63.5935 59.9476 65.6159 62.7363 67.2369C64.9683 68.2637 67.2484 69.1609 69.567 69.9246C70.2596 70.1962 70.9174 70.5636 71.5247 71.0178C71.9551 72.6999 72.2341 74.4239 72.3577 76.1654C72.6695 78.8845 72.7948 81.6253 72.7325 84.3649C72.6393 88.556 72.3334 92.7381 71.8162 96.8921C71.7665 97.2303 71.8417 97.5764 72.0253 97.854C72.2088 98.1317 72.4857 98.3182 72.795 98.3725C73.1043 98.4269 73.4207 98.3447 73.6746 98.1439C73.9284 97.9432 74.099 97.6403 74.1487 97.302C74.7735 93.1111 75.3982 88.8291 75.6481 84.5471C75.8353 81.6505 75.8353 78.7431 75.6481 75.8465C75.5991 73.9685 75.4321 72.0964 75.1483 70.2434C74.9726 69.4351 74.5981 68.6947 74.0654 68.1024C73.1495 67.2474 72.1254 66.5416 71.0248 66.007C68.9423 64.9593 66.4849 64.276 64.6939 63.1827C62.2736 61.6702 60.0349 59.834 58.0297 57.7163C56.0279 55.5811 54.2278 53.2308 52.6567 50.7011C52.0736 49.699 51.5321 48.6968 51.0323 47.6491C49.2829 44.187 49.6994 44.3692 49.9493 43.4126C50.0559 42.6909 50.3196 42.0079 50.7183 41.4212C51.117 40.8344 51.639 40.3613 52.2402 40.0417C53.6563 39.4495 55.5306 40.0417 58.1963 42.0916C60.862 44.1415 62.7779 50.3823 67.9843 53.3888C70.4439 54.757 73.1822 55.4156 75.9397 55.302C76.3418 55.5869 76.7591 55.8455 77.1892 56.0764C79.2394 57.0923 81.4407 57.6942 83.6868 57.853C85.8432 57.9731 88.0051 57.8664 90.1427 57.5341C90.2948 57.5175 90.4422 57.4672 90.5759 57.3862C90.7095 57.3053 90.8267 57.1953 90.9203 57.0632C91.0138 56.931 91.0818 56.7794 91.1199 56.6176C91.1581 56.4558 91.1658 56.2871 91.1424 56.122C91.121 55.8159 90.9918 55.5308 90.782 55.3268C90.5722 55.1229 90.2982 55.016 90.0178 55.0287Z" fill="#EF476F"/>
<path fill-rule="evenodd" clip-rule="evenodd" d="M93.7664 53.1628C93.6612 53.0176 93.5282 52.8992 93.3768 52.8158C93.2254 52.7325 93.0592 52.6863 92.8898 52.6803C92.7204 52.6744 92.5518 52.709 92.3958 52.7815C92.2399 52.8541 92.1003 52.963 91.9867 53.1006C91.8732 53.2383 91.7884 53.4013 91.7383 53.5784C91.6883 53.7555 91.6741 53.9424 91.6968 54.1261C91.7195 54.3098 91.7786 54.4859 91.8699 54.6421C91.9611 54.7983 92.0824 54.9308 92.2253 55.0305C95.6873 59.3156 97.8675 64.6567 98.473 70.3364C99.0158 73.7398 99.3498 77.1792 99.4727 80.6314C99.6272 85.9798 99.502 91.3334 99.0978 96.6661C99.0744 96.8518 99.0851 97.0407 99.1292 97.2218C99.1733 97.403 99.2499 97.5727 99.3546 97.7211C99.4593 97.8695 99.5899 97.9936 99.7389 98.0862C99.8879 98.1788 100.052 98.2381 100.222 98.2605C100.564 98.3137 100.911 98.2199 101.191 97.9991C101.47 97.7782 101.661 97.4474 101.722 97.0761C102.79 91.6634 103.445 86.1629 103.679 80.6314C103.817 76.8383 103.509 73.0417 102.763 69.3342C101.52 62.9874 98.3488 57.2877 93.7664 53.1628Z" fill="#EF476F"/>
<path fill-rule="evenodd" clip-rule="evenodd" d="M33.7887 16.4006C33.9906 17.1691 34.2555 17.9162 34.5801 18.6327C34.8718 19.3392 35.2057 20.024 35.5797 20.6826C36.5382 22.2785 37.5959 23.8006 38.7452 25.2379C38.902 25.525 39.1526 25.7364 39.4463 25.8294C39.74 25.9224 40.0551 25.8901 40.3279 25.739C40.5983 25.5757 40.7985 25.3016 40.8844 24.9771C40.9703 24.6526 40.9349 24.304 40.7861 24.008C40.2446 22.2314 39.9531 20.5004 39.4116 18.7693C39.177 18.0365 38.8987 17.3213 38.5786 16.6283C38.2866 15.9366 37.9527 15.267 37.5789 14.624C36.7043 13.0296 35.7463 11.5264 34.7883 10.0687C34.6333 9.72885 34.3631 9.4686 34.0353 9.34332C33.7075 9.21804 33.348 9.23762 33.0332 9.3979C32.7184 9.55817 32.4732 9.84649 32.3498 10.2015C32.2264 10.5565 32.2346 10.9501 32.3725 11.2986C32.8724 12.9385 33.2056 14.6696 33.7887 16.4006Z" fill="#EF476F"/>
<path fill-rule="evenodd" clip-rule="evenodd" d="M52.6566 17.4932C52.6564 17.8237 52.7736 18.1414 52.9834 18.3793C53.1932 18.6173 53.4792 18.7568 53.7812 18.7687C53.9358 18.7812 54.091 18.7587 54.2372 18.7025C54.3834 18.6464 54.5174 18.5578 54.6308 18.4423C54.7443 18.3268 54.8346 18.1869 54.8963 18.0314C54.9579 17.8759 54.9895 17.7082 54.9891 17.5387C55.364 15.6255 55.8221 13.8489 56.0304 11.8901C56.073 11.086 56.073 10.2799 56.0304 9.4758C56.0707 8.67163 56.0707 7.86565 56.0304 7.06148C56.0304 5.1938 55.5306 3.37167 55.2807 1.45844C55.2813 1.08711 55.1524 0.729503 54.9202 0.458605C54.688 0.187708 54.37 0.0239423 54.0311 0.000734965C53.8581 -0.00537288 53.6857 0.0266391 53.5242 0.0948665C53.3627 0.163094 53.2154 0.266143 53.0911 0.397887C52.9667 0.52963 52.8679 0.687377 52.8004 0.861745C52.7329 1.03611 52.6982 1.22354 52.6983 1.41288C52.4067 3.32612 52.0735 5.14825 51.9069 7.06148C51.8657 7.86562 51.8657 8.67166 51.9069 9.4758C51.8661 10.28 51.8661 11.086 51.9069 11.8901C51.9902 13.8034 52.4067 15.5799 52.6566 17.4932Z" fill="#EF476F"/>
<path fill-rule="evenodd" clip-rule="evenodd" d="M67.8177 23.7788C69.0438 22.8154 70.1996 21.7493 71.2747 20.5901C71.6953 20.0828 72.0718 19.5338 72.3993 18.9502C72.7325 18.4035 73.0241 17.8113 73.3156 17.2191C73.9404 15.7614 74.4402 14.3493 75.0233 12.9371C75.2391 12.6364 75.342 12.2569 75.3111 11.8761C75.2801 11.4953 75.1176 11.1417 74.8567 10.8873C74.5682 10.6742 74.215 10.5931 73.8725 10.6612C73.5301 10.7293 73.2256 10.9412 73.0241 11.2517C71.9411 12.3905 70.9415 13.4382 69.9419 14.6682C69.567 15.1692 69.1922 15.6703 68.859 16.217C68.454 16.7756 68.0918 17.3698 67.776 17.9935C67.1513 19.4057 66.7348 20.8178 66.0683 22.1844C65.9615 22.3091 65.8787 22.4559 65.8247 22.6162C65.7708 22.7765 65.7468 22.947 65.7543 23.1176C65.7617 23.2883 65.8004 23.4555 65.8681 23.6095C65.9358 23.7634 66.031 23.9009 66.1482 24.0139C66.2654 24.1268 66.4022 24.2128 66.5504 24.2668C66.6985 24.3208 66.8551 24.3417 67.0108 24.3283C67.1665 24.3149 67.3182 24.2674 67.4568 24.1887C67.5954 24.1099 67.7181 24.0015 67.8177 23.8699V23.7788Z" fill="#EF476F"/>
</g>
<defs>
<filter id="filter0_d_415_2446" x="0" y="0" width="108" height="108" filterUnits="userSpaceOnUse" color-interpolation-filters="sRGB">
<feFlood flood-opacity="0" result="BackgroundImageFix"/>
<feColorMatrix in="SourceAlpha" type="matrix" values="0 0 0 0 0 0 0 0 0 0 0 0 0 0 0 0 0 0 127 0" result="hardAlpha"/>
<feOffset dy="4"/>
<feGaussianBlur stdDeviation="2"/>
<feComposite in2="hardAlpha" operator="out"/>
<feColorMatrix type="matrix" values="0 0 0 0 0 0 0 0 0 0 0 0 0 0 0 0 0 0 0.25 0"/>
<feBlend mode="normal" in2="BackgroundImageFix" result="effect1_dropShadow_415_2446"/>
<feBlend mode="normal" in="SourceGraphic" in2="effect1_dropShadow_415_2446" result="shape"/>
</filter>
</defs>
</svg>
