<svg width="100" height="100" viewBox="0 0 100 100" fill="none" xmlns="http://www.w3.org/2000/svg">
<g clip-path="url(#clip0_415_2442)">
<path fill-rule="evenodd" clip-rule="evenodd" d="M83.75 8.7916C74.9583 11.2499 65.9167 13.3749 56.7917 15.6249L55.375 15.9583C55.5713 15.5012 55.7247 15.027 55.8333 14.5416C56.1208 13.139 55.9605 11.6815 55.375 10.3749C54.5399 8.52496 53.0583 7.04338 51.2083 6.20827C49.5087 5.50781 47.6483 5.29149 45.8333 5.58327C44.2193 5.89433 42.708 6.6017 41.4352 7.64176C40.1624 8.68181 39.1681 10.0219 38.5417 11.5416C37.9024 12.8931 37.6723 14.402 37.8796 15.8826C38.0868 17.3632 38.7225 18.7509 39.7083 19.8749L38.75 20.1249C28.6667 22.7083 18.7083 25.5833 8.87499 28.4583C8.57854 28.5279 8.32108 28.7107 8.15759 28.9676C7.9941 29.2246 7.93754 29.5352 7.99999 29.8333C8.03425 29.9845 8.09831 30.1273 8.1884 30.2535C8.2785 30.3796 8.39284 30.4865 8.52473 30.568C8.65663 30.6495 8.80343 30.7038 8.95658 30.7279C9.10972 30.752 9.26613 30.7453 9.41666 30.7083L17.75 29.0833C17.5153 29.8023 17.3479 30.5416 17.25 31.2916C17.1867 31.7338 17.1867 32.1827 17.25 32.6249C17.25 32.6249 17.25 37.2499 19.7083 37.2499C22.1667 37.2499 21.7083 32.3333 21.7083 32.3333V31.0833C21.4532 30.2187 21.1471 29.37 20.7917 28.5416C25.625 27.3333 30.8333 26.2916 36.0417 24.9999C39.5417 24.2499 43 23.4166 46.5 22.5416C46.0833 29.8749 45.8333 37.0833 45.8333 44.3333C45.8333 49.0833 45.8333 53.8333 46.0833 58.5833C46.0833 65.3749 46.4583 72.1249 46.3333 78.8749H45.8333C43.5417 78.8749 41.3333 79.3749 39.0833 79.6666C36.8333 79.9583 34.625 80.3749 32.4167 80.8333C32.2614 80.8469 32.1109 80.8939 31.9754 80.971C31.8399 81.0481 31.7227 81.1536 31.6317 81.2802C31.5408 81.4067 31.4782 81.5515 31.4482 81.7045C31.4183 81.8574 31.4218 82.0151 31.4583 82.1666C31.5094 82.4698 31.6782 82.7406 31.9279 82.92C32.1775 83.0995 32.488 83.1731 32.7917 83.1249C35 82.8333 37.2083 82.5833 39.375 82.4166C41.5417 82.2499 43.7917 82.1666 46 82.1249H50.1667C51.5833 82.1249 53 82.1249 54.3333 82.4166C55.7309 82.5011 57.1222 82.668 58.5 82.9166C59.21 83.0056 59.8922 83.2473 60.5 83.6249C60.8796 83.8555 61.1716 84.2059 61.3301 84.6209C61.4885 85.0358 61.5043 85.4917 61.375 85.9166C61.2821 86.4409 61.0679 86.9362 60.7496 87.363C60.4313 87.7898 60.0177 88.1364 59.5417 88.3749C58.6335 88.7637 57.6824 89.0434 56.7083 89.2083C55 89.4999 53.25 89.5833 51.5833 89.7499C48.8333 90.0416 46.0417 90.4166 43.25 90.6666C41.4167 90.6666 39.5833 90.9583 37.7917 90.9999C36.7238 91.0824 35.6512 91.0824 34.5833 90.9999C34.1457 90.8914 33.7251 90.7231 33.3333 90.4999C32.9139 90.2927 32.5552 89.9804 32.2923 89.5934C32.0295 89.2064 31.8713 88.7579 31.8333 88.2916C31.7987 87.7839 31.8823 87.2751 32.0775 86.8052C32.2727 86.3353 32.5742 85.917 32.9583 85.5833C33.0793 85.4632 33.1753 85.3204 33.2408 85.1631C33.3063 85.0057 33.34 84.837 33.34 84.6666C33.34 84.4962 33.3063 84.3275 33.2408 84.1701C33.1753 84.0128 33.0793 83.87 32.9583 83.7499C32.8489 83.6131 32.7137 83.4991 32.5602 83.4146C32.4067 83.33 32.2381 83.2765 32.064 83.2572C31.8899 83.2378 31.7136 83.253 31.5454 83.3018C31.3771 83.3506 31.2201 83.4321 31.0833 83.5416C30.3553 84.1193 29.7673 84.8541 29.3633 85.6911C28.9592 86.5281 28.7496 87.4455 28.75 88.3749C28.7545 89.3538 29.0144 90.3146 29.504 91.1623C29.9936 92.01 30.696 92.7152 31.5417 93.2083C32.3693 93.6776 33.2712 94.0017 34.2083 94.1666C35.4335 94.3772 36.6736 94.4887 37.9167 94.4999H43.625C46.4583 94.4999 49.25 94.2083 51.9583 94.0833C53.75 94.0833 55.6667 94.0833 57.5 93.6249C58.9375 93.4372 60.3407 93.0443 61.6667 92.4583C62.7498 91.908 63.6901 91.1133 64.4133 90.1371C65.1364 89.1608 65.6226 88.0298 65.8333 86.8333C66.1107 85.543 65.9835 84.1985 65.4691 82.9831C64.9546 81.7677 64.0778 80.7406 62.9583 80.0416C62.1008 79.5149 61.155 79.1479 60.1667 78.9583C58.2915 78.6757 56.396 78.5502 54.5 78.5833H50.875H48.875C49.625 71.1249 50.125 63.6249 50.1667 56.0833C50.1667 51.3333 50.1667 46.5416 49.9167 41.7916C49.6667 35.1666 49.125 28.5833 48.875 21.9583L50.8333 21.4583H51.125H51.375L58.4583 19.5416C64.3333 17.8749 70.125 16.0833 75.8333 14.2083C75.7916 14.6517 75.7916 15.0981 75.8333 15.5416C75.8618 16.0464 75.9315 16.5481 76.0417 17.0416C76.9167 21.9999 77.6667 21.7916 78.25 21.7499C78.8333 21.7083 79.625 21.3749 80.2083 16.8749C80.2499 16.3758 80.2499 15.8741 80.2083 15.3749C80.2698 14.8768 80.2698 14.373 80.2083 13.8749C80.1304 13.5499 80.033 13.2299 79.9167 12.9166L84.5417 11.3749C84.7058 11.323 84.8581 11.2391 84.9899 11.1283C85.1216 11.0175 85.2303 10.8818 85.3096 10.7289C85.3889 10.5761 85.4374 10.4091 85.4521 10.2376C85.4669 10.066 85.4478 9.89325 85.3958 9.7291C85.3438 9.56495 85.26 9.41264 85.1492 9.28088C85.0383 9.14911 84.9026 9.04047 84.7498 8.96115C84.597 8.88184 84.43 8.8334 84.2585 8.81861C84.0869 8.80381 83.9141 8.82295 83.75 8.87494V8.7916ZM52.4167 14.7083C52.2809 15.4595 52.0426 16.1886 51.7083 16.8749L43.6667 18.8333C43.3199 18.6741 43.0083 18.4475 42.75 18.1666C42.1946 17.4881 41.8674 16.6516 41.8151 15.7763C41.7627 14.901 41.9878 14.0315 42.4583 13.2916C42.8432 12.4485 43.4208 11.7075 44.1446 11.1286C44.8683 10.5496 45.7179 10.1487 46.625 9.95827C47.7099 9.72874 48.8379 9.81551 49.875 10.2083C50.8705 10.5647 51.7104 11.2573 52.25 12.1666C52.5695 12.9757 52.6278 13.8644 52.4167 14.7083Z" fill="#EF476F"/>
<path fill-rule="evenodd" clip-rule="evenodd" d="M98.3824 29.3463C89.6107 28.8846 80.8207 28.8846 72.049 29.3463C66.9897 29.4797 61.96 30.1643 57.049 31.388C56.8955 31.4036 56.7466 31.4494 56.6109 31.523C56.4752 31.5965 56.3554 31.6962 56.2585 31.8163C56.1616 31.9365 56.0895 32.0746 56.0464 32.2228C56.0033 32.371 55.99 32.5263 56.0074 32.6797C56.0598 32.9687 56.2063 33.2324 56.424 33.4297C56.3066 33.5557 56.2334 33.7166 56.2157 33.888C56.0137 36.0815 56.3835 38.29 57.2889 40.2981C58.1944 42.3062 59.6047 44.0454 61.3824 45.3463C63.8287 47.3175 66.6709 48.7386 69.7157 49.513C72.7955 50.3421 75.9993 50.6103 79.174 50.3047C84.0227 49.649 88.4664 47.2494 91.674 43.5547C94.6247 40.2434 96.7015 36.2474 97.7157 31.9297H97.9657C98.3138 31.9902 98.6716 31.9101 98.9607 31.707C99.2497 31.5038 99.4463 31.1943 99.5074 30.8463C99.5348 30.5022 99.4357 30.1598 99.2285 29.8836C99.0214 29.6074 98.7205 29.4163 98.3824 29.3463ZM89.2157 41.388C86.462 44.1856 82.7948 45.9009 78.8824 46.2213C76.2039 46.468 73.5032 46.2852 70.8824 45.6797C68.2472 45.1878 65.73 44.1979 63.4657 42.763C61.9695 41.8846 60.7287 40.6305 59.8663 39.125C59.0039 37.6194 58.5498 35.9147 58.549 34.1797C58.549 34.1797 58.549 34.1797 58.549 33.8463C63.549 33.5963 68.7157 33.3463 73.924 32.9713L82.0074 32.263C86.3017 31.8816 90.6157 31.7702 94.924 31.9297C93.8088 35.4953 91.8508 38.7396 89.2157 41.388Z" fill="#EF476F"/>
<path fill-rule="evenodd" clip-rule="evenodd" d="M39.2699 36.4205C30.6985 37.9417 22.2161 39.899 13.8577 42.2844C9.00605 43.5358 4.31015 45.2964 -0.14678 47.535C-0.29137 47.5838 -0.424517 47.6599 -0.538509 47.7589C-0.652501 47.8579 -0.745073 47.9779 -0.810861 48.1119C-0.87665 48.2458 -0.914349 48.3912 -0.921774 48.5394C-0.929198 48.6877 -0.9062 48.836 -0.854113 48.9756C-0.736814 49.2344 -0.534658 49.4485 -0.279051 49.5846C-0.363342 49.7287 -0.396816 49.8955 -0.374392 50.0598C-0.0634247 52.1573 0.802736 54.1414 2.13967 55.8188C3.4766 57.4961 5.23869 58.8095 7.25419 59.6309C10.0696 60.9306 13.1402 61.6274 16.257 61.6739C19.4203 61.764 22.5739 61.3015 25.5671 60.3085C30.0949 58.6153 33.8298 55.3804 36.0731 51.209C38.1569 47.4536 39.2394 43.2521 39.2224 38.9862L39.4636 38.9305C39.8135 38.9096 40.1403 38.755 40.3724 38.5005C40.6045 38.2461 40.7229 37.9127 40.7015 37.5735C40.6486 37.2454 40.474 36.9471 40.2104 36.7348C39.9468 36.5224 39.6123 36.4107 39.2699 36.4205ZM33.2011 49.7291C31.1888 52.9601 28.0456 55.3816 24.3439 56.5527C21.816 57.38 19.1675 57.8103 16.4988 57.8273C13.8423 57.9539 11.1849 57.5881 8.66886 56.7497C7.02236 56.261 5.53575 55.3638 4.3563 54.1472C3.17685 52.9305 2.34549 51.4365 1.94459 49.8132C1.94459 49.8132 1.94459 49.8132 1.86772 49.5013C6.63517 48.1539 11.5635 46.7695 16.5031 45.2588L24.1403 42.796C28.1965 41.4828 32.334 40.418 36.5283 39.6078C36.2745 43.1925 35.1331 46.6643 33.2011 49.7291Z" fill="#EF476F"/>
</g>
<defs>
<clipPath id="clip0_415_2442">
<rect width="100" height="100" fill="white"/>
</clipPath>
</defs>
</svg>
