<svg width="248" height="212" viewBox="0 0 248 212" fill="none" xmlns="http://www.w3.org/2000/svg">
<path opacity="0.5" d="M87.7934 27.023C106.108 19.5969 126.595 19.5969 144.909 27.023L172.386 38.1642C194.395 47.0883 210.967 65.788 217.181 88.7103L218.624 94.0349C225.556 119.607 218.67 146.944 200.45 166.181L189.318 177.935C174.965 193.089 155.011 201.673 134.139 201.673H98.5639C77.6917 201.673 57.738 193.089 43.3851 177.935L32.2524 166.181C14.0326 146.944 7.14631 119.607 14.0785 94.0349L15.5219 88.7102C21.7356 65.788 38.3075 47.0884 60.3166 38.1642L87.7934 27.023Z" fill="#7DF072"/>
<path d="M81.6262 181.777C77.0306 181.777 72.3236 181.185 67.6553 179.738C60.0929 177.285 53.0347 172.148 47.7702 165.273C42.1081 157.886 39.0105 149.245 38.8069 140.289C38.6905 127.208 44.2556 115.195 52.3221 104.671C51.3526 104.014 50.417 103.328 49.5202 102.613C43.5139 97.8189 39.3207 91.8505 37.052 84.8767C34.7494 77.7983 33.2805 65.8615 39.3595 49.2058C49.0597 22.6474 70.8499 3.33579 94.8749 0L95.0978 2.30716C71.7467 5.54416 50.5673 24.3211 41.1386 50.1357C36.6012 62.5606 35.7916 74.5962 38.8602 84.0283C40.2127 88.1893 43.9987 96.5752 53.6601 102.974C65.7695 87.9161 82.8187 76.0607 95.0687 68.7266C112.782 58.6553 127.5 56.1331 140.074 61.009C143.56 62.2003 145.741 64.3448 146.512 67.3783C147.448 71.0512 146.153 75.6597 142.862 80.3496C125.163 105.932 95.0397 118.485 67.9122 111.575C62.9337 110.308 58.2314 108.338 54.0624 105.786C46.1171 116.009 40.6344 127.649 40.7459 140.249C41.0659 154.429 50.5867 171.787 68.1546 177.494C88.8153 183.887 114.043 173.746 132.449 158.764C126.976 156.027 122.482 151.011 123.374 144.572C124.019 139.911 127.373 136.169 133.346 133.443C137.461 131.566 143.763 131.276 147.346 134.42C149.086 135.948 149.939 138.122 149.818 140.696C149.668 143.823 147.952 146.298 146.119 148.507C143.279 151.813 140.118 154.998 136.72 157.997C136.739 157.997 136.754 158.008 136.773 158.014C159.998 164.697 186.054 153.691 201.126 131.589C199.856 131.799 198.576 131.938 197.296 132.002C191.149 132.31 186.471 129.8 184.789 125.272C182.719 119.699 185.885 113.184 190.083 109.628C193.995 106.315 199.924 105.385 204.175 107.419C207.03 108.785 208.901 111.365 209.449 114.678C210.191 119.153 208.247 123.482 206.478 126.748C206.23 127.202 205.978 127.655 205.726 128.103C212.494 125.923 219.077 121.553 225.388 115.027C232.781 107.385 239.636 97.0285 245.763 84.2433L247.445 85.3998C241.206 98.4175 234.216 108.977 226.653 116.788C219.426 124.261 211.825 129.015 203.986 130.991C188.701 155.126 160.968 167.365 136.322 160.269C135.779 160.112 135.236 159.932 134.698 159.734C127.097 166.11 118.459 171.538 109.704 175.356C102.267 178.593 92.2523 181.777 81.631 181.777H81.6262ZM139.876 134.35C138.005 134.35 135.983 134.733 134.039 135.617C128.755 138.023 125.813 141.161 125.289 144.95C124.727 149.024 127.378 154.318 134.354 157.177C138.189 153.9 141.693 150.424 144.757 146.856C146.308 144.985 147.768 142.916 147.884 140.562C147.971 138.761 147.419 137.366 146.202 136.297C144.859 135.117 142.523 134.35 139.876 134.35ZM199.133 108.652C196.341 108.652 193.408 109.657 191.198 111.522C187.644 114.527 184.91 119.891 186.559 124.325C188.551 129.689 195.216 129.776 197.214 129.677C199.114 129.584 201 129.317 202.876 128.887C203.559 127.777 204.219 126.644 204.849 125.482C206.424 122.582 208.15 118.787 207.544 115.131C207.011 111.906 205.023 110.331 203.453 109.576C202.149 108.954 200.66 108.652 199.133 108.652ZM55.4198 104.078C58.9634 106.176 63.2148 108.001 68.3145 109.297C73.1525 110.529 78.0923 111.127 83.0369 111.127C105.103 111.127 127.277 99.2311 141.374 78.856C144.19 74.8461 145.387 70.9117 144.655 68.0583C144.088 65.8267 142.353 64.2053 139.507 63.2348C127.393 58.5391 113.146 61.0206 95.9171 70.8246C83.9482 77.9901 67.2966 89.5317 55.4246 104.084L55.4198 104.078Z" fill="#FF8A00"/>
</svg>
