<svg width="1440" height="500" viewBox="0 0 1440 500" fill="none" xmlns="http://www.w3.org/2000/svg">
<g clip-path="url(#clip0_430_2402)">
<rect width="1440" height="500" rx="20" fill="white"/>
<path d="M1440 0H0V500H1440V0Z" fill="#FFE6E6"/>
<mask id="mask0_430_2402" style="mask-type:luminance" maskUnits="userSpaceOnUse" x="0" y="0" width="1440" height="500">
<path d="M1440 0H0V500H1440V0Z" fill="white"/>
</mask>
<g mask="url(#mask0_430_2402)">
<path d="M860.509 648.792C834.687 645.667 808.438 640.606 785.978 626.972C763.518 613.338 745.263 589.643 743.684 562.614C741.697 528.59 765.185 499.125 773.813 466.244C784.424 425.804 771.994 382.802 775.015 340.997C777.956 300.286 796.64 260.523 827.416 235.244C858.193 209.965 900.977 200.393 938.302 212.849C968.219 222.833 993.559 245.732 1024.38 252.07C1059.66 259.326 1095.31 243.647 1127.32 226.577C1159.34 209.507 1192.14 190.182 1228.1 189.515C1264.99 188.831 1301.55 209.818 1320.69 242.661C1351.19 294.983 1335.98 364.127 1358.54 420.649C1366.4 440.345 1378.6 457.804 1387.9 476.807C1397.2 495.809 1403.64 517.689 1398.73 538.396C1392.76 563.58 1371.46 581.527 1349.67 594.093C1295.1 625.566 1232.06 634.505 1170.68 638.283C1106.15 642.255 1042.01 650.98 977.273 653.057C938.322 654.306 899.247 653.481 860.509 648.792Z" fill="#7DD5FF"/>
<path d="M931.14 682C896.76 682 865.303 680.229 835.727 676.648C808.982 673.412 778.119 667.965 751.994 652.107C724.098 635.173 705.75 607.21 704.109 579.127C702.697 554.967 712.759 532.532 722.489 510.837C728.259 497.971 734.225 484.668 737.791 471.079C744.813 444.317 742.668 415.886 740.594 388.393C739.184 369.706 737.725 350.384 739.09 331.513C742.485 284.521 764.547 240.01 798.103 212.45C833.864 183.077 881.777 173.407 923.146 187.212C937.99 192.165 951.993 200.034 965.533 207.644C982.506 217.182 1000.06 227.045 1019.1 230.96C1057.73 238.907 1096.75 222.037 1133.16 202.625C1136.1 201.054 1139.06 199.464 1142.02 197.872C1175 180.13 1209.11 161.783 1246.26 161.095C1288.06 160.34 1329.1 183.875 1350.8 221.104C1369.63 253.409 1373.04 291.993 1376.34 329.306C1379.05 359.981 1381.85 391.7 1393.15 420.008C1398.36 433.061 1405.43 445.481 1412.27 457.491C1416.9 465.624 1421.69 474.034 1425.89 482.607C1438.73 508.848 1442.84 532.31 1438.08 552.341C1432.41 576.251 1413.76 597.472 1382.66 615.415C1319.08 652.086 1245.67 661.02 1182.25 664.923C1152.25 666.77 1121.81 669.585 1092.38 672.307C1051.13 676.121 1008.48 680.065 966.284 681.42C954.227 681.806 942.522 682 931.14 682ZM884.463 183.824C854.593 183.824 824.277 194.52 799.768 214.651C766.794 241.735 745.114 285.5 741.773 331.723C740.425 350.378 741.875 369.591 743.277 388.172C745.37 415.905 747.535 444.584 740.388 471.818C736.762 485.637 730.746 499.051 724.929 512.023C714.899 534.385 705.426 555.507 706.796 578.956C708.383 606.114 726.221 633.215 753.349 649.682C779.048 665.282 809.57 670.658 836.038 673.862C875.275 678.611 917.853 680.166 966.203 678.614C1008.33 677.264 1050.93 673.322 1092.14 669.512C1121.6 666.788 1152.05 663.971 1182.1 662.122C1245.21 658.237 1318.25 649.357 1381.35 612.959C1411.78 595.409 1429.99 574.787 1435.47 551.665C1440.07 532.309 1436.03 509.502 1423.49 483.878C1419.33 475.385 1414.56 467.015 1409.95 458.92C1403.07 446.825 1395.95 434.319 1390.66 421.082C1379.21 392.38 1376.39 360.445 1373.66 329.561C1370.39 292.564 1367.01 254.309 1348.5 222.558C1327.29 186.166 1287.23 163.123 1246.31 163.898C1209.79 164.574 1175.96 182.768 1143.25 200.363C1140.29 201.957 1137.33 203.548 1134.38 205.121C1097.54 224.763 1058.02 241.82 1018.58 233.71C999.137 229.713 981.405 219.748 964.257 210.111C950.823 202.562 936.932 194.756 922.325 189.881C910.121 185.81 897.332 183.824 884.463 183.824Z" fill="#EF476F"/>
</g>
<mask id="mask1_430_2402" style="mask-type:luminance" maskUnits="userSpaceOnUse" x="0" y="0" width="1440" height="500">
<path d="M1440 0H0V500H1440V0Z" fill="white"/>
</mask>
<g mask="url(#mask1_430_2402)">
<path d="M821.372 509.602L816.458 261.885C816.458 261.885 814.487 244.37 799.025 213.292C799.025 213.292 782.581 189.202 794.216 134.547C796.876 122.587 799.29 110.561 801.83 98.5722C803.395 91.1832 804.245 82.9602 807.035 75.9622C808.337 72.6992 810.514 70.7632 813.863 70.1402C818.199 69.3332 820.283 73.3482 821.144 77.1832C819.741 70.9392 826.546 66.2742 831.634 65.4122C835.326 64.7862 838.79 65.9882 840.232 69.8442C841.356 72.8462 841.275 76.3932 840.909 79.5392C840.792 80.5472 840.64 81.5512 840.489 82.5542C839.164 91.3272 839.052 100.448 838.414 109.312C838.119 113.396 837.826 117.48 837.532 121.564C837.418 123.151 837.574 125.115 837.165 126.657L848.82 82.7532C848.82 82.7532 850.401 73.7992 859.846 74.4222C859.846 74.4222 865.978 75.1052 864.455 87.5112L856.705 131.884C858.223 127.742 859.74 123.6 861.257 119.458C862.402 116.336 863.545 113.213 864.689 110.091C865.706 107.316 866.447 103.711 868.572 101.651C869.052 101.187 869.64 100.77 870.294 100.78C871.052 100.792 871.689 101.372 872.172 101.985C875.204 105.838 874.222 111.475 873.457 115.963C872.544 121.322 872.026 126.713 871.424 132.119C870.608 139.448 869.793 146.778 868.977 154.107C868.974 154.132 868.971 154.157 868.968 154.182C868.968 154.184 866.312 176.66 872.719 191.724C872.719 191.724 885.707 216.462 877.702 244.149L875.776 250.825L906.37 501.956L821.372 509.602Z" fill="#793726"/>
<path d="M817.092 158.337C817.045 158.34 816.998 158.341 816.951 158.339C816.343 158.304 815.876 157.763 815.909 157.13L820.043 77.1251C820.076 76.4911 820.596 76.0071 821.203 76.0391C821.812 76.0741 822.278 76.6151 822.246 77.2481L818.112 157.253C818.081 157.836 817.638 158.295 817.092 158.337Z" fill="#551B0A"/>
<path d="M853.245 180.168C831.769 181.809 815.965 172.361 815.784 172.251C815.259 171.93 815.082 171.227 815.389 170.679C815.697 170.13 816.372 169.946 816.899 170.267C817.099 170.389 837.273 182.413 862.804 176.361C863.395 176.218 863.989 176.608 864.124 177.227C864.258 177.845 863.887 178.461 863.292 178.602C859.84 179.422 856.477 179.921 853.245 180.168Z" fill="#551B0A"/>
<path d="M859.929 52.093C837.849 53.843 834.353 77.598 834.353 77.598C834.353 77.598 827.443 54.671 805.363 56.423C790.236 57.629 776.957 70.267 778.597 92.935C781.117 127.287 840.32 158.843 840.32 158.843C840.32 158.843 894.196 118.297 891.676 83.944C890.041 61.272 875.059 50.894 859.929 52.093Z" fill="#D2242F"/>
<path d="M805.018 177.982C805.018 177.982 805.444 164.412 809.28 156.054L808.65 123.554C808.65 123.554 805.045 107.7 818.294 111.296C818.294 111.296 831.08 108.303 830.412 161.639C830.361 165.788 837.406 173.838 840.646 175.501C851.158 180.894 854.672 192.422 855.214 203.851C855.38 207.353 856.065 234.629 852.456 235.131C852.453 235.131 811.107 240.881 805.018 177.982Z" fill="#793726"/>
<path d="M810.352 120.255C810.244 114.513 814.944 112.149 819.409 115.36C821.212 116.657 826.825 124.541 824.446 126.666C818.548 131.918 812.255 128.942 812.255 128.942L810.352 120.255Z" fill="#88493C"/>
<path d="M854.779 230.153C854.697 230.159 854.613 230.156 854.529 230.142C853.927 230.045 853.514 229.458 853.608 228.831C859.88 186.71 842.862 178.411 842.689 178.332L842.546 178.254C830.25 170.32 829.347 162.097 829.314 161.751L829.307 161.673L829.309 161.595C829.879 146.577 827.787 132.026 827.766 131.881C826.576 121.734 823.718 115.165 819.498 112.849C815.761 110.799 812.14 112.714 812.104 112.732L811.907 112.814C811.712 112.881 806.828 114.673 809.913 125.414L809.955 125.561L810.662 155.328C810.677 155.963 810.183 156.475 809.587 156.505C808.978 156.521 808.473 156.019 808.457 155.385L807.757 125.924C806.308 120.797 806.336 116.732 807.842 113.836C809.021 111.57 810.702 110.82 811.175 110.646C811.853 110.306 816.084 108.376 820.527 110.814C825.486 113.535 828.658 120.517 829.953 131.567C829.969 131.68 832.084 146.376 831.519 161.585C831.628 162.293 832.96 169.34 843.647 176.26C845.187 176.995 862.195 186.167 855.789 229.183C855.708 229.722 855.279 230.114 854.779 230.153Z" fill="#551B0A"/>
<path d="M1258.11 509.602L1258.94 261.834C1258.94 261.834 1260.62 244.286 1275.57 212.936C1275.57 212.936 1291.61 188.555 1279.08 134.116C1276.22 122.205 1273.61 110.224 1270.87 98.2834C1269.18 90.9244 1268.2 82.7174 1265.29 75.7694C1263.94 72.5294 1261.73 70.6334 1258.37 70.0704C1254.02 69.3414 1252.01 73.3924 1251.21 77.2424C1252.51 70.9744 1245.63 66.4314 1240.53 65.6604C1236.82 65.1004 1233.38 66.3644 1232 70.2464C1230.93 73.2674 1231.07 76.8124 1231.48 79.9524C1231.62 80.9584 1231.79 81.9594 1231.95 82.9594C1233.42 91.7074 1233.68 100.824 1234.47 109.676C1234.83 113.754 1235.19 117.832 1235.55 121.91C1235.69 123.494 1235.57 125.461 1236 126.996L1223.63 83.3074C1223.63 83.3074 1221.9 74.3834 1212.47 75.1744C1212.47 75.1744 1206.35 75.9674 1208.07 88.3444L1216.56 132.572C1214.97 128.458 1213.38 124.343 1211.8 120.229C1210.6 117.128 1209.41 114.026 1208.21 110.924C1207.15 108.168 1206.35 104.576 1204.19 102.555C1203.71 102.1 1203.11 101.693 1202.46 101.715C1201.7 101.741 1201.07 102.332 1200.6 102.953C1197.63 106.86 1198.7 112.478 1199.54 116.952C1200.55 122.294 1201.15 127.675 1201.84 133.069C1202.78 140.383 1203.72 147.697 1204.65 155.01C1204.65 155.035 1204.66 155.06 1204.66 155.085C1204.66 155.087 1207.69 177.512 1201.53 192.688C1201.53 192.688 1188.95 217.655 1197.41 245.194L1199.45 251.835L1173 503.476L1258.11 509.602Z" fill="#F68652"/>
<path d="M1256.6 158.312C1256.05 158.28 1255.6 157.829 1255.56 157.246L1250.11 77.3272C1250.06 76.6942 1250.52 76.1452 1251.13 76.0992C1251.74 76.0582 1252.26 76.5322 1252.31 77.1642L1257.76 157.083C1257.8 157.716 1257.34 158.265 1256.74 158.311C1256.69 158.314 1256.64 158.314 1256.6 158.312Z" fill="#E0632A"/>
<path d="M1220.81 180.787C1217.57 180.598 1214.2 180.16 1210.73 179.402C1210.14 179.272 1209.76 178.663 1209.88 178.042C1210.01 177.421 1210.59 177.018 1211.19 177.153C1236.81 182.749 1256.79 170.364 1256.99 170.238C1257.51 169.908 1258.19 170.08 1258.5 170.623C1258.82 171.165 1258.65 171.871 1258.13 172.201C1257.95 172.314 1242.3 182.044 1220.81 180.787Z" fill="#E0632A"/>
<path d="M1212.01 52.8502C1234.12 54.2052 1238.01 77.8942 1238.01 77.8942C1238.01 77.8942 1244.54 54.8462 1266.64 56.2032C1281.79 57.1392 1295.27 69.5372 1294.01 92.2312C1292.05 126.623 1233.38 159.233 1233.38 159.233C1233.38 159.233 1178.84 119.657 1180.8 85.2642C1182.06 62.5662 1196.87 51.9222 1212.01 52.8502Z" fill="#D2242F"/>
<path d="M1268.99 177.738C1268.99 177.738 1268.34 164.177 1264.37 155.889L1264.46 123.383C1264.46 123.383 1267.81 107.467 1254.62 111.299C1254.62 111.299 1241.79 108.535 1243.33 161.852C1243.45 166 1236.54 174.174 1233.33 175.894C1222.91 181.474 1219.58 193.063 1219.23 204.501C1219.12 208.005 1218.89 235.29 1222.5 235.727C1222.51 235.728 1263.94 240.737 1268.99 177.738Z" fill="#F68652"/>
<path d="M1262.71 120.116C1262.72 114.373 1257.98 112.093 1253.57 115.383C1251.79 116.712 1246.31 124.695 1248.72 126.778C1254.71 131.924 1260.95 128.836 1260.95 128.836L1262.71 120.116Z" fill="#FFA379"/>
<path d="M1220.1 230.792C1219.6 230.763 1219.16 230.378 1219.07 229.84C1211.96 186.948 1228.81 177.472 1230.34 176.708C1240.89 169.614 1242.12 162.559 1242.23 161.816C1241.41 146.62 1243.28 131.891 1243.3 131.743C1244.41 120.705 1247.46 113.668 1252.38 110.858C1256.78 108.341 1261.04 110.194 1261.73 110.522C1262.2 110.687 1263.89 111.407 1265.11 113.652C1266.66 116.519 1266.76 120.584 1265.39 125.736L1265.18 155.206C1265.18 155.84 1264.68 156.351 1264.07 156.346C1263.45 156.319 1262.97 155.823 1262.98 155.188L1263.19 125.413L1263.23 125.265C1264.78 119.52 1264.06 116.394 1263.19 114.783C1262.28 113.103 1261.04 112.707 1261.03 112.703L1260.83 112.624C1260.68 112.549 1257.09 110.766 1253.41 112.889C1249.25 115.293 1246.51 121.907 1245.49 132.017C1245.47 132.196 1243.62 146.783 1244.43 161.788L1244.44 161.866L1244.43 161.944C1244.41 162.291 1243.64 170.529 1231.47 178.682L1231.33 178.765C1231.16 178.845 1214.28 187.447 1221.25 229.449C1221.35 230.074 1220.95 230.669 1220.35 230.776C1220.26 230.792 1220.18 230.796 1220.1 230.792Z" fill="#E0632A"/>
<path d="M924.904 507.32L946.966 266.021C946.966 266.021 948.069 236.146 940.348 216.038L935.936 198.228C935.936 198.228 924.353 182.716 946.966 162.033L970.131 144.223C970.131 144.223 985.022 133.307 997.708 159.735C997.708 159.735 1006.53 173.523 1006.53 184.439C1006.53 184.439 1014.25 199.377 1014.25 206.271C1014.25 206.271 1015.36 220.059 998.257 225.805C997.845 226.034 1004.28 240.52 1004.81 241.8C1008.03 249.658 1007.64 260.39 1003.22 267.744C1003.22 267.746 997.708 276.936 997.708 276.936L1005.98 508.468L924.904 507.32Z" fill="#F68652"/>
<path d="M989.066 202.823C988.848 202.823 988.627 202.756 988.435 202.616C987.936 202.252 987.814 201.537 988.163 201.016C1003.75 177.761 996.77 160.369 996.697 160.195C996.454 159.614 996.708 158.937 997.265 158.682C997.822 158.429 998.471 158.69 998.717 159.27C999.035 160.021 1006.32 177.952 989.971 202.332C989.757 202.652 989.414 202.823 989.066 202.823Z" fill="#E0632A"/>
<path d="M992.745 209.335C992.44 209.335 992.138 209.205 991.92 208.95C991.516 208.475 991.556 207.749 992.011 207.327C1001.57 198.477 1005.43 184.275 1005.47 184.132C1005.63 183.521 1006.24 183.16 1006.83 183.331C1007.41 183.5 1007.76 184.133 1007.6 184.744C1007.43 185.352 1003.53 199.733 993.477 209.045C993.266 209.239 993.005 209.335 992.745 209.335Z" fill="#E0632A"/>
<path d="M994.582 219.294C994.135 219.294 993.713 219.008 993.548 218.545C993.335 217.95 993.626 217.289 994.197 217.068C1009.16 211.268 1011.06 197.15 1011.14 196.552C1011.21 195.924 1011.76 195.48 1012.37 195.557C1012.97 195.637 1013.4 196.21 1013.33 196.838C1013.25 197.492 1011.22 212.922 994.966 219.221C994.84 219.27 994.71 219.294 994.582 219.294Z" fill="#E0632A"/>
<path d="M998.97 80.0211C976.826 80.0831 971.672 103.508 971.672 103.508C971.672 103.508 966.392 80.1151 944.247 80.1791C929.075 80.2291 914.944 91.8211 914.987 114.553C915.088 149.006 971.915 184.989 971.915 184.989C971.915 184.989 1028.5 148.658 1028.4 114.206C1028.36 91.4701 1014.14 79.9781 998.97 80.0211Z" fill="#D2242F"/>
<path d="M951.93 193.631L957.445 160.309C957.445 160.309 955.607 134.264 971.786 130.434C971.786 130.434 983.919 123.157 981.346 152.649L980.243 184.439C980.243 184.439 992.744 205.505 994.583 221.591C994.583 221.591 1001.57 257.786 974.36 239.784C974.36 239.784 956.71 227.911 954.504 220.633C954.504 220.633 949.356 210.292 951.93 193.631Z" fill="#F68652"/>
<path d="M994.581 222.74C994.03 222.74 993.554 222.311 993.488 221.727C991.699 206.082 979.428 185.252 979.305 185.043L979.129 184.746L980.243 152.607C981.603 137.015 978.716 132.636 976.875 131.408C974.767 130 972.36 131.416 972.337 131.43L972.031 131.555C956.952 135.125 958.528 159.975 958.546 160.226L958.556 160.366L953.018 193.827C952.914 194.452 952.349 194.872 951.743 194.764C951.142 194.656 950.74 194.062 950.843 193.437L956.337 160.25C956.194 157.903 955.098 133.354 971.397 129.349C972.132 128.959 975.192 127.557 978.065 129.474C982.086 132.155 983.559 139.988 982.446 152.754L981.358 184.136C982.952 186.87 993.93 206.158 995.679 221.457C995.751 222.087 995.319 222.659 994.715 222.734C994.668 222.738 994.624 222.74 994.581 222.74Z" fill="#E0632A"/>
<path d="M963.328 148.244C962.833 148.19 963.689 143.879 963.803 143.355C964.881 138.418 969.091 134.428 973.999 133.879C978.753 133.346 979.451 138.214 979.126 142.09C979.073 142.722 977.94 149.847 977.299 149.776C977.299 149.776 963.355 148.247 963.328 148.244Z" fill="#FFA379"/>
<path d="M1130.26 131.546C1108.11 131.608 1102.96 155.033 1102.96 155.033C1102.96 155.033 1097.68 131.64 1075.53 131.704C1060.36 131.754 1046.23 143.346 1046.27 166.078C1046.37 200.53 1103.2 236.514 1103.2 236.514C1103.2 236.514 1159.78 200.183 1159.68 165.731C1159.64 142.996 1145.43 131.503 1130.26 131.546Z" fill="#D2242F"/>
<path d="M1152.34 529L1120.87 327.746C1120.87 327.746 1117.72 317.913 1127.79 302.18L1146.04 271.369C1146.04 271.369 1158 260.225 1141.64 249.08L1125.28 205.814C1125.28 205.814 1122.76 198.603 1103.88 204.503C1103.88 204.503 1078.08 211.714 1068.64 212.37C1068.64 212.37 1061.08 220.237 1068.64 223.514L1057.31 236.297C1057.31 236.297 1053.85 243.508 1063.6 242.852C1063.6 242.852 1056.36 254.98 1070.84 252.357L1065.81 267.107C1065.81 267.107 1068.64 276.285 1079.34 263.829L1082.8 259.568L1093.5 258.912C1093.5 258.912 1071.15 268.745 1071.47 301.851L1072.41 312.995L1077.13 528.671L1152.34 529Z" fill="#FF928D"/>
<path d="M1121.5 262.682C1121.96 262.682 1122.4 262.452 1122.68 262.025C1123.11 261.347 1122.94 260.431 1122.29 259.98C1120.07 258.44 1118.01 255.947 1116.02 253.537C1115.07 252.387 1114.17 251.303 1113.26 250.307C1112.23 249.199 1111.25 247.927 1110.22 246.579C1107.62 243.207 1104.93 239.721 1101.04 238.075C1094.91 235.482 1088.46 238.717 1083.28 241.318C1082.58 241.669 1081.84 242.017 1081.08 242.374C1076.62 244.468 1071.58 246.842 1069.54 251.774C1069.23 252.522 1069.56 253.389 1070.28 253.712C1071 254.031 1071.83 253.689 1072.14 252.94C1073.74 249.06 1078.26 246.936 1082.24 245.063C1083.02 244.695 1083.79 244.337 1084.5 243.978C1089.19 241.629 1095.01 238.711 1099.98 240.808C1103.18 242.165 1105.63 245.347 1108.01 248.425C1109.04 249.765 1110.1 251.148 1111.21 252.352C1112.08 253.287 1112.95 254.343 1113.87 255.46C1115.99 258.021 1118.17 260.669 1120.71 262.434C1120.96 262.603 1121.23 262.682 1121.5 262.682Z" fill="#F34845"/>
<path d="M1128.11 251.374C1128.5 251.374 1128.89 251.208 1129.16 250.881C1129.69 250.273 1129.63 249.341 1129.05 248.798L1107.21 228.496C1106.31 227.275 1100.71 220.844 1086.49 227.155C1085.73 227.509 1068.54 235.626 1062.6 241.81C1062.05 242.386 1062.05 243.319 1062.6 243.896C1063.15 244.472 1064.05 244.472 1064.6 243.896C1070.18 238.09 1087.45 229.938 1087.63 229.857C1100.76 224.026 1104.94 230.251 1104.98 230.314L1105.22 230.596L1127.16 251C1127.43 251.25 1127.77 251.374 1128.11 251.374Z" fill="#F34845"/>
<path d="M1132.36 240.803C1132.68 240.803 1133.01 240.687 1133.28 240.45C1133.87 239.922 1133.94 238.99 1133.43 238.371L1129.4 233.446C1126.46 229.841 1123.51 226.236 1120.55 222.649C1120.16 222.176 1119.76 221.693 1119.37 221.205C1114.91 215.725 1109.85 209.555 1101.81 209.789C1095.35 210.012 1089.38 212.707 1083.62 215.315C1082.05 216.024 1080.43 216.756 1078.85 217.41C1075.44 218.825 1071.92 220.38 1068.06 222.165C1067.35 222.496 1067.02 223.368 1067.34 224.113C1067.66 224.857 1068.5 225.193 1069.21 224.862C1073.03 223.092 1076.53 221.551 1079.9 220.151C1081.51 219.481 1083.16 218.738 1084.74 218.021C1090.27 215.523 1095.98 212.941 1101.9 212.737C1108.53 212.508 1112.96 217.898 1117.21 223.112C1117.61 223.605 1118 224.094 1118.4 224.574C1121.36 228.158 1124.3 231.759 1127.25 235.359L1131.28 240.287C1131.56 240.628 1131.96 240.803 1132.36 240.803Z" fill="#F34845"/>
</g>
<mask id="mask2_430_2402" style="mask-type:luminance" maskUnits="userSpaceOnUse" x="0" y="0" width="1440" height="500">
<path d="M1440 0H0V500H1440V0Z" fill="white"/>
</mask>
<g mask="url(#mask2_430_2402)">
<path d="M679.441 88.8979C674.535 94.0919 660.572 107.538 655.367 98.8169C646.807 84.4729 671.07 68.5279 679.82 68.6699C692.691 68.8789 684.3 83.7529 679.441 88.8979Z" fill="#06D6A0"/>
<path d="M693.592 55.4206C685.44 59.2106 675.327 59.1736 667.147 55.6056C661.615 53.1926 658.36 46.8236 663.369 40.6076C671.169 32.9376 681.771 32.1046 693.025 36.8626C696.485 38.3256 700.776 40.9656 701.185 45.2896C701.642 50.1036 697.343 53.6776 693.592 55.4206Z" fill="#06D6A0"/>
<path d="M691.287 96.5075C687.363 89.2055 688.83 80.8835 691.968 73.9065C695.42 66.2325 704.347 58.7885 710.259 68.5505C715.168 76.6565 714.477 92.3915 708.433 99.8045C706.361 102.346 697.71 108.461 691.287 96.5075Z" fill="#06D6A0"/>
<path d="M725.036 87.2598C714.459 86.6988 710.232 67.2618 714.547 56.6218C718.428 47.0558 728.603 38.4568 736.573 48.7258C742.294 56.0958 741.55 67.7218 737.32 75.6478C733.867 82.1208 729.68 87.5058 725.036 87.2598Z" fill="#06D6A0"/>
<path d="M696.615 31.1025C688.34 27.1045 690.179 18.7435 697.512 15.5585C705.77 11.6075 710.873 9.93153 716.207 9.98053C724.095 10.0535 731.616 17.1825 726.363 25.2995C720.596 34.2115 705.271 35.2845 696.615 31.1025Z" fill="#06D6A0"/>
<path d="M746.097 41.0108C745.873 34.3268 749.489 27.1408 754.497 23.9608C760.724 20.0058 768.666 23.6198 770.437 30.7638C772.337 38.4278 768.521 48.3238 762.399 53.5238C757.473 57.7068 746.613 56.4708 746.097 41.0108Z" fill="#06D6A0"/>
<path d="M782.671 17.9056C782.43 10.6846 786.335 2.92164 791.746 -0.514362C798.473 -4.78736 807.054 -0.883361 808.967 6.83464C811.02 15.1136 806.897 25.8056 800.283 31.4236C794.961 35.9436 783.229 34.6086 782.671 17.9056Z" fill="#06D6A0"/>
<path d="M719.289 -8.37125C720.444 -19.2583 736.678 -19.6823 743.238 -19.1963C749.827 -18.7093 759.845 -15.7373 760.267 -7.33225C760.825 3.77875 746.985 11.7387 737.736 10.3497C729.362 9.09175 718.42 -0.186255 719.289 -8.37125Z" fill="#06D6A0"/>
<path d="M701.821 93.6098C701.538 94.6448 700.067 94.1958 700.289 93.1598C703.943 76.0808 710.097 59.7448 714 42.7288C697.989 56.0388 682.61 70.1438 668.542 85.5458C667.839 86.3148 666.757 85.1538 667.435 84.3788C679.313 70.8148 692.279 58.3258 705.843 46.5368C696.182 46.1408 686.72 46.2238 677.396 49.6308C676.885 49.8178 676.539 48.9258 677.042 48.6968C686.044 44.5968 698.13 42.5378 707.936 44.7328C710.219 42.7698 727.018 28.9988 732.398 24.7938C722.748 22.6448 711.551 21.7338 702.548 26.1498C702.131 26.3548 701.599 25.7538 702.021 25.4198C710.077 19.0388 724.949 20.2338 734.227 23.3608C741.923 17.3788 762.973 1.71981 765.738 -0.277187C753.469 -2.28519 741.908 -0.689186 729.507 -0.204185C728.627 -0.170185 728.663 -1.57119 729.533 -1.62319C742.147 -2.37419 755.614 -6.07619 767.991 -1.89819C780.527 -10.8862 793.344 -19.5112 806.501 -27.5052C798.751 -29.8932 775.538 -36.2542 757.16 -32.7702C756.65 -32.6732 756.3 -33.3012 756.771 -33.4932C773.931 -40.4892 800.36 -32.6112 808.879 -28.9422C826.092 -39.2652 843.891 -48.4782 862.429 -55.9372C863.496 -56.3662 864.24 -54.4392 863.175 -53.9662C846.019 -46.3562 829.415 -37.6932 813.266 -28.1882C813.205 -27.9452 799.098 7.68082 794.79 25.2108C794.535 26.2438 793.071 25.7888 793.275 24.7658C796.792 7.04982 810.324 -26.2632 810.13 -26.3292C798.222 -19.2132 786.559 -11.6452 775.116 -3.68819C762.92 12.5238 762.73 32.4448 756.774 51.2878C756.524 52.0788 755.404 51.7478 755.582 50.9378C759.381 33.6778 760.884 13.2358 771.63 -1.25819C767.602 1.58081 743.509 19.3608 735.535 25.5218C733.532 33.7718 733.787 42.5028 732.077 50.8348C730.165 60.1498 727.583 69.2448 726.122 78.6648C725.998 79.4608 724.787 79.2388 724.803 78.4618C724.996 69.1258 728.04 60.2638 730.079 51.2558C731.903 43.1978 731.993 34.8618 733.833 26.8418C727.794 31.5288 721.802 36.2928 715.893 41.1668C713.082 59.0578 706.566 76.2228 701.821 93.6098Z" fill="#003483"/>
<path d="M1405.18 202.931C1401.64 194.713 1401.06 185.236 1396.69 177.466C1391.82 168.827 1383.05 163.599 1375.35 157.598C1367.65 151.597 1360.22 143.281 1360.35 133.266C1360.43 127.207 1363.32 121.093 1361.64 115.292C1360.55 111.516 1357.69 108.614 1354.87 105.982C1343.04 94.9466 1328.89 83.8576 1326.46 67.5096C1325.59 61.7006 1327.32 54.4296 1332.73 52.7706C1334.71 52.1656 1336.83 52.4456 1338.84 52.8726C1347.32 54.6666 1355.29 59.0166 1361.52 65.2616C1367.77 71.5156 1372.75 79.9146 1380.97 82.7696C1387.3 84.9706 1394.47 83.3846 1400.7 85.8906C1410.07 89.6596 1414.02 100.962 1416.85 110.996C1419.69 121.03 1423.54 132.34 1432.85 136.253C1436.6 137.83 1440.83 137.955 1444.49 139.75C1451.67 143.268 1454.82 152.252 1455.25 160.501C1455.69 168.75 1454.14 177.063 1455.16 185.256C1457.42 203.438 1471.44 217.105 1482.69 231.204C1484.17 233.057 1485.68 235.124 1485.77 237.532C1485.82 239.039 1485.3 240.516 1484.55 241.81C1479.99 249.755 1468.77 250.007 1460.52 246.566C1441.48 238.626 1413.86 223.083 1405.18 202.931Z" fill="#06D6A0"/>
<path d="M1350.5 81.7015C1362.48 96.8035 1374.85 111.36 1385.95 127.222C1396.94 142.941 1407.11 159.26 1416.49 176.075C1425.15 191.597 1433.6 207.149 1446.01 219.827C1457.66 231.72 1471.96 242.55 1486.69 249.899C1487.77 250.439 1488.5 248.676 1487.59 247.998C1473.13 237.185 1457.76 228.623 1445.15 215.203C1432.39 201.624 1424.12 184.668 1414.78 168.55C1405.94 153.279 1396.42 138.432 1386.25 124.088C1375.59 109.056 1364.5 93.7795 1351.94 80.4055C1351.08 79.4995 1349.71 80.7105 1350.5 81.7015Z" fill="#003483"/>
<path d="M848.08 557.364C854.794 545.241 857.549 524.315 858.389 510.868C858.998 502.719 859.712 490.222 855.109 482.782C847.876 470.605 840.894 481.236 831.512 481.833C829.863 466.093 836.934 447.721 829.682 432.15C821.641 415.496 813.085 423.964 804.67 434.875C803.559 422.119 809.447 402.125 804.039 390.208C796.662 375.587 782.865 396.088 775.597 401.832C778.031 393.944 780.852 368.483 777.683 360.762C771.074 343.828 759.421 358.153 752.295 366.34C748.482 359.982 728.229 326.562 719.153 335.44C709.038 345.139 731.761 377.457 736.113 386.801C727.106 384.545 698.818 383.895 714.54 398.738C721.881 406.571 741.581 408.52 750.998 414.711C742.298 420.735 717.281 423.841 731.551 435.57C742.025 444.334 755.381 445.676 769.564 450.692C761.882 452.501 741.185 457.781 746.325 468.206C751.465 478.631 776.225 477.808 785.375 482.508C779.395 485.53 757.91 489.728 767.098 501.216C773.132 508.377 794.759 506.622 802.727 509.698C798.967 513.521 787.008 519.565 788.083 525.533C788.908 533.403 805.738 536.292 812.004 538.156C824.537 541.885 834.85 544.812 844.679 554.938" fill="#06D6A0"/>
<path d="M734.759 359.799C752.122 385.17 767.441 412.177 783.1 438.699C800.845 468.755 818.339 498.972 836.097 529.021C840.926 537.193 845.48 545.825 851.038 553.5C851.816 554.574 850.218 555.84 849.439 554.764C844.809 548.371 840.982 541.225 836.948 534.425C829.071 521.147 821.287 507.81 813.49 494.482C794.81 462.552 776.189 430.579 757.03 398.958C749.295 386.191 741.575 373.362 733.16 361.064C732.411 359.969 734.007 358.701 734.759 359.799Z" fill="#003483"/>
<path d="M762.127 372.047C761.343 382.228 758.657 392.346 760.556 402.565C760.7 403.338 759.833 403.96 759.175 403.656C751.749 400.229 744.985 395.507 737.82 391.56C736.685 390.935 737.446 388.998 738.588 389.627C745.754 393.574 752.518 398.297 759.944 401.723C759.483 402.087 759.023 402.451 758.562 402.815C756.631 392.418 759.34 382.12 760.137 371.762C760.24 370.418 762.229 370.708 762.127 372.047Z" fill="#003483"/>
<path d="M785.494 403.004C783.73 413.946 781.346 424.92 781.417 436.07C781.422 436.885 780.802 437.414 780.036 437.161C771.033 434.195 761.917 431.394 753.477 426.907C752.332 426.298 753.094 424.362 754.246 424.975C762.685 429.463 771.802 432.263 780.805 435.229C780.344 435.593 779.884 435.957 779.423 436.321C779.351 424.976 781.71 413.854 783.505 402.72C783.719 401.393 785.709 401.673 785.494 403.004Z" fill="#003483"/>
<path d="M810.206 441.42C808.077 453.064 806.21 464.758 804.05 476.396C803.94 476.99 803.272 477.563 802.671 477.22C795.655 473.216 788.023 470.507 781.27 465.984C780.182 465.255 781.41 463.599 782.49 464.322C789.091 468.744 796.578 471.372 803.439 475.288C802.98 475.563 802.52 475.837 802.061 476.112C804.22 464.474 806.088 452.78 808.216 441.136C808.458 439.816 810.448 440.094 810.206 441.42Z" fill="#003483"/>
<path d="M825.415 474.279C824.063 484.319 821.913 494.234 821.144 504.356C821.097 504.97 820.316 505.506 819.765 505.18C811.911 500.544 803.307 497.565 795.284 493.284C794.139 492.673 794.902 490.737 796.053 491.351C804.075 495.632 812.68 498.61 820.534 503.246C820.074 503.521 819.614 503.796 819.155 504.07C819.924 493.948 822.075 484.034 823.426 473.993C823.605 472.661 825.595 472.944 825.415 474.279Z" fill="#003483"/>
<path d="M1294.33 478.562C1300.1 471.059 1308.46 465.882 1313.41 457.772C1318.92 448.755 1319.42 437.529 1321.14 426.993C1322.87 416.457 1326.83 405.061 1336.03 400.318C1341.59 397.448 1348.57 397.328 1353.04 392.844C1355.95 389.925 1357.21 385.689 1358.24 381.618C1362.54 364.544 1365.76 345.147 1379.49 334.787C1384.36 331.106 1391.83 329.27 1395.98 333.818C1397.49 335.478 1398.26 337.712 1398.86 339.916C1401.35 349.175 1401.26 359.171 1398.6 368.379C1395.94 377.601 1390.7 386.619 1392.1 396.138C1393.18 403.476 1398.11 409.794 1398.86 417.176C1399.98 428.275 1391.6 437.688 1383.83 445.374C1376.06 453.06 1367.62 462.372 1368.58 473.488C1368.97 477.969 1370.92 482.214 1371.06 486.71C1371.35 495.521 1364.69 503.007 1357.38 507.453C1350.07 511.899 1341.74 514.414 1334.77 519.41C1319.29 530.497 1313.65 551.008 1306.27 569C1305.3 571.365 1304.15 573.865 1302 575.124C1300.65 575.912 1299.05 576.112 1297.51 576.006C1288.04 575.355 1282.36 564.382 1281.48 554.543C1279.45 531.843 1280.18 496.959 1294.33 478.562Z" fill="#06D6A0"/>
<path d="M1378.24 365.474C1370.31 384.675 1363.06 403.999 1353.99 422.693C1345.01 441.219 1335.09 459.226 1324.32 476.687C1314.38 492.806 1304.31 508.728 1298.8 527.181C1293.62 544.491 1290.71 563.912 1291.17 582.056C1291.21 583.389 1293.17 583.25 1293.35 582.022C1296.17 562.452 1296.49 543.08 1302.59 524.077C1308.76 504.849 1320.19 488.41 1330.35 471.335C1339.97 455.158 1348.87 438.508 1357 421.467C1365.52 403.608 1374.05 385.204 1380.12 366.266C1380.54 364.983 1378.76 364.213 1378.24 365.474Z" fill="#003483"/>
</g>
<path d="M76.4066 234.663C76.4066 227.505 77.9551 221.139 81.052 215.565C84.1489 209.922 88.4502 205.552 93.9559 202.455C99.5303 199.289 105.827 197.706 112.847 197.706C121.45 197.706 128.814 199.977 134.939 204.519C141.064 209.061 145.158 215.255 147.223 223.101H127.816C126.37 220.073 124.306 217.767 121.622 216.184C119.007 214.602 116.013 213.81 112.641 213.81C107.204 213.81 102.799 215.703 99.4271 219.488C96.0549 223.273 94.3688 228.331 94.3688 234.663C94.3688 240.994 96.0549 246.053 99.4271 249.838C102.799 253.623 107.204 255.515 112.641 255.515C116.013 255.515 119.007 254.724 121.622 253.141C124.306 251.558 126.37 249.253 127.816 246.225H147.223C145.158 254.07 141.064 260.264 134.939 264.806C128.814 269.279 121.45 271.516 112.847 271.516C105.827 271.516 99.5303 269.968 93.9559 266.871C88.4502 263.705 84.1489 259.335 81.052 253.76C77.9551 248.186 76.4066 241.82 76.4066 234.663ZM203.145 258.199H176.099L171.763 271H153.285L179.505 198.532H199.945L226.166 271H207.481L203.145 258.199ZM198.603 244.573L189.622 218.043L180.744 244.573H198.603ZM316.214 198.532V271H298.562V227.54L282.355 271H268.109L251.798 227.437V271H234.146V198.532H254.999L275.335 248.702L295.465 198.532H316.214ZM372.782 233.837C376.98 234.732 380.352 236.831 382.898 240.134C385.445 243.369 386.718 247.085 386.718 251.283C386.718 257.339 384.584 262.157 380.318 265.735C376.12 269.245 370.235 271 362.665 271H328.909V198.532H361.53C368.893 198.532 374.64 200.218 378.769 203.59C382.967 206.962 385.066 211.539 385.066 217.32C385.066 221.587 383.931 225.131 381.66 227.953C379.457 230.774 376.498 232.736 372.782 233.837ZM346.561 227.849H358.123C361.013 227.849 363.216 227.23 364.73 225.991C366.313 224.684 367.104 222.791 367.104 220.314C367.104 217.836 366.313 215.944 364.73 214.636C363.216 213.328 361.013 212.675 358.123 212.675H346.561V227.849ZM359.568 256.754C362.527 256.754 364.799 256.1 366.381 254.793C368.033 253.416 368.859 251.455 368.859 248.909C368.859 246.362 367.999 244.366 366.278 242.921C364.626 241.476 362.321 240.753 359.362 240.753H346.561V256.754H359.568ZM414.609 198.532V271H396.956V198.532H414.609ZM461.674 271.723C454.861 271.723 448.598 270.14 442.886 266.974C437.243 263.808 432.735 259.404 429.363 253.76C426.059 248.048 424.408 241.648 424.408 234.559C424.408 227.471 426.059 221.105 429.363 215.462C432.735 209.818 437.243 205.414 442.886 202.248C448.598 199.082 454.861 197.5 461.674 197.5C468.487 197.5 474.716 199.082 480.359 202.248C486.071 205.414 490.544 209.818 493.779 215.462C497.082 221.105 498.734 227.471 498.734 234.559C498.734 241.648 497.082 248.048 493.779 253.76C490.475 259.404 486.002 263.808 480.359 266.974C474.716 270.14 468.487 271.723 461.674 271.723ZM461.674 255.619C467.455 255.619 472.066 253.692 475.507 249.838C479.017 245.984 480.772 240.891 480.772 234.559C480.772 228.159 479.017 223.066 475.507 219.281C472.066 215.427 467.455 213.5 461.674 213.5C455.824 213.5 451.144 215.393 447.635 219.178C444.194 222.963 442.473 228.09 442.473 234.559C442.473 240.96 444.194 246.087 447.635 249.941C451.144 253.726 455.824 255.619 461.674 255.619Z" fill="#073B4C"/>
<path d="M113.222 114.857V157H102.956V139.651H86.9875V157H76.722V114.857H86.9875V131.366H102.956V114.857H113.222ZM146.867 149.556H131.138L128.617 157H117.871L133.119 114.857H145.006L160.254 157H149.388L146.867 149.556ZM144.225 141.632L139.002 126.203L133.84 141.632H144.225ZM175.82 148.595H193.95V157H164.174V149.196L182.184 123.262H164.174V114.857H193.95V122.661L175.82 148.595ZM245.495 128.425C245.495 130.866 244.935 133.107 243.814 135.148C242.694 137.149 240.973 138.77 238.651 140.011C236.33 141.252 233.449 141.872 230.007 141.872H223.643V157H213.378V114.857H230.007C233.369 114.857 236.21 115.438 238.531 116.598C240.853 117.759 242.594 119.36 243.754 121.401C244.915 123.442 245.495 125.783 245.495 128.425ZM229.226 133.707C231.187 133.707 232.648 133.247 233.609 132.327C234.569 131.406 235.049 130.105 235.049 128.425C235.049 126.744 234.569 125.443 233.609 124.522C232.648 123.602 231.187 123.142 229.226 123.142H223.643V133.707H229.226ZM277.074 149.556H261.345L258.824 157H248.078L263.326 114.857H275.213L290.461 157H279.595L277.074 149.556ZM274.432 141.632L269.209 126.203L264.047 141.632H274.432ZM316.593 157L307.828 141.091H305.367V157H295.102V114.857H312.331C315.653 114.857 318.474 115.438 320.795 116.598C323.157 117.759 324.918 119.36 326.078 121.401C327.239 123.402 327.819 125.643 327.819 128.124C327.819 130.926 327.019 133.427 325.418 135.628C323.857 137.83 321.536 139.39 318.454 140.311L328.179 157H316.593ZM305.367 133.827H311.731C313.612 133.827 315.012 133.367 315.933 132.447C316.893 131.526 317.374 130.226 317.374 128.545C317.374 126.944 316.893 125.683 315.933 124.763C315.012 123.842 313.612 123.382 311.731 123.382H305.367V133.827ZM364.58 114.857V123.082H353.414V157H343.148V123.082H331.982V114.857H364.58ZM379.997 123.082V131.606H393.745V139.531H379.997V148.776H395.546V157H369.732V114.857H395.546V123.082H379.997ZM430.72 114.857C435.163 114.857 439.045 115.738 442.367 117.499C445.688 119.26 448.25 121.741 450.051 124.943C451.892 128.104 452.812 131.766 452.812 135.929C452.812 140.051 451.892 143.713 450.051 146.915C448.25 150.116 445.668 152.598 442.307 154.359C438.985 156.12 435.123 157 430.72 157H414.932V114.857H430.72ZM430.06 148.115C433.942 148.115 436.964 147.055 439.125 144.933C441.286 142.812 442.367 139.811 442.367 135.929C442.367 132.047 441.286 129.025 439.125 126.864C436.964 124.703 433.942 123.622 430.06 123.622H425.197V148.115H430.06ZM468.815 123.082V131.606H482.562V139.531H468.815V148.776H484.363V157H458.549V114.857H484.363V123.082H468.815ZM501.293 149.076H514.74V157H491.028V114.857H501.293V149.076Z" fill="#118AB2"/>
<path d="M76.726 60.256C76.726 58.7307 77.056 57.374 77.716 56.186C78.376 54.9833 79.2927 54.052 80.466 53.392C81.654 52.7173 82.996 52.38 84.492 52.38C86.3253 52.38 87.8947 52.864 89.2 53.832C90.5053 54.8 91.378 56.12 91.818 57.792H87.682C87.374 57.1467 86.934 56.6553 86.362 56.318C85.8047 55.9807 85.1667 55.812 84.448 55.812C83.2893 55.812 82.3507 56.2153 81.632 57.022C80.9133 57.8287 80.554 58.9067 80.554 60.256C80.554 61.6053 80.9133 62.6833 81.632 63.49C82.3507 64.2967 83.2893 64.7 84.448 64.7C85.1667 64.7 85.8047 64.5313 86.362 64.194C86.934 63.8567 87.374 63.3653 87.682 62.72H91.818C91.378 64.392 90.5053 65.712 89.2 66.68C87.8947 67.6333 86.3253 68.11 84.492 68.11C82.996 68.11 81.654 67.78 80.466 67.12C79.2927 66.4453 78.376 65.514 77.716 64.326C77.056 63.138 76.726 61.7813 76.726 60.256ZM101.426 68.154C99.9738 68.154 98.6391 67.8167 97.4218 67.142C96.2191 66.4673 95.2585 65.5287 94.5398 64.326C93.8358 63.1087 93.4838 61.7447 93.4838 60.234C93.4838 58.7233 93.8358 57.3667 94.5398 56.164C95.2585 54.9613 96.2191 54.0227 97.4218 53.348C98.6391 52.6733 99.9738 52.336 101.426 52.336C102.878 52.336 104.205 52.6733 105.408 53.348C106.625 54.0227 107.578 54.9613 108.268 56.164C108.972 57.3667 109.324 58.7233 109.324 60.234C109.324 61.7447 108.972 63.1087 108.268 64.326C107.564 65.5287 106.61 66.4673 105.408 67.142C104.205 67.8167 102.878 68.154 101.426 68.154ZM101.426 64.722C102.658 64.722 103.64 64.3113 104.374 63.49C105.122 62.6687 105.496 61.5833 105.496 60.234C105.496 58.87 105.122 57.7847 104.374 56.978C103.64 56.1567 102.658 55.746 101.426 55.746C100.179 55.746 99.1818 56.1493 98.4338 56.956C97.7005 57.7627 97.3338 58.8553 97.3338 60.234C97.3338 61.598 97.7005 62.6907 98.4338 63.512C99.1818 64.3187 100.179 64.722 101.426 64.722ZM115.179 65.096H120.107V68H111.417V52.556H115.179V65.096ZM131.515 65.272H125.751L124.827 68H120.889L126.477 52.556H130.833L136.421 68H132.439L131.515 65.272ZM130.547 62.368L128.633 56.714L126.741 62.368H130.547ZM147.472 60.08C148.366 60.2707 149.085 60.718 149.628 61.422C150.17 62.1113 150.442 62.9033 150.442 63.798C150.442 65.0887 149.987 66.1153 149.078 66.878C148.183 67.626 146.929 68 145.316 68H138.122V52.556H145.074C146.643 52.556 147.868 52.9153 148.748 53.634C149.642 54.3527 150.09 55.328 150.09 56.56C150.09 57.4693 149.848 58.2247 149.364 58.826C148.894 59.4273 148.264 59.8453 147.472 60.08ZM141.884 58.804H144.348C144.964 58.804 145.433 58.672 145.756 58.408C146.093 58.1293 146.262 57.726 146.262 57.198C146.262 56.67 146.093 56.2667 145.756 55.988C145.433 55.7093 144.964 55.57 144.348 55.57H141.884V58.804ZM144.656 64.964C145.286 64.964 145.77 64.8247 146.108 64.546C146.46 64.2527 146.636 63.8347 146.636 63.292C146.636 62.7493 146.452 62.324 146.086 62.016C145.734 61.708 145.242 61.554 144.612 61.554H141.884V64.964H144.656ZM159.928 68.154C158.476 68.154 157.141 67.8167 155.924 67.142C154.721 66.4673 153.76 65.5287 153.042 64.326C152.338 63.1087 151.986 61.7447 151.986 60.234C151.986 58.7233 152.338 57.3667 153.042 56.164C153.76 54.9613 154.721 54.0227 155.924 53.348C157.141 52.6733 158.476 52.336 159.928 52.336C161.38 52.336 162.707 52.6733 163.91 53.348C165.127 54.0227 166.08 54.9613 166.77 56.164C167.474 57.3667 167.826 58.7233 167.826 60.234C167.826 61.7447 167.474 63.1087 166.77 64.326C166.066 65.5287 165.112 66.4673 163.91 67.142C162.707 67.8167 161.38 68.154 159.928 68.154ZM159.928 64.722C161.16 64.722 162.142 64.3113 162.876 63.49C163.624 62.6687 163.998 61.5833 163.998 60.234C163.998 58.87 163.624 57.7847 162.876 56.978C162.142 56.1567 161.16 55.746 159.928 55.746C158.681 55.746 157.684 56.1493 156.936 56.956C156.202 57.7627 155.836 58.8553 155.836 60.234C155.836 61.598 156.202 62.6907 156.936 63.512C157.684 64.3187 158.681 64.722 159.928 64.722ZM177.795 68L174.583 62.17H173.681V68H169.919V52.556H176.233C177.45 52.556 178.484 52.7687 179.335 53.194C180.2 53.6193 180.845 54.206 181.271 54.954C181.696 55.6873 181.909 56.5087 181.909 57.418C181.909 58.4447 181.615 59.3613 181.029 60.168C180.457 60.9747 179.606 61.5467 178.477 61.884L182.041 68H177.795ZM173.681 59.508H176.013C176.702 59.508 177.215 59.3393 177.553 59.002C177.905 58.6647 178.081 58.188 178.081 57.572C178.081 56.9853 177.905 56.5233 177.553 56.186C177.215 55.8487 176.702 55.68 176.013 55.68H173.681V59.508ZM193.884 65.272H188.12L187.196 68H183.258L188.846 52.556H193.202L198.79 68H194.808L193.884 65.272ZM192.916 62.368L191.002 56.714L189.11 62.368H192.916ZM204.515 60.256C204.515 58.7307 204.845 57.374 205.505 56.186C206.165 54.9833 207.082 54.052 208.255 53.392C209.443 52.7173 210.785 52.38 212.281 52.38C214.114 52.38 215.684 52.864 216.989 53.832C218.294 54.8 219.167 56.12 219.607 57.792H215.471C215.163 57.1467 214.723 56.6553 214.151 56.318C213.594 55.9807 212.956 55.812 212.237 55.812C211.078 55.812 210.14 56.2153 209.421 57.022C208.702 57.8287 208.343 58.9067 208.343 60.256C208.343 61.6053 208.702 62.6833 209.421 63.49C210.14 64.2967 211.078 64.7 212.237 64.7C212.956 64.7 213.594 64.5313 214.151 64.194C214.723 63.8567 215.163 63.3653 215.471 62.72H219.607C219.167 64.392 218.294 65.712 216.989 66.68C215.684 67.6333 214.114 68.11 212.281 68.11C210.785 68.11 209.443 67.78 208.255 67.12C207.082 66.4453 206.165 65.514 205.505 64.326C204.845 63.138 204.515 61.7813 204.515 60.256ZM229.215 68.154C227.763 68.154 226.428 67.8167 225.211 67.142C224.008 66.4673 223.048 65.5287 222.329 64.326C221.625 63.1087 221.273 61.7447 221.273 60.234C221.273 58.7233 221.625 57.3667 222.329 56.164C223.048 54.9613 224.008 54.0227 225.211 53.348C226.428 52.6733 227.763 52.336 229.215 52.336C230.667 52.336 231.994 52.6733 233.197 53.348C234.414 54.0227 235.368 54.9613 236.057 56.164C236.761 57.3667 237.113 58.7233 237.113 60.234C237.113 61.7447 236.761 63.1087 236.057 64.326C235.353 65.5287 234.4 66.4673 233.197 67.142C231.994 67.8167 230.667 68.154 229.215 68.154ZM229.215 64.722C230.447 64.722 231.43 64.3113 232.163 63.49C232.911 62.6687 233.285 61.5833 233.285 60.234C233.285 58.87 232.911 57.7847 232.163 56.978C231.43 56.1567 230.447 55.746 229.215 55.746C227.968 55.746 226.971 56.1493 226.223 56.956C225.49 57.7627 225.123 58.8553 225.123 60.234C225.123 61.598 225.49 62.6907 226.223 63.512C226.971 64.3187 227.968 64.722 229.215 64.722ZM253.022 68H249.26L242.968 58.474V68H239.206V52.556H242.968L249.26 62.126V52.556H253.022V68ZM264.173 55.57V58.694H269.211V61.598H264.173V64.986H269.871V68H260.411V52.556H269.871V55.57H264.173ZM277.901 68.154C276.772 68.154 275.76 67.9707 274.865 67.604C273.971 67.2373 273.252 66.6947 272.709 65.976C272.181 65.2573 271.903 64.392 271.873 63.38H275.877C275.936 63.952 276.134 64.392 276.471 64.7C276.809 64.9933 277.249 65.14 277.791 65.14C278.349 65.14 278.789 65.0153 279.111 64.766C279.434 64.502 279.595 64.1427 279.595 63.688C279.595 63.3067 279.463 62.9913 279.199 62.742C278.95 62.4927 278.635 62.2873 278.253 62.126C277.887 61.9647 277.359 61.7813 276.669 61.576C275.672 61.268 274.858 60.96 274.227 60.652C273.597 60.344 273.054 59.8893 272.599 59.288C272.145 58.6867 271.917 57.902 271.917 56.934C271.917 55.4967 272.438 54.3747 273.479 53.568C274.521 52.7467 275.877 52.336 277.549 52.336C279.251 52.336 280.622 52.7467 281.663 53.568C282.705 54.3747 283.262 55.504 283.335 56.956H279.265C279.236 56.4573 279.053 56.0687 278.715 55.79C278.378 55.4967 277.945 55.35 277.417 55.35C276.963 55.35 276.596 55.4747 276.317 55.724C276.039 55.9587 275.899 56.3033 275.899 56.758C275.899 57.2567 276.134 57.6453 276.603 57.924C277.073 58.2027 277.806 58.5033 278.803 58.826C279.801 59.1633 280.607 59.486 281.223 59.794C281.854 60.102 282.397 60.5493 282.851 61.136C283.306 61.7227 283.533 62.478 283.533 63.402C283.533 64.282 283.306 65.0813 282.851 65.8C282.411 66.5187 281.766 67.0907 280.915 67.516C280.065 67.9413 279.06 68.154 277.901 68.154ZM296.958 52.556V55.57H292.866V68H289.104V55.57H285.012V52.556H296.958ZM308.46 65.272H302.696L301.772 68H297.834L303.422 52.556H307.778L313.366 68H309.384L308.46 65.272ZM307.492 62.368L305.578 56.714L303.686 62.368H307.492ZM333.545 68H329.783L323.491 58.474V68H319.729V52.556H323.491L329.783 62.126V52.556H333.545V68ZM343.576 68.154C342.124 68.154 340.79 67.8167 339.572 67.142C338.37 66.4673 337.409 65.5287 336.69 64.326C335.986 63.1087 335.634 61.7447 335.634 60.234C335.634 58.7233 335.986 57.3667 336.69 56.164C337.409 54.9613 338.37 54.0227 339.572 53.348C340.79 52.6733 342.124 52.336 343.576 52.336C345.028 52.336 346.356 52.6733 347.558 53.348C348.776 54.0227 349.729 54.9613 350.418 56.164C351.122 57.3667 351.474 58.7233 351.474 60.234C351.474 61.7447 351.122 63.1087 350.418 64.326C349.714 65.5287 348.761 66.4673 347.558 67.142C346.356 67.8167 345.028 68.154 343.576 68.154ZM343.576 64.722C344.808 64.722 345.791 64.3113 346.524 63.49C347.272 62.6687 347.646 61.5833 347.646 60.234C347.646 58.87 347.272 57.7847 346.524 56.978C345.791 56.1567 344.808 55.746 343.576 55.746C342.33 55.746 341.332 56.1493 340.584 56.956C339.851 57.7627 339.484 58.8553 339.484 60.234C339.484 61.598 339.851 62.6907 340.584 63.512C341.332 64.3187 342.33 64.722 343.576 64.722ZM362.917 60.08C363.812 60.2707 364.53 60.718 365.073 61.422C365.616 62.1113 365.887 62.9033 365.887 63.798C365.887 65.0887 365.432 66.1153 364.523 66.878C363.628 67.626 362.374 68 360.761 68H353.567V52.556H360.519C362.088 52.556 363.313 52.9153 364.193 53.634C365.088 54.3527 365.535 55.328 365.535 56.56C365.535 57.4693 365.293 58.2247 364.809 58.826C364.34 59.4273 363.709 59.8453 362.917 60.08ZM357.329 58.804H359.793C360.409 58.804 360.878 58.672 361.201 58.408C361.538 58.1293 361.707 57.726 361.707 57.198C361.707 56.67 361.538 56.2667 361.201 55.988C360.878 55.7093 360.409 55.57 359.793 55.57H357.329V58.804ZM360.101 64.964C360.732 64.964 361.216 64.8247 361.553 64.546C361.905 64.2527 362.081 63.8347 362.081 63.292C362.081 62.7493 361.898 62.324 361.531 62.016C361.179 61.708 360.688 61.554 360.057 61.554H357.329V64.964H360.101ZM371.831 65.096H376.759V68H368.069V52.556H371.831V65.096ZM382.315 55.57V58.694H387.353V61.598H382.315V64.986H388.013V68H378.553V52.556H388.013V55.57H382.315ZM394.48 60.256C394.48 58.7307 394.81 57.374 395.47 56.186C396.13 54.9833 397.047 54.052 398.22 53.392C399.408 52.7173 400.75 52.38 402.246 52.38C404.079 52.38 405.649 52.864 406.954 53.832C408.259 54.8 409.132 56.12 409.572 57.792H405.436C405.128 57.1467 404.688 56.6553 404.116 56.318C403.559 55.9807 402.921 55.812 402.202 55.812C401.043 55.812 400.105 56.2153 399.386 57.022C398.667 57.8287 398.308 58.9067 398.308 60.256C398.308 61.6053 398.667 62.6833 399.386 63.49C400.105 64.2967 401.043 64.7 402.202 64.7C402.921 64.7 403.559 64.5313 404.116 64.194C404.688 63.8567 405.128 63.3653 405.436 62.72H409.572C409.132 64.392 408.259 65.712 406.954 66.68C405.649 67.6333 404.079 68.11 402.246 68.11C400.75 68.11 399.408 67.78 398.22 67.12C397.047 66.4453 396.13 65.514 395.47 64.326C394.81 63.138 394.48 61.7813 394.48 60.256ZM421.49 65.272H415.726L414.802 68H410.864L416.452 52.556H420.808L426.396 68H422.414L421.49 65.272ZM420.522 62.368L418.608 56.714L416.716 62.368H420.522ZM431.792 52.556V61.796C431.792 62.72 432.02 63.4313 432.474 63.93C432.929 64.4287 433.596 64.678 434.476 64.678C435.356 64.678 436.031 64.4287 436.5 63.93C436.97 63.4313 437.204 62.72 437.204 61.796V52.556H440.966V61.774C440.966 63.1527 440.673 64.3187 440.086 65.272C439.5 66.2253 438.708 66.944 437.71 67.428C436.728 67.912 435.628 68.154 434.41 68.154C433.193 68.154 432.1 67.9193 431.132 67.45C430.179 66.966 429.424 66.2473 428.866 65.294C428.309 64.326 428.03 63.1527 428.03 61.774V52.556H431.792ZM449.196 68.154C448.067 68.154 447.055 67.9707 446.16 67.604C445.265 67.2373 444.547 66.6947 444.004 65.976C443.476 65.2573 443.197 64.392 443.168 63.38H447.172C447.231 63.952 447.429 64.392 447.766 64.7C448.103 64.9933 448.543 65.14 449.086 65.14C449.643 65.14 450.083 65.0153 450.406 64.766C450.729 64.502 450.89 64.1427 450.89 63.688C450.89 63.3067 450.758 62.9913 450.494 62.742C450.245 62.4927 449.929 62.2873 449.548 62.126C449.181 61.9647 448.653 61.7813 447.964 61.576C446.967 61.268 446.153 60.96 445.522 60.652C444.891 60.344 444.349 59.8893 443.894 59.288C443.439 58.6867 443.212 57.902 443.212 56.934C443.212 55.4967 443.733 54.3747 444.774 53.568C445.815 52.7467 447.172 52.336 448.844 52.336C450.545 52.336 451.917 52.7467 452.958 53.568C453.999 54.3747 454.557 55.504 454.63 56.956H450.56C450.531 56.4573 450.347 56.0687 450.01 55.79C449.673 55.4967 449.24 55.35 448.712 55.35C448.257 55.35 447.891 55.4747 447.612 55.724C447.333 55.9587 447.194 56.3033 447.194 56.758C447.194 57.2567 447.429 57.6453 447.898 57.924C448.367 58.2027 449.101 58.5033 450.098 58.826C451.095 59.1633 451.902 59.486 452.518 59.794C453.149 60.102 453.691 60.5493 454.146 61.136C454.601 61.7227 454.828 62.478 454.828 63.402C454.828 64.282 454.601 65.0813 454.146 65.8C453.706 66.5187 453.061 67.0907 452.21 67.516C451.359 67.9413 450.355 68.154 449.196 68.154ZM466.757 65.272H460.993L460.069 68H456.131L461.719 52.556H466.075L471.663 68H467.681L466.757 65.272ZM465.789 62.368L463.875 56.714L461.983 62.368H465.789Z" fill="#073B4C"/>
<g filter="url(#filter0_d_430_2402)">
<path d="M325.552 354C325.552 337.431 338.983 324 355.552 324H451.552C468.121 324 481.552 337.431 481.552 354V360C481.552 376.569 468.121 390 451.552 390H355.552C338.983 390 325.552 376.569 325.552 360V354Z" fill="#06D6A0"/>
<path d="M388.072 336.9V351H384.152V345.34H379.372V351H375.452V336.9H379.372V342.2H384.152V336.9H388.072ZM389.675 345.38C389.675 344.22 389.882 343.207 390.295 342.34C390.722 341.473 391.295 340.807 392.015 340.34C392.749 339.873 393.562 339.64 394.455 339.64C395.229 339.64 395.895 339.793 396.455 340.1C397.015 340.407 397.449 340.82 397.755 341.34V339.78H401.675V351H397.755V349.44C397.449 349.96 397.009 350.373 396.435 350.68C395.875 350.987 395.215 351.14 394.455 351.14C393.562 351.14 392.749 350.907 392.015 350.44C391.295 349.973 390.722 349.307 390.295 348.44C389.882 347.56 389.675 346.54 389.675 345.38ZM397.755 345.38C397.755 344.66 397.555 344.093 397.155 343.68C396.769 343.267 396.289 343.06 395.715 343.06C395.129 343.06 394.642 343.267 394.255 343.68C393.869 344.08 393.675 344.647 393.675 345.38C393.675 346.1 393.869 346.673 394.255 347.1C394.642 347.513 395.129 347.72 395.715 347.72C396.289 347.72 396.769 347.513 397.155 347.1C397.555 346.687 397.755 346.113 397.755 345.38ZM407.629 347.74H412.409V351H403.309V347.9L407.769 343.04H403.349V339.78H412.249V342.88L407.629 347.74ZM420.666 347.66V351H418.966C416.099 351 414.666 349.58 414.666 346.74V343.04H413.286V339.78H414.666V337.06H418.606V339.78H420.646V343.04H418.606V346.8C418.606 347.107 418.672 347.327 418.806 347.46C418.952 347.593 419.192 347.66 419.526 347.66H420.666ZM433.184 345.26C433.184 345.567 433.164 345.873 433.124 346.18H425.704C425.744 346.793 425.91 347.253 426.204 347.56C426.51 347.853 426.897 348 427.364 348C428.017 348 428.484 347.707 428.764 347.12H432.944C432.77 347.893 432.43 348.587 431.924 349.2C431.43 349.8 430.804 350.273 430.044 350.62C429.284 350.967 428.444 351.14 427.524 351.14C426.417 351.14 425.43 350.907 424.564 350.44C423.71 349.973 423.037 349.307 422.544 348.44C422.064 347.573 421.824 346.553 421.824 345.38C421.824 344.207 422.064 343.193 422.544 342.34C423.024 341.473 423.69 340.807 424.544 340.34C425.41 339.873 426.404 339.64 427.524 339.64C428.63 339.64 429.61 339.867 430.464 340.32C431.317 340.773 431.984 341.427 432.464 342.28C432.944 343.12 433.184 344.113 433.184 345.26ZM429.184 344.28C429.184 343.8 429.024 343.427 428.704 343.16C428.384 342.88 427.984 342.74 427.504 342.74C427.024 342.74 426.63 342.873 426.324 343.14C426.017 343.393 425.817 343.773 425.724 344.28H429.184ZM382.374 377.14C380.734 377.14 379.387 376.753 378.334 375.98C377.28 375.193 376.714 374.073 376.634 372.62H380.814C380.854 373.113 381 373.473 381.254 373.7C381.507 373.927 381.834 374.04 382.234 374.04C382.594 374.04 382.887 373.953 383.114 373.78C383.354 373.593 383.474 373.34 383.474 373.02C383.474 372.607 383.28 372.287 382.894 372.06C382.507 371.833 381.88 371.58 381.014 371.3C380.094 370.993 379.347 370.7 378.774 370.42C378.214 370.127 377.72 369.707 377.294 369.16C376.88 368.6 376.674 367.873 376.674 366.98C376.674 366.073 376.9 365.3 377.354 364.66C377.807 364.007 378.434 363.513 379.234 363.18C380.034 362.847 380.94 362.68 381.954 362.68C383.594 362.68 384.9 363.067 385.874 363.84C386.86 364.6 387.387 365.673 387.454 367.06H383.194C383.18 366.633 383.047 366.313 382.794 366.1C382.554 365.887 382.24 365.78 381.854 365.78C381.56 365.78 381.32 365.867 381.134 366.04C380.947 366.213 380.854 366.46 380.854 366.78C380.854 367.047 380.954 367.28 381.154 367.48C381.367 367.667 381.627 367.833 381.934 367.98C382.24 368.113 382.694 368.287 383.294 368.5C384.187 368.807 384.92 369.113 385.494 369.42C386.08 369.713 386.58 370.133 386.994 370.68C387.42 371.213 387.634 371.893 387.634 372.72C387.634 373.56 387.42 374.313 386.994 374.98C386.58 375.647 385.974 376.173 385.174 376.56C384.387 376.947 383.454 377.14 382.374 377.14ZM394.676 377.14C393.556 377.14 392.549 376.907 391.656 376.44C390.776 375.973 390.083 375.307 389.576 374.44C389.069 373.573 388.816 372.553 388.816 371.38C388.816 370.22 389.069 369.207 389.576 368.34C390.096 367.473 390.796 366.807 391.676 366.34C392.569 365.873 393.576 365.64 394.696 365.64C395.816 365.64 396.816 365.873 397.696 366.34C398.589 366.807 399.289 367.473 399.796 368.34C400.316 369.207 400.576 370.22 400.576 371.38C400.576 372.54 400.316 373.56 399.796 374.44C399.289 375.307 398.589 375.973 397.696 376.44C396.803 376.907 395.796 377.14 394.676 377.14ZM394.676 373.74C395.223 373.74 395.676 373.54 396.036 373.14C396.409 372.727 396.596 372.14 396.596 371.38C396.596 370.62 396.409 370.04 396.036 369.64C395.676 369.24 395.229 369.04 394.696 369.04C394.163 369.04 393.716 369.24 393.356 369.64C392.996 370.04 392.816 370.62 392.816 371.38C392.816 372.153 392.989 372.74 393.336 373.14C393.683 373.54 394.129 373.74 394.676 373.74ZM401.531 371.38C401.531 370.22 401.771 369.207 402.251 368.34C402.731 367.473 403.397 366.807 404.251 366.34C405.117 365.873 406.104 365.64 407.211 365.64C408.637 365.64 409.837 366.033 410.811 366.82C411.784 367.593 412.411 368.68 412.691 370.08H408.531C408.291 369.347 407.824 368.98 407.131 368.98C406.637 368.98 406.244 369.187 405.951 369.6C405.671 370 405.531 370.593 405.531 371.38C405.531 372.167 405.671 372.767 405.951 373.18C406.244 373.593 406.637 373.8 407.131 373.8C407.837 373.8 408.304 373.433 408.531 372.7H412.691C412.411 374.087 411.784 375.173 410.811 375.96C409.837 376.747 408.637 377.14 407.211 377.14C406.104 377.14 405.117 376.907 404.251 376.44C403.397 375.973 402.731 375.307 402.251 374.44C401.771 373.573 401.531 372.553 401.531 371.38ZM416.299 364.74C415.606 364.74 415.046 364.553 414.619 364.18C414.206 363.793 413.999 363.313 413.999 362.74C413.999 362.153 414.206 361.667 414.619 361.28C415.046 360.893 415.606 360.7 416.299 360.7C416.979 360.7 417.526 360.893 417.939 361.28C418.366 361.667 418.579 362.153 418.579 362.74C418.579 363.313 418.366 363.793 417.939 364.18C417.526 364.553 416.979 364.74 416.299 364.74ZM418.239 365.78V377H414.319V365.78H418.239ZM425.692 377.14C424.572 377.14 423.565 376.907 422.672 376.44C421.792 375.973 421.098 375.307 420.592 374.44C420.085 373.573 419.832 372.553 419.832 371.38C419.832 370.22 420.085 369.207 420.592 368.34C421.112 367.473 421.812 366.807 422.692 366.34C423.585 365.873 424.592 365.64 425.712 365.64C426.832 365.64 427.832 365.873 428.712 366.34C429.605 366.807 430.305 367.473 430.812 368.34C431.332 369.207 431.592 370.22 431.592 371.38C431.592 372.54 431.332 373.56 430.812 374.44C430.305 375.307 429.605 375.973 428.712 376.44C427.818 376.907 426.812 377.14 425.692 377.14ZM425.692 373.74C426.238 373.74 426.692 373.54 427.052 373.14C427.425 372.727 427.612 372.14 427.612 371.38C427.612 370.62 427.425 370.04 427.052 369.64C426.692 369.24 426.245 369.04 425.712 369.04C425.178 369.04 424.732 369.24 424.372 369.64C424.012 370.04 423.832 370.62 423.832 371.38C423.832 372.153 424.005 372.74 424.352 373.14C424.698 373.54 425.145 373.74 425.692 373.74Z" fill="#073B4C"/>
</g>
<g filter="url(#filter1_d_430_2402)">
<rect x="76" y="324" width="156" height="66" rx="30" fill="#06D6A0"/>
<path d="M132.818 336.9V351H128.898V345.34H124.118V351H120.198V336.9H124.118V342.2H128.898V336.9H132.818ZM134.421 345.38C134.421 344.22 134.628 343.207 135.041 342.34C135.468 341.473 136.041 340.807 136.761 340.34C137.495 339.873 138.308 339.64 139.201 339.64C139.975 339.64 140.641 339.793 141.201 340.1C141.761 340.407 142.195 340.82 142.501 341.34V339.78H146.421V351H142.501V349.44C142.195 349.96 141.755 350.373 141.181 350.68C140.621 350.987 139.961 351.14 139.201 351.14C138.308 351.14 137.495 350.907 136.761 350.44C136.041 349.973 135.468 349.307 135.041 348.44C134.628 347.56 134.421 346.54 134.421 345.38ZM142.501 345.38C142.501 344.66 142.301 344.093 141.901 343.68C141.515 343.267 141.035 343.06 140.461 343.06C139.875 343.06 139.388 343.267 139.001 343.68C138.615 344.08 138.421 344.647 138.421 345.38C138.421 346.1 138.615 346.673 139.001 347.1C139.388 347.513 139.875 347.72 140.461 347.72C141.035 347.72 141.515 347.513 141.901 347.1C142.301 346.687 142.501 346.113 142.501 345.38ZM152.375 347.74H157.155V351H148.055V347.9L152.515 343.04H148.095V339.78H156.995V342.88L152.375 347.74ZM174.1 339.78V351H170.16V349.4C169.827 349.907 169.367 350.32 168.78 350.64C168.193 350.947 167.52 351.1 166.76 351.1C165.453 351.1 164.42 350.673 163.66 349.82C162.913 348.953 162.54 347.78 162.54 346.3V339.78H166.44V345.8C166.44 346.44 166.607 346.947 166.94 347.32C167.287 347.68 167.74 347.86 168.3 347.86C168.873 347.86 169.327 347.68 169.66 347.32C169.993 346.947 170.16 346.44 170.16 345.8V339.78H174.1ZM183.671 339.68C184.964 339.68 185.991 340.113 186.751 340.98C187.511 341.833 187.891 342.993 187.891 344.46V351H183.971V344.98C183.971 344.34 183.804 343.84 183.471 343.48C183.138 343.107 182.691 342.92 182.131 342.92C181.544 342.92 181.084 343.107 180.751 343.48C180.418 343.84 180.251 344.34 180.251 344.98V351H176.331V339.78H180.251V341.38C180.598 340.873 181.064 340.467 181.651 340.16C182.238 339.84 182.911 339.68 183.671 339.68ZM113.2 362.9C114.68 362.9 115.973 363.2 117.08 363.8C118.2 364.387 119.06 365.213 119.66 366.28C120.26 367.347 120.56 368.567 120.56 369.94C120.56 371.3 120.253 372.513 119.64 373.58C119.04 374.647 118.18 375.487 117.06 376.1C115.953 376.7 114.667 377 113.2 377H107.62V362.9H113.2ZM112.9 373.54C114.047 373.54 114.947 373.227 115.6 372.6C116.253 371.973 116.58 371.087 116.58 369.94C116.58 368.78 116.253 367.887 115.6 367.26C114.947 366.62 114.047 366.3 112.9 366.3H111.54V373.54H112.9ZM127.547 377.14C126.427 377.14 125.42 376.907 124.527 376.44C123.647 375.973 122.954 375.307 122.447 374.44C121.94 373.573 121.687 372.553 121.687 371.38C121.687 370.22 121.94 369.207 122.447 368.34C122.967 367.473 123.667 366.807 124.547 366.34C125.44 365.873 126.447 365.64 127.567 365.64C128.687 365.64 129.687 365.873 130.567 366.34C131.46 366.807 132.16 367.473 132.667 368.34C133.187 369.207 133.447 370.22 133.447 371.38C133.447 372.54 133.187 373.56 132.667 374.44C132.16 375.307 131.46 375.973 130.567 376.44C129.674 376.907 128.667 377.14 127.547 377.14ZM127.547 373.74C128.094 373.74 128.547 373.54 128.907 373.14C129.28 372.727 129.467 372.14 129.467 371.38C129.467 370.62 129.28 370.04 128.907 369.64C128.547 369.24 128.1 369.04 127.567 369.04C127.034 369.04 126.587 369.24 126.227 369.64C125.867 370.04 125.687 370.62 125.687 371.38C125.687 372.153 125.86 372.74 126.207 373.14C126.554 373.54 127 373.74 127.547 373.74ZM142.382 365.68C143.675 365.68 144.702 366.113 145.462 366.98C146.222 367.833 146.602 368.993 146.602 370.46V377H142.682V370.98C142.682 370.34 142.515 369.84 142.182 369.48C141.849 369.107 141.402 368.92 140.842 368.92C140.255 368.92 139.795 369.107 139.462 369.48C139.129 369.84 138.962 370.34 138.962 370.98V377H135.042V365.78H138.962V367.38C139.309 366.873 139.775 366.467 140.362 366.16C140.949 365.84 141.622 365.68 142.382 365.68ZM148.113 371.38C148.113 370.22 148.319 369.207 148.733 368.34C149.159 367.473 149.733 366.807 150.453 366.34C151.186 365.873 151.999 365.64 152.893 365.64C153.666 365.64 154.333 365.793 154.893 366.1C155.453 366.407 155.886 366.82 156.193 367.34V365.78H160.113V377H156.193V375.44C155.886 375.96 155.446 376.373 154.873 376.68C154.313 376.987 153.653 377.14 152.893 377.14C151.999 377.14 151.186 376.907 150.453 376.44C149.733 375.973 149.159 375.307 148.733 374.44C148.319 373.56 148.113 372.54 148.113 371.38ZM156.193 371.38C156.193 370.66 155.993 370.093 155.593 369.68C155.206 369.267 154.726 369.06 154.153 369.06C153.566 369.06 153.079 369.267 152.693 369.68C152.306 370.08 152.113 370.647 152.113 371.38C152.113 372.1 152.306 372.673 152.693 373.1C153.079 373.513 153.566 373.72 154.153 373.72C154.726 373.72 155.206 373.513 155.593 373.1C155.993 372.687 156.193 372.113 156.193 371.38ZM168.967 373.66V377H167.267C164.4 377 162.967 375.58 162.967 372.74V369.04H161.587V365.78H162.967V363.06H166.907V365.78H168.947V369.04H166.907V372.8C166.907 373.107 166.973 373.327 167.107 373.46C167.253 373.593 167.493 373.66 167.827 373.66H168.967ZM172.745 364.74C172.051 364.74 171.491 364.553 171.065 364.18C170.651 363.793 170.445 363.313 170.445 362.74C170.445 362.153 170.651 361.667 171.065 361.28C171.491 360.893 172.051 360.7 172.745 360.7C173.425 360.7 173.971 360.893 174.385 361.28C174.811 361.667 175.025 362.153 175.025 362.74C175.025 363.313 174.811 363.793 174.385 364.18C173.971 364.553 173.425 364.74 172.745 364.74ZM174.685 365.78V377H170.765V365.78H174.685ZM182.297 373.3L184.397 365.78H188.577L184.717 377H179.837L175.977 365.78H180.157L182.297 373.3ZM195.125 377.14C194.005 377.14 192.998 376.907 192.105 376.44C191.225 375.973 190.532 375.307 190.025 374.44C189.518 373.573 189.265 372.553 189.265 371.38C189.265 370.22 189.518 369.207 190.025 368.34C190.545 367.473 191.245 366.807 192.125 366.34C193.018 365.873 194.025 365.64 195.145 365.64C196.265 365.64 197.265 365.873 198.145 366.34C199.038 366.807 199.738 367.473 200.245 368.34C200.765 369.207 201.025 370.22 201.025 371.38C201.025 372.54 200.765 373.56 200.245 374.44C199.738 375.307 199.038 375.973 198.145 376.44C197.252 376.907 196.245 377.14 195.125 377.14ZM195.125 373.74C195.672 373.74 196.125 373.54 196.485 373.14C196.858 372.727 197.045 372.14 197.045 371.38C197.045 370.62 196.858 370.04 196.485 369.64C196.125 369.24 195.678 369.04 195.145 369.04C194.612 369.04 194.165 369.24 193.805 369.64C193.445 370.04 193.265 370.62 193.265 371.38C193.265 372.153 193.438 372.74 193.785 373.14C194.132 373.54 194.578 373.74 195.125 373.74Z" fill="#073B4C"/>
</g>
</g>
<defs>
<filter id="filter0_d_430_2402" x="321.552" y="324" width="164" height="74" filterUnits="userSpaceOnUse" color-interpolation-filters="sRGB">
<feFlood flood-opacity="0" result="BackgroundImageFix"/>
<feColorMatrix in="SourceAlpha" type="matrix" values="0 0 0 0 0 0 0 0 0 0 0 0 0 0 0 0 0 0 127 0" result="hardAlpha"/>
<feOffset dy="4"/>
<feGaussianBlur stdDeviation="2"/>
<feComposite in2="hardAlpha" operator="out"/>
<feColorMatrix type="matrix" values="0 0 0 0 0 0 0 0 0 0 0 0 0 0 0 0 0 0 0.25 0"/>
<feBlend mode="normal" in2="BackgroundImageFix" result="effect1_dropShadow_430_2402"/>
<feBlend mode="normal" in="SourceGraphic" in2="effect1_dropShadow_430_2402" result="shape"/>
</filter>
<filter id="filter1_d_430_2402" x="72" y="324" width="164" height="74" filterUnits="userSpaceOnUse" color-interpolation-filters="sRGB">
<feFlood flood-opacity="0" result="BackgroundImageFix"/>
<feColorMatrix in="SourceAlpha" type="matrix" values="0 0 0 0 0 0 0 0 0 0 0 0 0 0 0 0 0 0 127 0" result="hardAlpha"/>
<feOffset dy="4"/>
<feGaussianBlur stdDeviation="2"/>
<feComposite in2="hardAlpha" operator="out"/>
<feColorMatrix type="matrix" values="0 0 0 0 0 0 0 0 0 0 0 0 0 0 0 0 0 0 0.25 0"/>
<feBlend mode="normal" in2="BackgroundImageFix" result="effect1_dropShadow_430_2402"/>
<feBlend mode="normal" in="SourceGraphic" in2="effect1_dropShadow_430_2402" result="shape"/>
</filter>
<clipPath id="clip0_430_2402">
<rect width="1440" height="500" rx="20" fill="white"/>
</clipPath>
</defs>
</svg>
