<svg width="430" height="651" viewBox="0 0 430 651" fill="none" xmlns="http://www.w3.org/2000/svg">
<g clip-path="url(#clip0_486_7428)">
<rect width="430" height="651" fill="#FFE5E5"/>
<g filter="url(#filter0_d_486_7428)">
<rect x="215" y="188" width="165.548" height="103.803" rx="30" fill="#06D6A0"/>
<path d="M278.032 213.08V230H273.328V223.208H267.592V230H262.888V213.08H267.592V219.44H273.328V213.08H278.032ZM279.956 223.256C279.956 221.864 280.204 220.648 280.7 219.608C281.212 218.568 281.9 217.768 282.764 217.208C283.644 216.648 284.62 216.368 285.692 216.368C286.62 216.368 287.42 216.552 288.092 216.92C288.764 217.288 289.284 217.784 289.652 218.408V216.536H294.356V230H289.652V228.128C289.284 228.752 288.756 229.248 288.068 229.616C287.396 229.984 286.604 230.168 285.692 230.168C284.62 230.168 283.644 229.888 282.764 229.328C281.9 228.768 281.212 227.968 280.7 226.928C280.204 225.872 279.956 224.648 279.956 223.256ZM289.652 223.256C289.652 222.392 289.412 221.712 288.932 221.216C288.468 220.72 287.892 220.472 287.204 220.472C286.5 220.472 285.916 220.72 285.452 221.216C284.988 221.696 284.756 222.376 284.756 223.256C284.756 224.12 284.988 224.808 285.452 225.32C285.916 225.816 286.5 226.064 287.204 226.064C287.892 226.064 288.468 225.816 288.932 225.32C289.412 224.824 289.652 224.136 289.652 223.256ZM301.5 226.088H307.236V230H296.316V226.28L301.668 220.448H296.364V216.536H307.044V220.256L301.5 226.088ZM317.144 225.992V230H315.104C311.664 230 309.944 228.296 309.944 224.888V220.448H308.288V216.536H309.944V213.272H314.672V216.536H317.12V220.448H314.672V224.96C314.672 225.328 314.752 225.592 314.912 225.752C315.088 225.912 315.376 225.992 315.776 225.992H317.144ZM332.166 223.112C332.166 223.48 332.142 223.848 332.094 224.216H323.19C323.238 224.952 323.438 225.504 323.79 225.872C324.158 226.224 324.622 226.4 325.182 226.4C325.966 226.4 326.526 226.048 326.862 225.344H331.878C331.67 226.272 331.262 227.104 330.654 227.84C330.062 228.56 329.31 229.128 328.398 229.544C327.486 229.96 326.478 230.168 325.374 230.168C324.046 230.168 322.862 229.888 321.822 229.328C320.798 228.768 319.99 227.968 319.398 226.928C318.822 225.888 318.534 224.664 318.534 223.256C318.534 221.848 318.822 220.632 319.398 219.608C319.974 218.568 320.774 217.768 321.798 217.208C322.838 216.648 324.03 216.368 325.374 216.368C326.702 216.368 327.878 216.64 328.902 217.184C329.926 217.728 330.726 218.512 331.302 219.536C331.878 220.544 332.166 221.736 332.166 223.112ZM327.366 221.936C327.366 221.36 327.174 220.912 326.79 220.592C326.406 220.256 325.926 220.088 325.35 220.088C324.774 220.088 324.302 220.248 323.934 220.568C323.566 220.872 323.326 221.328 323.214 221.936H327.366ZM271.194 266.168C269.226 266.168 267.61 265.704 266.346 264.776C265.082 263.832 264.402 262.488 264.306 260.744H269.322C269.37 261.336 269.546 261.768 269.85 262.04C270.154 262.312 270.546 262.448 271.026 262.448C271.458 262.448 271.81 262.344 272.082 262.136C272.37 261.912 272.514 261.608 272.514 261.224C272.514 260.728 272.282 260.344 271.818 260.072C271.354 259.8 270.602 259.496 269.562 259.16C268.458 258.792 267.562 258.44 266.874 258.104C266.202 257.752 265.61 257.248 265.098 256.592C264.602 255.92 264.354 255.048 264.354 253.976C264.354 252.888 264.626 251.96 265.17 251.192C265.714 250.408 266.466 249.816 267.426 249.416C268.386 249.016 269.474 248.816 270.69 248.816C272.658 248.816 274.226 249.28 275.394 250.208C276.578 251.12 277.21 252.408 277.29 254.072H272.178C272.162 253.56 272.002 253.176 271.698 252.92C271.41 252.664 271.034 252.536 270.57 252.536C270.218 252.536 269.93 252.64 269.706 252.848C269.482 253.056 269.37 253.352 269.37 253.736C269.37 254.056 269.49 254.336 269.73 254.576C269.986 254.8 270.298 255 270.666 255.176C271.034 255.336 271.578 255.544 272.298 255.8C273.37 256.168 274.25 256.536 274.938 256.904C275.642 257.256 276.242 257.76 276.738 258.416C277.25 259.056 277.506 259.872 277.506 260.864C277.506 261.872 277.25 262.776 276.738 263.576C276.242 264.376 275.514 265.008 274.554 265.472C273.61 265.936 272.49 266.168 271.194 266.168ZM285.957 266.168C284.613 266.168 283.405 265.888 282.333 265.328C281.277 264.768 280.445 263.968 279.837 262.928C279.229 261.888 278.925 260.664 278.925 259.256C278.925 257.864 279.229 256.648 279.837 255.608C280.461 254.568 281.301 253.768 282.357 253.208C283.429 252.648 284.637 252.368 285.981 252.368C287.325 252.368 288.525 252.648 289.581 253.208C290.653 253.768 291.493 254.568 292.101 255.608C292.725 256.648 293.037 257.864 293.037 259.256C293.037 260.648 292.725 261.872 292.101 262.928C291.493 263.968 290.653 264.768 289.581 265.328C288.509 265.888 287.301 266.168 285.957 266.168ZM285.957 262.088C286.613 262.088 287.157 261.848 287.589 261.368C288.037 260.872 288.261 260.168 288.261 259.256C288.261 258.344 288.037 257.648 287.589 257.168C287.157 256.688 286.621 256.448 285.981 256.448C285.341 256.448 284.805 256.688 284.373 257.168C283.941 257.648 283.725 258.344 283.725 259.256C283.725 260.184 283.933 260.888 284.349 261.368C284.765 261.848 285.301 262.088 285.957 262.088ZM294.182 259.256C294.182 257.864 294.47 256.648 295.046 255.608C295.622 254.568 296.422 253.768 297.446 253.208C298.486 252.648 299.67 252.368 300.998 252.368C302.71 252.368 304.15 252.84 305.318 253.784C306.486 254.712 307.238 256.016 307.574 257.696H302.582C302.294 256.816 301.734 256.376 300.902 256.376C300.31 256.376 299.838 256.624 299.486 257.12C299.15 257.6 298.982 258.312 298.982 259.256C298.982 260.2 299.15 260.92 299.486 261.416C299.838 261.912 300.31 262.16 300.902 262.16C301.75 262.16 302.31 261.72 302.582 260.84H307.574C307.238 262.504 306.486 263.808 305.318 264.752C304.15 265.696 302.71 266.168 300.998 266.168C299.67 266.168 298.486 265.888 297.446 265.328C296.422 264.768 295.622 263.968 295.046 262.928C294.47 261.888 294.182 260.664 294.182 259.256ZM311.905 251.288C311.073 251.288 310.401 251.064 309.889 250.616C309.393 250.152 309.145 249.576 309.145 248.888C309.145 248.184 309.393 247.6 309.889 247.136C310.401 246.672 311.073 246.44 311.905 246.44C312.721 246.44 313.377 246.672 313.873 247.136C314.385 247.6 314.641 248.184 314.641 248.888C314.641 249.576 314.385 250.152 313.873 250.616C313.377 251.064 312.721 251.288 311.905 251.288ZM314.233 252.536V266H309.529V252.536H314.233ZM323.175 266.168C321.831 266.168 320.623 265.888 319.551 265.328C318.495 264.768 317.663 263.968 317.055 262.928C316.447 261.888 316.143 260.664 316.143 259.256C316.143 257.864 316.447 256.648 317.055 255.608C317.679 254.568 318.519 253.768 319.575 253.208C320.647 252.648 321.855 252.368 323.199 252.368C324.543 252.368 325.743 252.648 326.799 253.208C327.871 253.768 328.711 254.568 329.319 255.608C329.943 256.648 330.255 257.864 330.255 259.256C330.255 260.648 329.943 261.872 329.319 262.928C328.711 263.968 327.871 264.768 326.799 265.328C325.727 265.888 324.519 266.168 323.175 266.168ZM323.175 262.088C323.831 262.088 324.375 261.848 324.807 261.368C325.255 260.872 325.479 260.168 325.479 259.256C325.479 258.344 325.255 257.648 324.807 257.168C324.375 256.688 323.839 256.448 323.199 256.448C322.559 256.448 322.023 256.688 321.591 257.168C321.159 257.648 320.943 258.344 320.943 259.256C320.943 260.184 321.151 260.888 321.567 261.368C321.983 261.848 322.519 262.088 323.175 262.088Z" fill="#073B4C"/>
</g>
<g filter="url(#filter1_d_486_7428)">
<rect x="27" y="188" width="165.548" height="103.803" rx="30" fill="#06D6A0"/>
<path d="M86.3933 217.49V233H82.0813V226.774H76.8233V233H72.5113V217.49H76.8233V223.32H82.0813V217.49H86.3933ZM88.1569 226.818C88.1569 225.542 88.3843 224.427 88.8389 223.474C89.3083 222.521 89.9389 221.787 90.7309 221.274C91.5376 220.761 92.4323 220.504 93.4149 220.504C94.2656 220.504 94.9989 220.673 95.6149 221.01C96.2309 221.347 96.7076 221.802 97.0449 222.374V220.658H101.357V233H97.0449V231.284C96.7076 231.856 96.2236 232.311 95.5929 232.648C94.9769 232.985 94.2509 233.154 93.4149 233.154C92.4323 233.154 91.5376 232.897 90.7309 232.384C89.9389 231.871 89.3083 231.137 88.8389 230.184C88.3843 229.216 88.1569 228.094 88.1569 226.818ZM97.0449 226.818C97.0449 226.026 96.8249 225.403 96.3849 224.948C95.9596 224.493 95.4316 224.266 94.8009 224.266C94.1556 224.266 93.6203 224.493 93.1949 224.948C92.7696 225.388 92.5569 226.011 92.5569 226.818C92.5569 227.61 92.7696 228.241 93.1949 228.71C93.6203 229.165 94.1556 229.392 94.8009 229.392C95.4316 229.392 95.9596 229.165 96.3849 228.71C96.8249 228.255 97.0449 227.625 97.0449 226.818ZM107.906 229.414H113.164V233H103.154V229.59L108.06 224.244H103.198V220.658H112.988V224.068L107.906 229.414ZM131.803 220.658V233H127.469V231.24C127.103 231.797 126.597 232.252 125.951 232.604C125.306 232.941 124.565 233.11 123.729 233.11C122.292 233.11 121.155 232.641 120.319 231.702C119.498 230.749 119.087 229.458 119.087 227.83V220.658H123.377V227.28C123.377 227.984 123.561 228.541 123.927 228.952C124.309 229.348 124.807 229.546 125.423 229.546C126.054 229.546 126.553 229.348 126.919 228.952C127.286 228.541 127.469 227.984 127.469 227.28V220.658H131.803ZM142.331 220.548C143.754 220.548 144.883 221.025 145.719 221.978C146.555 222.917 146.973 224.193 146.973 225.806V233H142.661V226.378C142.661 225.674 142.478 225.124 142.111 224.728C141.745 224.317 141.253 224.112 140.637 224.112C139.992 224.112 139.486 224.317 139.119 224.728C138.753 225.124 138.569 225.674 138.569 226.378V233H134.257V220.658H138.569V222.418C138.951 221.861 139.464 221.413 140.109 221.076C140.755 220.724 141.495 220.548 142.331 220.548ZM64.8134 250.49C66.4414 250.49 67.864 250.82 69.0814 251.48C70.3134 252.125 71.2594 253.035 71.9194 254.208C72.5794 255.381 72.9094 256.723 72.9094 258.234C72.9094 259.73 72.572 261.065 71.8974 262.238C71.2374 263.411 70.2914 264.335 69.0594 265.01C67.842 265.67 66.4267 266 64.8134 266H58.6754V250.49H64.8134ZM64.4834 262.194C65.7447 262.194 66.7347 261.849 67.4534 261.16C68.172 260.471 68.5314 259.495 68.5314 258.234C68.5314 256.958 68.172 255.975 67.4534 255.286C66.7347 254.582 65.7447 254.23 64.4834 254.23H62.9874V262.194H64.4834ZM80.5951 266.154C79.3631 266.154 78.2558 265.897 77.2731 265.384C76.3051 264.871 75.5425 264.137 74.9851 263.184C74.4278 262.231 74.1491 261.109 74.1491 259.818C74.1491 258.542 74.4278 257.427 74.9851 256.474C75.5571 255.521 76.3271 254.787 77.2951 254.274C78.2778 253.761 79.3851 253.504 80.6171 253.504C81.8491 253.504 82.9491 253.761 83.9171 254.274C84.8998 254.787 85.6698 255.521 86.2271 256.474C86.7991 257.427 87.0851 258.542 87.0851 259.818C87.0851 261.094 86.7991 262.216 86.2271 263.184C85.6698 264.137 84.8998 264.871 83.9171 265.384C82.9345 265.897 81.8271 266.154 80.5951 266.154ZM80.5951 262.414C81.1965 262.414 81.6951 262.194 82.0911 261.754C82.5018 261.299 82.7071 260.654 82.7071 259.818C82.7071 258.982 82.5018 258.344 82.0911 257.904C81.6951 257.464 81.2038 257.244 80.6171 257.244C80.0305 257.244 79.5391 257.464 79.1431 257.904C78.7471 258.344 78.5491 258.982 78.5491 259.818C78.5491 260.669 78.7398 261.314 79.1211 261.754C79.5025 262.194 79.9938 262.414 80.5951 262.414ZM96.9134 253.548C98.3361 253.548 99.4654 254.025 100.301 254.978C101.137 255.917 101.555 257.193 101.555 258.806V266H97.2434V259.378C97.2434 258.674 97.0601 258.124 96.6934 257.728C96.3268 257.317 95.8354 257.112 95.2194 257.112C94.5741 257.112 94.0681 257.317 93.7014 257.728C93.3348 258.124 93.1514 258.674 93.1514 259.378V266H88.8394V253.658H93.1514V255.418C93.5328 254.861 94.0461 254.413 94.6914 254.076C95.3368 253.724 96.0774 253.548 96.9134 253.548ZM103.217 259.818C103.217 258.542 103.445 257.427 103.899 256.474C104.369 255.521 104.999 254.787 105.791 254.274C106.598 253.761 107.493 253.504 108.475 253.504C109.326 253.504 110.059 253.673 110.675 254.01C111.291 254.347 111.768 254.802 112.105 255.374V253.658H116.417V266H112.105V264.284C111.768 264.856 111.284 265.311 110.653 265.648C110.037 265.985 109.311 266.154 108.475 266.154C107.493 266.154 106.598 265.897 105.791 265.384C104.999 264.871 104.369 264.137 103.899 263.184C103.445 262.216 103.217 261.094 103.217 259.818ZM112.105 259.818C112.105 259.026 111.885 258.403 111.445 257.948C111.02 257.493 110.492 257.266 109.861 257.266C109.216 257.266 108.681 257.493 108.255 257.948C107.83 258.388 107.617 259.011 107.617 259.818C107.617 260.61 107.83 261.241 108.255 261.71C108.681 262.165 109.216 262.392 109.861 262.392C110.492 262.392 111.02 262.165 111.445 261.71C111.885 261.255 112.105 260.625 112.105 259.818ZM126.157 262.326V266H124.287C121.133 266 119.557 264.438 119.557 261.314V257.244H118.039V253.658H119.557V250.666H123.891V253.658H126.135V257.244H123.891V261.38C123.891 261.717 123.964 261.959 124.111 262.106C124.272 262.253 124.536 262.326 124.903 262.326H126.157ZM130.312 252.514C129.55 252.514 128.934 252.309 128.464 251.898C128.01 251.473 127.782 250.945 127.782 250.314C127.782 249.669 128.01 249.133 128.464 248.708C128.934 248.283 129.55 248.07 130.312 248.07C131.06 248.07 131.662 248.283 132.116 248.708C132.586 249.133 132.82 249.669 132.82 250.314C132.82 250.945 132.586 251.473 132.116 251.898C131.662 252.309 131.06 252.514 130.312 252.514ZM132.446 253.658V266H128.134V253.658H132.446ZM140.82 261.93L143.13 253.658H147.728L143.482 266H138.114L133.868 253.658H138.466L140.82 261.93ZM154.931 266.154C153.699 266.154 152.592 265.897 151.609 265.384C150.641 264.871 149.878 264.137 149.321 263.184C148.764 262.231 148.485 261.109 148.485 259.818C148.485 258.542 148.764 257.427 149.321 256.474C149.893 255.521 150.663 254.787 151.631 254.274C152.614 253.761 153.721 253.504 154.953 253.504C156.185 253.504 157.285 253.761 158.253 254.274C159.236 254.787 160.006 255.521 160.563 256.474C161.135 257.427 161.421 258.542 161.421 259.818C161.421 261.094 161.135 262.216 160.563 263.184C160.006 264.137 159.236 264.871 158.253 265.384C157.27 265.897 156.163 266.154 154.931 266.154ZM154.931 262.414C155.532 262.414 156.031 262.194 156.427 261.754C156.838 261.299 157.043 260.654 157.043 259.818C157.043 258.982 156.838 258.344 156.427 257.904C156.031 257.464 155.54 257.244 154.953 257.244C154.366 257.244 153.875 257.464 153.479 257.904C153.083 258.344 152.885 258.982 152.885 259.818C152.885 260.669 153.076 261.314 153.457 261.754C153.838 262.194 154.33 262.414 154.931 262.414Z" fill="#073B4C"/>
</g>
<path d="M28.65 144.4C28.65 140.933 29.4 137.85 30.9 135.15C32.4 132.417 34.4833 130.3 37.15 128.8C39.85 127.267 42.9 126.5 46.3 126.5C50.4667 126.5 54.0333 127.6 57 129.8C59.9667 132 61.95 135 62.95 138.8H53.55C52.85 137.333 51.85 136.217 50.55 135.45C49.2833 134.683 47.8333 134.3 46.2 134.3C43.5667 134.3 41.4333 135.217 39.8 137.05C38.1667 138.883 37.35 141.333 37.35 144.4C37.35 147.467 38.1667 149.917 39.8 151.75C41.4333 153.583 43.5667 154.5 46.2 154.5C47.8333 154.5 49.2833 154.117 50.55 153.35C51.85 152.583 52.85 151.467 53.55 150H62.95C61.95 153.8 59.9667 156.8 57 159C54.0333 161.167 50.4667 162.25 46.3 162.25C42.9 162.25 39.85 161.5 37.15 160C34.4833 158.467 32.4 156.35 30.9 153.65C29.4 150.95 28.65 147.867 28.65 144.4ZM90.0359 155.8H76.9359L74.8359 162H65.8859L78.5859 126.9H88.4859L101.186 162H92.1359L90.0359 155.8ZM87.8359 149.2L83.4859 136.35L79.1859 149.2H87.8359ZM144.801 126.9V162H136.251V140.95L128.401 162H121.501L113.601 140.9V162H105.051V126.9H115.151L125.001 151.2L134.751 126.9H144.801ZM172.2 144C174.233 144.433 175.866 145.45 177.1 147.05C178.333 148.617 178.95 150.417 178.95 152.45C178.95 155.383 177.916 157.717 175.85 159.45C173.816 161.15 170.966 162 167.3 162H150.95V126.9H166.75C170.316 126.9 173.1 127.717 175.1 129.35C177.133 130.983 178.15 133.2 178.15 136C178.15 138.067 177.6 139.783 176.5 141.15C175.433 142.517 174 143.467 172.2 144ZM159.5 141.1H165.1C166.5 141.1 167.566 140.8 168.3 140.2C169.066 139.567 169.45 138.65 169.45 137.45C169.45 136.25 169.066 135.333 168.3 134.7C167.566 134.067 166.5 133.75 165.1 133.75H159.5V141.1ZM165.8 155.1C167.233 155.1 168.333 154.783 169.1 154.15C169.9 153.483 170.3 152.533 170.3 151.3C170.3 150.067 169.883 149.1 169.05 148.4C168.25 147.7 167.133 147.35 165.7 147.35H159.5V155.1H165.8ZM192.459 126.9V162H183.909V126.9H192.459ZM215.255 162.35C211.955 162.35 208.921 161.583 206.155 160.05C203.421 158.517 201.238 156.383 199.605 153.65C198.005 150.883 197.205 147.783 197.205 144.35C197.205 140.917 198.005 137.833 199.605 135.1C201.238 132.367 203.421 130.233 206.155 128.7C208.921 127.167 211.955 126.4 215.255 126.4C218.555 126.4 221.571 127.167 224.305 128.7C227.071 130.233 229.238 132.367 230.805 135.1C232.405 137.833 233.205 140.917 233.205 144.35C233.205 147.783 232.405 150.883 230.805 153.65C229.205 156.383 227.038 158.517 224.305 160.05C221.571 161.583 218.555 162.35 215.255 162.35ZM215.255 154.55C218.055 154.55 220.288 153.617 221.955 151.75C223.655 149.883 224.505 147.417 224.505 144.35C224.505 141.25 223.655 138.783 221.955 136.95C220.288 135.083 218.055 134.15 215.255 134.15C212.421 134.15 210.155 135.067 208.455 136.9C206.788 138.733 205.955 141.217 205.955 144.35C205.955 147.45 206.788 149.933 208.455 151.8C210.155 153.633 212.421 154.55 215.255 154.55Z" fill="#073B4C"/>
<path d="M47.1 85.94V107H41.97V98.33H33.99V107H28.86V85.94H33.99V94.19H41.97V85.94H47.1ZM63.9134 103.28H56.0534L54.7934 107H49.4234L57.0434 85.94H62.9834L70.6034 107H65.1734L63.9134 103.28ZM62.5934 99.32L59.9834 91.61L57.4034 99.32H62.5934ZM78.3825 102.8H87.4425V107H72.5625V103.1L81.5625 90.14H72.5625V85.94H87.4425V89.84L78.3825 102.8ZM113.201 92.72C113.201 93.94 112.921 95.06 112.361 96.08C111.801 97.08 110.941 97.89 109.781 98.51C108.621 99.13 107.181 99.44 105.461 99.44H102.281V107H97.151V85.94H105.461C107.141 85.94 108.561 86.23 109.721 86.81C110.881 87.39 111.751 88.19 112.331 89.21C112.911 90.23 113.201 91.4 113.201 92.72ZM105.071 95.36C106.051 95.36 106.781 95.13 107.261 94.67C107.741 94.21 107.981 93.56 107.981 92.72C107.981 91.88 107.741 91.23 107.261 90.77C106.781 90.31 106.051 90.08 105.071 90.08H102.281V95.36H105.071ZM128.982 103.28H121.122L119.862 107H114.492L122.112 85.94H128.052L135.672 107H130.242L128.982 103.28ZM127.662 99.32L125.052 91.61L122.472 99.32H127.662ZM148.731 107L144.351 99.05H143.121V107H137.991V85.94H146.601C148.261 85.94 149.671 86.23 150.831 86.81C152.011 87.39 152.891 88.19 153.471 89.21C154.051 90.21 154.341 91.33 154.341 92.57C154.341 93.97 153.941 95.22 153.141 96.32C152.361 97.42 151.201 98.2 149.661 98.66L154.521 107H148.731ZM143.121 95.42H146.301C147.241 95.42 147.941 95.19 148.401 94.73C148.881 94.27 149.121 93.62 149.121 92.78C149.121 91.98 148.881 91.35 148.401 90.89C147.941 90.43 147.241 90.2 146.301 90.2H143.121V95.42ZM172.711 85.94V90.05H167.131V107H162.001V90.05H156.421V85.94H172.711ZM180.416 90.05V94.31H187.286V98.27H180.416V102.89H188.186V107H175.286V85.94H188.186V90.05H180.416ZM205.764 85.94C207.984 85.94 209.924 86.38 211.584 87.26C213.244 88.14 214.524 89.38 215.424 90.98C216.344 92.56 216.804 94.39 216.804 96.47C216.804 98.53 216.344 100.36 215.424 101.96C214.524 103.56 213.234 104.8 211.554 105.68C209.894 106.56 207.964 107 205.764 107H197.874V85.94H205.764ZM205.434 102.56C207.374 102.56 208.884 102.03 209.964 100.97C211.044 99.91 211.584 98.41 211.584 96.47C211.584 94.53 211.044 93.02 209.964 91.94C208.884 90.86 207.374 90.32 205.434 90.32H203.004V102.56H205.434ZM224.801 90.05V94.31H231.671V98.27H224.801V102.89H232.571V107H219.671V85.94H232.571V90.05H224.801ZM241.031 103.04H247.751V107H235.901V85.94H241.031V103.04Z" fill="#118AB2"/>
<path d="M27.528 54.368C27.528 53.2587 27.768 52.272 28.248 51.408C28.728 50.5333 29.3947 49.856 30.248 49.376C31.112 48.8853 32.088 48.64 33.176 48.64C34.5093 48.64 35.6507 48.992 36.6 49.696C37.5493 50.4 38.184 51.36 38.504 52.576H35.496C35.272 52.1067 34.952 51.7493 34.536 51.504C34.1307 51.2587 33.6667 51.136 33.144 51.136C32.3013 51.136 31.6187 51.4293 31.096 52.016C30.5733 52.6027 30.312 53.3867 30.312 54.368C30.312 55.3493 30.5733 56.1333 31.096 56.72C31.6187 57.3067 32.3013 57.6 33.144 57.6C33.6667 57.6 34.1307 57.4773 34.536 57.232C34.952 56.9867 35.272 56.6293 35.496 56.16H38.504C38.184 57.376 37.5493 58.336 36.6 59.04C35.6507 59.7333 34.5093 60.08 33.176 60.08C32.088 60.08 31.112 59.84 30.248 59.36C29.3947 58.8693 28.728 58.192 28.248 57.328C27.768 56.464 27.528 55.4773 27.528 54.368ZM45.4915 60.112C44.4355 60.112 43.4648 59.8667 42.5795 59.376C41.7048 58.8853 41.0062 58.2027 40.4835 57.328C39.9715 56.4427 39.7155 55.4507 39.7155 54.352C39.7155 53.2533 39.9715 52.2667 40.4835 51.392C41.0062 50.5173 41.7048 49.8347 42.5795 49.344C43.4648 48.8533 44.4355 48.608 45.4915 48.608C46.5475 48.608 47.5128 48.8533 48.3875 49.344C49.2728 49.8347 49.9662 50.5173 50.4675 51.392C50.9795 52.2667 51.2355 53.2533 51.2355 54.352C51.2355 55.4507 50.9795 56.4427 50.4675 57.328C49.9555 58.2027 49.2622 58.8853 48.3875 59.376C47.5128 59.8667 46.5475 60.112 45.4915 60.112ZM45.4915 57.616C46.3875 57.616 47.1022 57.3173 47.6355 56.72C48.1795 56.1227 48.4515 55.3333 48.4515 54.352C48.4515 53.36 48.1795 52.5707 47.6355 51.984C47.1022 51.3867 46.3875 51.088 45.4915 51.088C44.5848 51.088 43.8595 51.3813 43.3155 51.968C42.7822 52.5547 42.5155 53.3493 42.5155 54.352C42.5155 55.344 42.7822 56.1387 43.3155 56.736C43.8595 57.3227 44.5848 57.616 45.4915 57.616ZM55.4936 57.888H59.0776V60H52.7576V48.768H55.4936V57.888ZM67.3746 58.016H63.1826L62.5106 60H59.6466L63.7106 48.768H66.8786L70.9426 60H68.0466L67.3746 58.016ZM66.6706 55.904L65.2786 51.792L63.9026 55.904H66.6706ZM78.9795 54.24C79.6302 54.3787 80.1528 54.704 80.5475 55.216C80.9422 55.7173 81.1395 56.2933 81.1395 56.944C81.1395 57.8827 80.8088 58.6293 80.1475 59.184C79.4968 59.728 78.5848 60 77.4115 60H72.1795V48.768H77.2355C78.3768 48.768 79.2675 49.0293 79.9075 49.552C80.5582 50.0747 80.8835 50.784 80.8835 51.68C80.8835 52.3413 80.7075 52.8907 80.3555 53.328C80.0142 53.7653 79.5555 54.0693 78.9795 54.24ZM74.9155 53.312H76.7075C77.1555 53.312 77.4968 53.216 77.7315 53.024C77.9768 52.8213 78.0995 52.528 78.0995 52.144C78.0995 51.76 77.9768 51.4667 77.7315 51.264C77.4968 51.0613 77.1555 50.96 76.7075 50.96H74.9155V53.312ZM76.9315 57.792C77.3902 57.792 77.7422 57.6907 77.9875 57.488C78.2435 57.2747 78.3715 56.9707 78.3715 56.576C78.3715 56.1813 78.2382 55.872 77.9715 55.648C77.7155 55.424 77.3582 55.312 76.8995 55.312H74.9155V57.792H76.9315ZM88.0384 60.112C86.9824 60.112 86.0117 59.8667 85.1264 59.376C84.2517 58.8853 83.553 58.2027 83.0304 57.328C82.5184 56.4427 82.2624 55.4507 82.2624 54.352C82.2624 53.2533 82.5184 52.2667 83.0304 51.392C83.553 50.5173 84.2517 49.8347 85.1264 49.344C86.0117 48.8533 86.9824 48.608 88.0384 48.608C89.0944 48.608 90.0597 48.8533 90.9344 49.344C91.8197 49.8347 92.513 50.5173 93.0144 51.392C93.5264 52.2667 93.7824 53.2533 93.7824 54.352C93.7824 55.4507 93.5264 56.4427 93.0144 57.328C92.5024 58.2027 91.809 58.8853 90.9344 59.376C90.0597 59.8667 89.0944 60.112 88.0384 60.112ZM88.0384 57.616C88.9344 57.616 89.649 57.3173 90.1824 56.72C90.7264 56.1227 90.9984 55.3333 90.9984 54.352C90.9984 53.36 90.7264 52.5707 90.1824 51.984C89.649 51.3867 88.9344 51.088 88.0384 51.088C87.1317 51.088 86.4064 51.3813 85.8624 51.968C85.329 52.5547 85.0624 53.3493 85.0624 54.352C85.0624 55.344 85.329 56.1387 85.8624 56.736C86.4064 57.3227 87.1317 57.616 88.0384 57.616ZM101.033 60L98.6965 55.76H98.0405V60H95.3045V48.768H99.8965C100.782 48.768 101.534 48.9227 102.153 49.232C102.782 49.5413 103.251 49.968 103.561 50.512C103.87 51.0453 104.025 51.6427 104.025 52.304C104.025 53.0507 103.811 53.7173 103.385 54.304C102.969 54.8907 102.35 55.3067 101.529 55.552L104.121 60H101.033ZM98.0405 53.824H99.7365C100.238 53.824 100.611 53.7013 100.857 53.456C101.113 53.2107 101.241 52.864 101.241 52.416C101.241 51.9893 101.113 51.6533 100.857 51.408C100.611 51.1627 100.238 51.04 99.7365 51.04H98.0405V53.824ZM112.734 58.016H108.542L107.87 60H105.006L109.07 48.768H112.238L116.302 60H113.406L112.734 58.016ZM112.03 55.904L110.638 51.792L109.262 55.904H112.03ZM120.465 54.368C120.465 53.2587 120.706 52.272 121.186 51.408C121.666 50.5333 122.332 49.856 123.186 49.376C124.05 48.8853 125.026 48.64 126.114 48.64C127.447 48.64 128.588 48.992 129.538 49.696C130.487 50.4 131.122 51.36 131.442 52.576H128.434C128.21 52.1067 127.89 51.7493 127.474 51.504C127.068 51.2587 126.604 51.136 126.082 51.136C125.239 51.136 124.556 51.4293 124.034 52.016C123.511 52.6027 123.25 53.3867 123.25 54.368C123.25 55.3493 123.511 56.1333 124.034 56.72C124.556 57.3067 125.239 57.6 126.082 57.6C126.604 57.6 127.068 57.4773 127.474 57.232C127.89 56.9867 128.21 56.6293 128.434 56.16H131.442C131.122 57.376 130.487 58.336 129.538 59.04C128.588 59.7333 127.447 60.08 126.114 60.08C125.026 60.08 124.05 59.84 123.186 59.36C122.332 58.8693 121.666 58.192 121.186 57.328C120.706 56.464 120.465 55.4773 120.465 54.368ZM138.429 60.112C137.373 60.112 136.402 59.8667 135.517 59.376C134.642 58.8853 133.944 58.2027 133.421 57.328C132.909 56.4427 132.653 55.4507 132.653 54.352C132.653 53.2533 132.909 52.2667 133.421 51.392C133.944 50.5173 134.642 49.8347 135.517 49.344C136.402 48.8533 137.373 48.608 138.429 48.608C139.485 48.608 140.45 48.8533 141.325 49.344C142.21 49.8347 142.904 50.5173 143.405 51.392C143.917 52.2667 144.173 53.2533 144.173 54.352C144.173 55.4507 143.917 56.4427 143.405 57.328C142.893 58.2027 142.2 58.8853 141.325 59.376C140.45 59.8667 139.485 60.112 138.429 60.112ZM138.429 57.616C139.325 57.616 140.04 57.3173 140.573 56.72C141.117 56.1227 141.389 55.3333 141.389 54.352C141.389 53.36 141.117 52.5707 140.573 51.984C140.04 51.3867 139.325 51.088 138.429 51.088C137.522 51.088 136.797 51.3813 136.253 51.968C135.72 52.5547 135.453 53.3493 135.453 54.352C135.453 55.344 135.72 56.1387 136.253 56.736C136.797 57.3227 137.522 57.616 138.429 57.616ZM155.743 60H153.007L148.431 53.072V60H145.695V48.768H148.431L153.007 55.728V48.768H155.743V60ZM163.853 50.96V53.232H167.517V55.344H163.853V57.808H167.997V60H161.117V48.768H167.997V50.96H163.853ZM173.837 60.112C173.016 60.112 172.28 59.9787 171.629 59.712C170.979 59.4453 170.456 59.0507 170.061 58.528C169.677 58.0053 169.475 57.376 169.453 56.64H172.365C172.408 57.056 172.552 57.376 172.797 57.6C173.043 57.8133 173.363 57.92 173.757 57.92C174.163 57.92 174.483 57.8293 174.717 57.648C174.952 57.456 175.069 57.1947 175.069 56.864C175.069 56.5867 174.973 56.3573 174.781 56.176C174.6 55.9947 174.371 55.8453 174.093 55.728C173.827 55.6107 173.443 55.4773 172.941 55.328C172.216 55.104 171.624 54.88 171.165 54.656C170.707 54.432 170.312 54.1013 169.981 53.664C169.651 53.2267 169.485 52.656 169.485 51.952C169.485 50.9067 169.864 50.0907 170.621 49.504C171.379 48.9067 172.365 48.608 173.581 48.608C174.819 48.608 175.816 48.9067 176.573 49.504C177.331 50.0907 177.736 50.912 177.789 51.968H174.829C174.808 51.6053 174.675 51.3227 174.429 51.12C174.184 50.9067 173.869 50.8 173.485 50.8C173.155 50.8 172.888 50.8907 172.685 51.072C172.483 51.2427 172.381 51.4933 172.381 51.824C172.381 52.1867 172.552 52.4693 172.893 52.672C173.235 52.8747 173.768 53.0933 174.493 53.328C175.219 53.5733 175.805 53.808 176.253 54.032C176.712 54.256 177.107 54.5813 177.437 55.008C177.768 55.4347 177.933 55.984 177.933 56.656C177.933 57.296 177.768 57.8773 177.437 58.4C177.117 58.9227 176.648 59.3387 176.029 59.648C175.411 59.9573 174.68 60.112 173.837 60.112ZM187.697 48.768V50.96H184.721V60H181.985V50.96H179.009V48.768H187.697ZM196.062 58.016H191.87L191.198 60H188.334L192.398 48.768H195.566L199.63 60H196.734L196.062 58.016ZM195.358 55.904L193.966 51.792L192.59 55.904H195.358ZM214.306 60H211.57L206.994 53.072V60H204.258V48.768H206.994L211.57 55.728V48.768H214.306V60ZM221.601 60.112C220.545 60.112 219.574 59.8667 218.689 59.376C217.814 58.8853 217.116 58.2027 216.593 57.328C216.081 56.4427 215.825 55.4507 215.825 54.352C215.825 53.2533 216.081 52.2667 216.593 51.392C217.116 50.5173 217.814 49.8347 218.689 49.344C219.574 48.8533 220.545 48.608 221.601 48.608C222.657 48.608 223.622 48.8533 224.497 49.344C225.382 49.8347 226.076 50.5173 226.577 51.392C227.089 52.2667 227.345 53.2533 227.345 54.352C227.345 55.4507 227.089 56.4427 226.577 57.328C226.065 58.2027 225.372 58.8853 224.497 59.376C223.622 59.8667 222.657 60.112 221.601 60.112ZM221.601 57.616C222.497 57.616 223.212 57.3173 223.745 56.72C224.289 56.1227 224.561 55.3333 224.561 54.352C224.561 53.36 224.289 52.5707 223.745 51.984C223.212 51.3867 222.497 51.088 221.601 51.088C220.694 51.088 219.969 51.3813 219.425 51.968C218.892 52.5547 218.625 53.3493 218.625 54.352C218.625 55.344 218.892 56.1387 219.425 56.736C219.969 57.3227 220.694 57.616 221.601 57.616ZM235.667 54.24C236.318 54.3787 236.84 54.704 237.235 55.216C237.63 55.7173 237.827 56.2933 237.827 56.944C237.827 57.8827 237.496 58.6293 236.835 59.184C236.184 59.728 235.272 60 234.099 60H228.867V48.768H233.923C235.064 48.768 235.955 49.0293 236.595 49.552C237.246 50.0747 237.571 50.784 237.571 51.68C237.571 52.3413 237.395 52.8907 237.043 53.328C236.702 53.7653 236.243 54.0693 235.667 54.24ZM231.603 53.312H233.395C233.843 53.312 234.184 53.216 234.419 53.024C234.664 52.8213 234.787 52.528 234.787 52.144C234.787 51.76 234.664 51.4667 234.419 51.264C234.184 51.0613 233.843 50.96 233.395 50.96H231.603V53.312ZM233.619 57.792C234.078 57.792 234.43 57.6907 234.675 57.488C234.931 57.2747 235.059 56.9707 235.059 56.576C235.059 56.1813 234.926 55.872 234.659 55.648C234.403 55.424 234.046 55.312 233.587 55.312H231.603V57.792H233.619ZM242.15 57.888H245.734V60H239.414V48.768H242.15V57.888ZM249.775 50.96V53.232H253.439V55.344H249.775V57.808H253.919V60H247.039V48.768H253.919V50.96H249.775ZM258.622 54.368C258.622 53.2587 258.862 52.272 259.342 51.408C259.822 50.5333 260.488 49.856 261.342 49.376C262.206 48.8853 263.182 48.64 264.27 48.64C265.603 48.64 266.744 48.992 267.694 49.696C268.643 50.4 269.278 51.36 269.598 52.576H266.59C266.366 52.1067 266.046 51.7493 265.63 51.504C265.224 51.2587 264.76 51.136 264.238 51.136C263.395 51.136 262.712 51.4293 262.19 52.016C261.667 52.6027 261.406 53.3867 261.406 54.368C261.406 55.3493 261.667 56.1333 262.19 56.72C262.712 57.3067 263.395 57.6 264.238 57.6C264.76 57.6 265.224 57.4773 265.63 57.232C266.046 56.9867 266.366 56.6293 266.59 56.16H269.598C269.278 57.376 268.643 58.336 267.694 59.04C266.744 59.7333 265.603 60.08 264.27 60.08C263.182 60.08 262.206 59.84 261.342 59.36C260.488 58.8693 259.822 58.192 259.342 57.328C258.862 56.464 258.622 55.4773 258.622 54.368ZM278.265 58.016H274.073L273.401 60H270.537L274.601 48.768H277.769L281.833 60H278.937L278.265 58.016ZM277.561 55.904L276.169 51.792L274.793 55.904H277.561ZM285.758 48.768V55.488C285.758 56.16 285.923 56.6773 286.254 57.04C286.585 57.4027 287.07 57.584 287.71 57.584C288.35 57.584 288.841 57.4027 289.182 57.04C289.523 56.6773 289.694 56.16 289.694 55.488V48.768H292.43V55.472C292.43 56.4747 292.217 57.3227 291.79 58.016C291.363 58.7093 290.787 59.232 290.062 59.584C289.347 59.936 288.547 60.112 287.662 60.112C286.777 60.112 285.982 59.9413 285.278 59.6C284.585 59.248 284.035 58.7253 283.63 58.032C283.225 57.328 283.022 56.4747 283.022 55.472V48.768H285.758ZM298.415 60.112C297.594 60.112 296.858 59.9787 296.207 59.712C295.557 59.4453 295.034 59.0507 294.639 58.528C294.255 58.0053 294.053 57.376 294.031 56.64H296.943C296.986 57.056 297.13 57.376 297.375 57.6C297.621 57.8133 297.941 57.92 298.335 57.92C298.741 57.92 299.061 57.8293 299.295 57.648C299.53 57.456 299.647 57.1947 299.647 56.864C299.647 56.5867 299.551 56.3573 299.359 56.176C299.178 55.9947 298.949 55.8453 298.671 55.728C298.405 55.6107 298.021 55.4773 297.519 55.328C296.794 55.104 296.202 54.88 295.743 54.656C295.285 54.432 294.89 54.1013 294.559 53.664C294.229 53.2267 294.063 52.656 294.063 51.952C294.063 50.9067 294.442 50.0907 295.199 49.504C295.957 48.9067 296.943 48.608 298.159 48.608C299.397 48.608 300.394 48.9067 301.151 49.504C301.909 50.0907 302.314 50.912 302.367 51.968H299.407C299.386 51.6053 299.253 51.3227 299.007 51.12C298.762 50.9067 298.447 50.8 298.063 50.8C297.733 50.8 297.466 50.8907 297.263 51.072C297.061 51.2427 296.959 51.4933 296.959 51.824C296.959 52.1867 297.13 52.4693 297.471 52.672C297.813 52.8747 298.346 53.0933 299.071 53.328C299.797 53.5733 300.383 53.808 300.831 54.032C301.29 54.256 301.685 54.5813 302.015 55.008C302.346 55.4347 302.511 55.984 302.511 56.656C302.511 57.296 302.346 57.8773 302.015 58.4C301.695 58.9227 301.226 59.3387 300.607 59.648C299.989 59.9573 299.258 60.112 298.415 60.112ZM311.187 58.016H306.995L306.323 60H303.459L307.523 48.768H310.691L314.755 60H311.859L311.187 58.016ZM310.483 55.904L309.091 51.792L307.715 55.904H310.483Z" fill="#073B4C"/>
<mask id="mask0_486_7428" style="mask-type:luminance" maskUnits="userSpaceOnUse" x="-343" y="349" width="773" height="301">
<path d="M430 349H-343V650H430V349Z" fill="white"/>
</mask>
<g mask="url(#mask0_486_7428)">
<path d="M118.928 739.57C105.066 737.688 90.9754 734.642 78.9186 726.434C66.8619 718.226 57.0628 703.962 56.2151 687.691C55.1484 667.208 67.757 649.47 72.3883 629.676C78.0843 605.331 71.4118 579.444 73.0335 554.277C74.6125 529.769 84.6419 505.832 101.163 490.614C117.684 475.396 140.651 469.634 160.687 477.132C176.746 483.142 190.349 496.928 206.893 500.743C225.835 505.111 244.968 495.672 262.155 485.396C279.342 475.12 296.951 463.487 316.255 463.085C336.052 462.673 355.678 475.307 365.955 495.079C382.327 526.577 374.162 568.201 386.271 602.228C390.491 614.085 397.04 624.595 402.033 636.035C407.027 647.474 410.484 660.646 407.847 673.111C404.64 688.272 393.207 699.076 381.511 706.641C352.218 725.588 318.379 730.969 285.43 733.243C250.79 735.634 216.361 740.887 181.607 742.137C160.698 742.889 139.722 742.392 118.928 739.57Z" fill="#7DD5FF"/>
<path d="M156.842 759.562C138.387 759.562 121.501 758.496 105.624 756.34C91.2675 754.392 74.7 751.113 60.6758 741.567C45.7012 731.372 35.8516 714.539 34.9709 697.633C34.2129 683.088 39.6141 669.582 44.8375 656.522C47.9347 648.777 51.1374 640.768 53.0514 632.588C56.8211 616.477 55.6698 599.362 54.5562 582.811C53.7992 571.561 53.0164 559.929 53.7486 548.569C55.5714 520.28 67.4142 493.484 85.4272 476.893C104.624 459.211 130.344 453.389 152.551 461.7C160.52 464.682 168.036 469.419 175.305 474C184.416 479.742 193.837 485.679 204.058 488.036C224.797 492.82 245.741 482.664 265.285 470.978C266.868 470.033 268.454 469.076 270.043 468.117C287.75 457.436 306.059 446.392 326.002 445.977C348.44 445.523 370.471 459.691 382.12 482.103C392.228 501.55 394.058 524.778 395.827 547.24C397.282 565.707 398.786 584.802 404.851 601.843C407.648 609.701 411.444 617.178 415.115 624.408C417.601 629.304 420.172 634.367 422.425 639.528C429.32 655.325 431.524 669.449 428.973 681.507C425.929 695.901 415.918 708.676 399.218 719.478C365.089 741.554 325.685 746.932 291.641 749.282C275.536 750.394 259.197 752.088 243.395 753.727C221.255 756.023 198.361 758.397 175.708 759.213C169.235 759.445 162.952 759.562 156.842 759.562ZM131.786 459.66C115.751 459.66 99.4778 466.099 86.3213 478.218C68.6206 494.523 56.9824 520.869 55.189 548.695C54.4655 559.926 55.2436 571.492 55.9965 582.678C57.12 599.373 58.282 616.638 54.4454 633.033C52.499 641.352 49.2699 649.427 46.1469 657.236C40.7633 670.698 35.678 683.413 36.4133 697.53C37.2652 713.879 46.8406 730.194 61.4034 740.107C75.1984 749.498 91.5829 752.734 105.791 754.663C126.854 757.522 149.71 758.458 175.665 757.524C198.276 756.711 221.149 754.338 243.269 752.044C259.081 750.405 275.431 748.709 291.557 747.596C325.439 745.257 364.643 739.911 398.52 718C414.852 707.434 424.627 695.02 427.571 681.101C430.036 669.448 427.872 655.718 421.138 640.293C418.906 635.18 416.347 630.141 413.873 625.268C410.176 617.987 406.353 610.458 403.517 602.49C397.368 585.211 395.853 565.986 394.389 547.394C392.634 525.122 390.82 502.092 380.885 482.978C369.497 461.07 347.995 447.198 326.028 447.665C306.423 448.072 288.266 459.025 270.706 469.617C269.115 470.576 267.528 471.534 265.944 472.481C246.167 484.306 224.951 494.574 203.778 489.692C193.344 487.285 183.825 481.287 174.62 475.485C167.409 470.941 159.952 466.241 152.11 463.307C145.559 460.856 138.694 459.66 131.786 459.66Z" fill="#EF476F"/>
</g>
<mask id="mask1_486_7428" style="mask-type:luminance" maskUnits="userSpaceOnUse" x="-343" y="349" width="773" height="301">
<path d="M430 349H-343V650H430V349Z" fill="white"/>
</mask>
<g mask="url(#mask1_486_7428)">
<path d="M97.919 655.787L95.281 506.661C95.281 506.661 94.223 496.117 85.923 477.408C85.923 477.408 77.0959 462.906 83.3412 430.004C84.7692 422.804 86.0653 415.564 87.4288 408.347C88.2688 403.899 88.7249 398.948 90.223 394.736C90.9218 392.771 92.09 391.606 93.888 391.231C96.2158 390.745 97.334 393.162 97.7963 395.471C97.0434 391.712 100.696 388.903 103.427 388.384C105.409 388.008 107.269 388.731 108.043 391.053C108.646 392.86 108.603 394.995 108.407 396.889C108.344 397.496 108.262 398.1 108.181 398.704C107.47 403.985 107.41 409.476 107.067 414.812C106.909 417.271 106.751 419.729 106.594 422.188C106.532 423.143 106.616 424.326 106.397 425.254L112.653 398.824C112.653 398.824 113.502 393.433 118.572 393.808C118.572 393.808 121.863 394.22 121.046 401.688L116.886 428.401C117.701 425.907 118.515 423.414 119.33 420.92C119.944 419.041 120.558 417.161 121.172 415.281C121.718 413.611 122.115 411.44 123.256 410.2C123.514 409.921 123.829 409.67 124.18 409.676C124.587 409.683 124.929 410.032 125.188 410.401C126.816 412.721 126.289 416.114 125.878 418.816C125.388 422.042 125.11 425.288 124.787 428.542C124.349 432.954 123.911 437.367 123.473 441.779C123.472 441.794 123.47 441.809 123.469 441.824C123.469 441.825 122.043 455.356 125.482 464.424C125.482 464.424 132.454 479.317 128.157 495.984L127.123 500.003L143.546 651.184L97.919 655.787Z" fill="#793726"/>
<path d="M95.6216 444.324C95.5964 444.325 95.5711 444.326 95.5459 444.325C95.2191 444.304 94.9687 443.978 94.9862 443.597L97.2052 395.434C97.2233 395.052 97.5026 394.761 97.8283 394.78C98.155 394.801 98.4054 395.127 98.3879 395.508L96.1689 443.671C96.1524 444.022 95.9143 444.298 95.6216 444.324Z" fill="#551B0A"/>
<path d="M115.029 457.465C103.501 458.452 95.0172 452.765 94.9198 452.699C94.6379 452.505 94.5431 452.082 94.708 451.752C94.8729 451.422 95.2357 451.311 95.5181 451.504C95.6258 451.578 106.455 458.816 120.16 455.173C120.478 455.087 120.796 455.321 120.869 455.694C120.941 456.066 120.742 456.437 120.423 456.522C118.569 457.016 116.764 457.316 115.029 457.465Z" fill="#551B0A"/>
<path d="M118.615 380.366C106.762 381.419 104.886 395.72 104.886 395.72C104.886 395.72 101.177 381.918 89.3241 382.972C81.2035 383.698 74.0754 391.306 74.9556 404.952C76.3089 425.632 108.089 444.629 108.089 444.629C108.089 444.629 137.01 420.22 135.657 399.54C134.78 385.891 126.737 379.644 118.615 380.366Z" fill="#D2242F"/>
<path d="M89.1396 456.149C89.1396 456.149 89.3685 447.98 91.4277 442.948L91.0897 423.383C91.0897 423.383 89.1541 413.839 96.2667 416.004C96.2667 416.004 103.13 414.202 102.772 446.311C102.744 448.808 106.526 453.654 108.265 454.656C113.908 457.902 115.794 464.842 116.085 471.722C116.175 473.83 116.542 490.251 114.605 490.553C114.603 490.553 92.4084 494.014 89.1396 456.149Z" fill="#793726"/>
<path d="M92.0029 421.398C91.9447 417.942 94.4678 416.519 96.8646 418.452C97.8324 419.232 100.846 423.979 99.5685 425.258C96.4023 428.42 93.0243 426.628 93.0243 426.628L92.0029 421.398Z" fill="#88493C"/>
<path d="M115.851 487.557C115.807 487.561 115.762 487.559 115.717 487.551C115.394 487.492 115.172 487.139 115.222 486.762C118.589 461.405 109.454 456.409 109.361 456.361L109.284 456.314C102.684 451.538 102.199 446.588 102.181 446.379L102.177 446.332L102.179 446.285C102.484 437.245 101.362 428.485 101.35 428.398C100.712 422.289 99.1776 418.335 96.9122 416.94C94.906 415.706 92.9622 416.859 92.9431 416.87L92.8369 416.919C92.7323 416.96 90.1108 418.038 91.7666 424.505L91.7893 424.593L92.1691 442.513C92.1768 442.895 91.9119 443.203 91.5919 443.221C91.2647 443.231 90.9936 442.929 90.9853 442.547L90.6097 424.812C89.8315 421.725 89.8465 419.278 90.655 417.535C91.2878 416.17 92.1902 415.719 92.4442 415.614C92.8081 415.41 95.0792 414.248 97.4646 415.715C100.126 417.353 101.829 421.557 102.524 428.209C102.533 428.277 103.668 437.124 103.365 446.279C103.423 446.706 104.139 450.948 109.875 455.114C110.702 455.556 119.832 461.078 116.393 486.973C116.35 487.298 116.12 487.534 115.851 487.557Z" fill="#551B0A"/>
<path d="M332.361 655.78L332.806 506.624C332.806 506.624 333.709 496.06 341.733 477.187C341.733 477.187 350.346 462.51 343.618 429.738C342.084 422.567 340.682 415.355 339.213 408.166C338.307 403.736 337.778 398.795 336.219 394.613C335.492 392.662 334.306 391.521 332.503 391.182C330.168 390.743 329.086 393.182 328.657 395.5C329.355 391.726 325.662 388.991 322.923 388.527C320.936 388.19 319.088 388.951 318.347 391.288C317.771 393.107 317.846 395.241 318.07 397.131C318.142 397.737 318.232 398.339 318.322 398.941C319.11 404.207 319.251 409.696 319.672 415.025C319.866 417.48 320.06 419.935 320.254 422.39C320.33 423.343 320.263 424.527 320.497 425.451L313.853 399.151C313.853 399.151 312.925 393.778 307.861 394.255C307.861 394.255 304.576 394.732 305.504 402.183L310.056 428.808C309.205 426.332 308.354 423.854 307.503 421.378C306.861 419.511 306.22 417.643 305.578 415.776C305.008 414.117 304.578 411.955 303.419 410.738C303.158 410.464 302.839 410.219 302.488 410.232C302.081 410.248 301.744 410.604 301.491 410.978C299.897 413.33 300.474 416.712 300.924 419.405C301.462 422.621 301.788 425.86 302.159 429.107C302.661 433.51 303.164 437.913 303.666 442.316C303.668 442.331 303.67 442.346 303.671 442.361C303.671 442.362 305.296 455.862 301.99 464.998C301.99 464.998 295.239 480.028 299.78 496.607L300.873 500.604L286.675 652.092L332.361 655.78Z" fill="#F68652"/>
<path d="M331.548 444.308C331.255 444.289 331.012 444.017 330.991 443.666L328.064 395.555C328.041 395.174 328.287 394.844 328.613 394.816C328.943 394.791 329.223 395.077 329.246 395.457L332.173 443.568C332.195 443.949 331.95 444.28 331.624 444.308C331.599 444.309 331.573 444.309 331.548 444.308Z" fill="#E0632A"/>
<path d="M312.337 457.838C310.6 457.724 308.792 457.461 306.929 457.004C306.609 456.926 306.405 456.56 306.472 456.186C306.539 455.812 306.851 455.569 307.173 455.65C320.926 459.019 331.65 451.564 331.758 451.488C332.037 451.289 332.402 451.393 332.571 451.719C332.741 452.046 332.652 452.471 332.373 452.669C332.278 452.737 323.877 458.595 312.337 457.838Z" fill="#E0632A"/>
<path d="M307.617 380.82C319.484 381.635 321.57 395.896 321.57 395.896C321.57 395.896 325.076 382.021 336.942 382.838C345.072 383.402 352.311 390.865 351.632 404.527C350.583 425.231 319.086 444.862 319.086 444.862C319.086 444.862 289.811 421.038 290.86 400.333C291.537 386.669 299.486 380.261 307.617 380.82Z" fill="#D2242F"/>
<path d="M338.205 455.999C338.205 455.999 337.856 447.836 335.723 442.846L335.774 423.278C335.774 423.278 337.569 413.696 330.489 416.003C330.489 416.003 323.601 414.339 324.43 446.436C324.495 448.933 320.784 453.854 319.06 454.889C313.465 458.248 311.682 465.225 311.492 472.111C311.434 474.22 311.308 490.646 313.249 490.909C313.251 490.909 335.493 493.925 338.205 455.999Z" fill="#F68652"/>
<path d="M334.831 421.314C334.838 417.857 332.294 416.484 329.927 418.465C328.97 419.265 326.028 424.071 327.323 425.325C330.536 428.423 333.886 426.564 333.886 426.564L334.831 421.314Z" fill="#FFA379"/>
<path d="M311.958 487.939C311.689 487.922 311.456 487.69 311.409 487.366C307.59 461.545 316.637 455.841 317.458 455.381C323.119 451.11 323.782 446.863 323.836 446.416C323.399 437.268 324.404 428.401 324.413 428.312C325.009 421.667 326.649 417.431 329.286 415.739C331.65 414.224 333.937 415.339 334.304 415.537C334.56 415.636 335.468 416.069 336.121 417.421C336.955 419.147 337.006 421.594 336.273 424.696L336.159 442.436C336.156 442.818 335.889 443.126 335.563 443.123C335.231 443.107 334.972 442.808 334.975 442.426L335.091 424.501L335.112 424.412C335.943 420.954 335.559 419.072 335.09 418.102C334.602 417.09 333.937 416.852 333.931 416.85L333.824 416.802C333.745 416.757 331.818 415.684 329.841 416.962C327.605 418.409 326.135 422.39 325.589 428.477C325.578 428.584 324.583 437.366 325.022 446.399L325.024 446.446L325.021 446.493C325.007 446.702 324.594 451.661 318.065 456.569L317.986 456.619C317.897 456.667 308.836 461.846 312.576 487.131C312.631 487.507 312.416 487.865 312.093 487.93C312.048 487.939 312.002 487.942 311.958 487.939Z" fill="#E0632A"/>
<path d="M153.495 654.408L165.338 509.146C165.338 509.146 165.93 491.161 161.785 479.056L159.417 468.334C159.417 468.334 153.199 458.996 165.338 446.545L177.773 435.823C177.773 435.823 185.767 429.252 192.576 445.162C192.576 445.162 197.313 453.462 197.313 460.033C197.313 460.033 201.458 469.026 201.458 473.176C201.458 473.176 202.05 481.477 192.871 484.936C192.65 485.074 196.104 493.794 196.386 494.565C198.118 499.295 197.906 505.756 195.537 510.183C195.537 510.184 192.576 515.717 192.576 515.717L197.018 655.099L153.495 654.408Z" fill="#F68652"/>
<path d="M187.937 471.1C187.82 471.1 187.702 471.059 187.599 470.975C187.331 470.756 187.265 470.326 187.452 470.012C195.822 456.012 192.073 445.542 192.034 445.438C191.903 445.088 192.039 444.68 192.339 444.527C192.638 444.375 192.986 444.532 193.118 444.881C193.288 445.333 197.198 456.127 188.423 470.804C188.308 470.997 188.124 471.1 187.937 471.1Z" fill="#E0632A"/>
<path d="M189.911 475.022C189.747 475.022 189.585 474.944 189.468 474.79C189.251 474.504 189.273 474.067 189.517 473.813C194.648 468.485 196.721 459.936 196.741 459.85C196.828 459.482 197.154 459.264 197.47 459.367C197.785 459.469 197.97 459.85 197.883 460.218C197.796 460.584 195.701 469.241 190.304 474.847C190.19 474.964 190.05 475.022 189.911 475.022Z" fill="#E0632A"/>
<path d="M190.899 481.017C190.659 481.017 190.433 480.844 190.344 480.566C190.23 480.207 190.386 479.81 190.692 479.677C198.725 476.185 199.746 467.686 199.786 467.326C199.827 466.948 200.122 466.681 200.447 466.727C200.771 466.775 201.001 467.12 200.961 467.498C200.918 467.892 199.828 477.181 191.105 480.973C191.038 481.002 190.968 481.017 190.899 481.017Z" fill="#E0632A"/>
<path d="M193.255 397.172C181.368 397.209 178.601 411.311 178.601 411.311C178.601 411.311 175.767 397.229 163.88 397.267C155.735 397.297 148.15 404.276 148.173 417.96C148.227 438.701 178.732 460.363 178.732 460.363C178.732 460.363 209.105 438.491 209.051 417.751C209.03 404.064 201.401 397.146 193.255 397.172Z" fill="#D2242F"/>
<path d="M168.001 465.57L170.962 445.51C170.962 445.51 169.975 429.831 178.66 427.525C178.66 427.525 185.173 423.144 183.792 440.899L183.2 460.036C183.2 460.036 189.91 472.718 190.898 482.402C190.898 482.402 194.648 504.191 180.042 493.354C180.042 493.354 170.567 486.206 169.383 481.825C169.383 481.825 166.619 475.6 168.001 465.57Z" fill="#F68652"/>
<path d="M190.898 483.086C190.603 483.086 190.347 482.828 190.312 482.476C189.351 473.058 182.764 460.518 182.698 460.392L182.604 460.214L183.202 440.866C183.932 431.48 182.382 428.843 181.394 428.104C180.262 427.257 178.97 428.109 178.958 428.117L178.793 428.193C170.699 430.342 171.545 445.302 171.554 445.453L171.56 445.537L168.587 465.68C168.531 466.057 168.228 466.31 167.903 466.244C167.58 466.179 167.364 465.822 167.42 465.446L170.369 445.467C170.292 444.054 169.704 429.276 178.453 426.865C178.848 426.63 180.49 425.786 182.033 426.94C184.191 428.554 184.982 433.269 184.384 440.954L183.8 459.846C184.656 461.492 190.549 473.104 191.488 482.314C191.527 482.693 191.295 483.037 190.97 483.082C190.945 483.085 190.922 483.086 190.898 483.086Z" fill="#E0632A"/>
<path d="M174.121 438.245C173.855 438.213 174.315 435.617 174.376 435.302C174.954 432.33 177.215 429.928 179.849 429.597C182.401 429.277 182.776 432.207 182.602 434.54C182.573 434.921 181.965 439.21 181.621 439.167C181.621 439.167 174.136 438.247 174.121 438.245Z" fill="#FFA379"/>
<path d="M263.73 428.188C251.843 428.225 249.076 442.327 249.076 442.327C249.076 442.327 246.241 428.244 234.354 428.283C226.21 428.313 218.624 435.291 218.648 448.976C218.702 469.716 249.206 491.378 249.206 491.378C249.206 491.378 279.579 469.507 279.525 448.767C279.505 435.08 271.875 428.162 263.73 428.188Z" fill="#D2242F"/>
<path d="M275.588 667.458L258.697 546.303C258.697 546.303 257.007 540.384 262.413 530.912L272.21 512.364C272.21 512.364 278.628 505.656 269.845 498.946L261.061 472.9C261.061 472.9 259.71 468.559 249.575 472.111C249.575 472.111 235.724 476.452 230.657 476.847C230.657 476.847 226.603 481.583 230.657 483.556L224.576 491.251C224.576 491.251 222.718 495.592 227.954 495.197C227.954 495.197 224.069 502.498 231.84 500.919L229.137 509.799C229.137 509.799 230.657 515.324 236.4 507.825L238.258 505.26L244.001 504.865C244.001 504.865 232.009 510.785 232.178 530.714L232.684 537.423L235.218 667.26L275.588 667.458Z" fill="#FF6962"/>
<path d="M259.032 507.127C259.277 507.127 259.518 506.989 259.665 506.732C259.898 506.323 259.804 505.772 259.454 505.501C258.263 504.573 257.159 503.073 256.091 501.622C255.581 500.93 255.1 500.277 254.607 499.677C254.059 499.01 253.532 498.245 252.975 497.433C251.58 495.403 250.138 493.305 248.05 492.314C244.761 490.753 241.298 492.7 238.515 494.266C238.138 494.477 237.742 494.687 237.333 494.902C234.943 496.162 232.234 497.591 231.139 500.56C230.973 501.011 231.152 501.533 231.537 501.727C231.922 501.919 232.37 501.713 232.536 501.262C233.397 498.927 235.821 497.648 237.959 496.52C238.379 496.299 238.787 496.083 239.172 495.867C241.686 494.453 244.813 492.697 247.478 493.959C249.2 494.776 250.516 496.691 251.789 498.544C252.343 499.351 252.916 500.184 253.511 500.908C253.975 501.471 254.443 502.107 254.938 502.779C256.073 504.321 257.246 505.915 258.611 506.978C258.74 507.08 258.887 507.127 259.032 507.127Z" fill="#E34340"/>
<path d="M262.58 500.323C262.789 500.323 262.997 500.223 263.147 500.027C263.427 499.661 263.399 499.1 263.086 498.773L251.363 486.551C250.879 485.816 247.87 481.944 240.239 485.744C239.833 485.957 230.602 490.843 227.415 494.566C227.118 494.913 227.118 495.474 227.415 495.822C227.712 496.168 228.193 496.168 228.49 495.822C231.482 492.326 240.756 487.419 240.849 487.37C247.901 483.86 250.144 487.607 250.166 487.645L250.292 487.815L262.074 500.098C262.219 500.249 262.399 500.323 262.58 500.323Z" fill="#E34340"/>
<path d="M264.858 493.957C265.033 493.957 265.208 493.887 265.351 493.744C265.671 493.426 265.709 492.865 265.437 492.492L263.274 489.528C261.693 487.357 260.111 485.187 258.519 483.028C258.309 482.743 258.098 482.452 257.885 482.159C255.491 478.86 252.775 475.145 248.461 475.286C244.993 475.42 241.79 477.043 238.694 478.613C237.852 479.04 236.982 479.48 236.136 479.874C234.308 480.726 232.413 481.662 230.344 482.736C229.96 482.936 229.788 483.461 229.958 483.909C230.129 484.357 230.578 484.559 230.962 484.36C233.013 483.295 234.89 482.367 236.699 481.524C237.566 481.121 238.447 480.673 239.299 480.242C242.265 478.738 245.332 477.184 248.511 477.061C252.07 476.923 254.448 480.168 256.725 483.307C256.941 483.603 257.154 483.898 257.367 484.187C258.957 486.344 260.536 488.512 262.116 490.679L264.28 493.646C264.43 493.851 264.643 493.957 264.858 493.957Z" fill="#E34340"/>
</g>
<mask id="mask2_486_7428" style="mask-type:luminance" maskUnits="userSpaceOnUse" x="-343" y="349" width="773" height="301">
<path d="M430 349H-343V650H430V349Z" fill="white"/>
</mask>
<g mask="url(#mask2_486_7428)">
<path d="M21.7296 402.516C19.0962 405.643 11.6007 413.737 8.80656 408.487C4.21133 399.852 17.2359 390.253 21.9331 390.338C28.8422 390.464 24.3382 399.418 21.7296 402.516Z" fill="#06D6A0"/>
<path d="M29.3274 382.365C24.9512 384.647 19.5227 384.624 15.1316 382.476C12.1617 381.024 10.4147 377.19 13.1032 373.448C17.2903 368.83 22.9816 368.329 29.0229 371.193C30.8801 372.074 33.1837 373.663 33.4032 376.266C33.6485 379.164 31.3409 381.316 29.3274 382.365Z" fill="#06D6A0"/>
<path d="M28.0904 407.098C25.9837 402.702 26.7712 397.692 28.4558 393.492C30.3089 388.872 35.101 384.391 38.2745 390.268C40.9099 395.147 40.5388 404.62 37.2943 409.083C36.1822 410.612 31.538 414.293 28.0904 407.098Z" fill="#06D6A0"/>
<path d="M46.2049 401.532C40.5269 401.194 38.2579 389.493 40.5743 383.088C42.6573 377.329 48.1193 372.153 52.3981 378.335C55.469 382.771 55.0696 389.77 52.7991 394.542C50.9454 398.438 48.6975 401.68 46.2049 401.532Z" fill="#06D6A0"/>
<path d="M30.9487 367.724C26.5066 365.317 27.4934 360.284 31.4301 358.366C35.863 355.988 38.6025 354.979 41.4657 355.008C45.7002 355.052 49.7373 359.344 46.9174 364.23C43.8218 369.596 35.595 370.241 30.9487 367.724Z" fill="#06D6A0"/>
<path d="M57.5102 373.688C57.3901 369.664 59.3313 365.338 62.0193 363.424C65.3623 361.043 69.6256 363.219 70.5764 367.52C71.5963 372.133 69.5478 378.091 66.2615 381.221C63.6169 383.739 57.7874 382.995 57.5102 373.688Z" fill="#06D6A0"/>
<path d="M77.1443 359.783C77.015 355.436 79.1114 350.763 82.0158 348.695C85.6272 346.122 90.2333 348.472 91.2604 353.119C92.3622 358.103 90.1493 364.539 86.5987 367.921C83.7416 370.642 77.4438 369.839 77.1443 359.783Z" fill="#06D6A0"/>
<path d="M43.1218 343.959C43.7418 337.405 52.4566 337.15 55.9779 337.442C59.5151 337.736 64.8926 339.525 65.1194 344.585C65.4188 351.273 57.9892 356.065 53.0245 355.229C48.5292 354.472 42.6555 348.886 43.1218 343.959Z" fill="#06D6A0"/>
<path d="M33.7426 405.355C33.5911 405.978 32.8011 405.707 32.9206 405.084C34.882 394.802 38.1853 384.968 40.2806 374.724C31.6859 382.737 23.4302 391.228 15.8785 400.5C15.5013 400.963 14.92 400.264 15.2844 399.798C21.6606 391.632 28.6207 384.114 35.9018 377.017C30.716 376.778 25.6364 376.828 20.6314 378.879C20.3568 378.992 20.1713 378.455 20.4413 378.317C25.2736 375.849 31.7616 374.609 37.0252 375.931C38.2507 374.749 47.2685 366.459 50.157 363.927C44.9763 362.634 38.966 362.085 34.1332 364.744C33.909 364.867 33.6235 364.505 33.8503 364.304C38.1744 360.463 46.158 361.182 51.1387 363.065C55.2696 359.463 66.5693 350.037 68.054 348.835C61.4675 347.626 55.2619 348.587 48.6048 348.879C48.1322 348.899 48.1518 348.056 48.6187 348.024C55.3902 347.572 62.6193 345.344 69.2635 347.859C75.9927 342.448 82.8729 337.256 89.9355 332.443C85.7753 331.006 73.3145 327.176 63.449 329.274C63.1753 329.332 62.9872 328.954 63.2402 328.839C72.4518 324.627 86.639 329.37 91.212 331.578C100.452 325.364 110.007 319.818 119.958 315.327C120.531 315.069 120.93 316.229 120.359 316.514C111.149 321.095 102.236 326.31 93.5671 332.032C93.5346 332.178 85.9618 353.625 83.649 364.178C83.5124 364.8 82.7266 364.526 82.8358 363.91C84.724 353.245 91.9876 333.191 91.8835 333.151C85.4913 337.435 79.2305 341.991 73.0878 346.781C66.541 356.541 66.4389 368.533 63.2418 379.877C63.1078 380.353 62.5064 380.154 62.6023 379.666C64.6414 369.275 65.4479 356.969 71.2166 348.244C69.0542 349.953 56.1209 360.657 51.8406 364.366C50.7656 369.332 50.9022 374.588 49.9843 379.604C48.9578 385.212 47.5721 390.687 46.7877 396.358C46.7213 396.837 46.0709 396.703 46.0797 396.235C46.1832 390.615 47.8174 385.28 48.9119 379.857C49.8911 375.007 49.9395 369.988 50.9269 365.16C47.6854 367.982 44.4687 370.85 41.2968 373.784C39.7879 384.554 36.2899 394.888 33.7426 405.355Z" fill="#003483"/>
<path d="M411.308 471.163C409.407 466.216 409.101 460.511 406.752 455.833C404.14 450.632 399.429 447.485 395.297 443.872C391.165 440.26 387.177 435.254 387.247 429.225C387.29 425.577 388.84 421.896 387.938 418.404C387.351 416.131 385.82 414.384 384.305 412.8C377.954 406.157 370.357 399.481 369.052 389.639C368.588 386.142 369.512 381.765 372.419 380.767C373.479 380.402 374.618 380.571 375.701 380.828C380.251 381.908 384.526 384.527 387.874 388.286C391.227 392.051 393.902 397.107 398.314 398.826C401.714 400.151 405.561 399.196 408.905 400.705C413.933 402.974 416.056 409.778 417.577 415.818C419.098 421.858 421.164 428.667 426.162 431.023C428.177 431.972 430.448 432.047 432.413 433.128C436.265 435.246 437.955 440.654 438.19 445.62C438.424 450.586 437.593 455.59 438.141 460.523C439.355 471.468 446.877 479.696 452.916 488.183C453.71 489.299 454.521 490.543 454.569 491.993C454.598 492.9 454.317 493.789 453.917 494.568C451.466 499.351 445.445 499.503 441.015 497.431C430.794 492.651 415.97 483.294 411.308 471.163Z" fill="#06D6A0"/>
<path d="M381.955 398.181C388.386 407.273 395.028 416.035 400.984 425.584C406.885 435.047 412.347 444.871 417.382 454.994C422.03 464.338 426.563 473.7 433.228 481.333C439.481 488.492 447.159 495.012 455.064 499.436C455.644 499.761 456.035 498.7 455.547 498.291C447.783 491.782 439.532 486.628 432.764 478.549C425.917 470.374 421.474 460.167 416.465 450.464C411.719 441.271 406.605 432.333 401.146 423.698C395.425 414.648 389.472 405.452 382.728 397.401C382.27 396.856 381.533 397.585 381.955 398.181Z" fill="#003483"/>
<path d="M112.257 684.538C115.861 677.24 117.34 664.643 117.791 656.548C118.117 651.642 118.501 644.119 116.03 639.64C112.147 632.309 108.399 638.709 103.363 639.069C102.478 629.593 106.273 618.533 102.381 609.16C98.0641 599.134 93.4709 604.232 88.954 610.8C88.3578 603.121 91.5183 591.085 88.6155 583.91C84.6551 575.109 77.2488 587.45 73.3472 590.908C74.6541 586.16 76.1681 570.832 74.467 566.184C70.9194 555.99 64.6638 564.613 60.839 569.542C58.7921 565.714 47.9201 545.596 43.0481 550.94C37.6181 556.779 49.816 576.234 52.152 581.859C47.3172 580.501 32.1319 580.11 40.5715 589.046C44.5122 593.761 55.0874 594.934 60.1428 598.661C55.4723 602.288 42.0432 604.158 49.7032 611.218C55.326 616.494 62.4953 617.302 70.1088 620.322C65.9851 621.411 54.875 624.589 57.6341 630.865C60.3932 637.141 73.6847 636.646 78.5964 639.475C75.3863 641.294 63.8532 643.822 68.7849 650.737C72.0243 655.048 83.6337 653.992 87.911 655.843C85.8924 658.145 79.4729 661.783 80.0501 665.376C80.4928 670.114 89.5271 671.853 92.8907 672.975C99.6188 675.22 105.155 676.982 110.431 683.078" fill="#06D6A0"/>
<path d="M51.4232 565.6C60.7435 580.873 68.9672 597.131 77.3728 613.097C86.8987 631.191 96.2892 649.382 105.822 667.471C108.414 672.391 110.859 677.587 113.842 682.208C114.26 682.854 113.402 683.616 112.984 682.969C110.498 679.12 108.444 674.818 106.279 670.725C102.051 662.731 97.8717 654.702 93.6862 646.679C83.6588 627.457 73.6629 608.209 63.3784 589.173C59.2264 581.488 55.0821 573.765 50.5646 566.361C50.1627 565.702 51.0197 564.939 51.4232 565.6Z" fill="#003483"/>
<path d="M66.1153 572.979C65.6948 579.108 64.2528 585.199 65.2722 591.35C65.3495 591.816 64.8841 592.19 64.5306 592.007C60.5445 589.944 56.9135 587.102 53.067 584.725C52.4579 584.349 52.8665 583.183 53.4798 583.562C57.3262 585.938 60.9573 588.781 64.9434 590.844C64.696 591.063 64.4492 591.282 64.2018 591.501C63.165 585.242 64.6193 579.043 65.047 572.807C65.1026 571.998 66.1704 572.173 66.1153 572.979Z" fill="#003483"/>
<path d="M78.661 591.61C77.7138 598.197 76.4342 604.804 76.4724 611.516C76.4749 612.007 76.142 612.325 75.7308 612.173C70.898 610.387 66.0044 608.701 61.4741 606C60.8593 605.633 61.2685 604.468 61.8869 604.837C66.4171 607.539 71.3108 609.224 76.1436 611.01C75.8962 611.229 75.6494 611.448 75.402 611.667C75.3633 604.837 76.6295 598.142 77.5932 591.439C77.7081 590.64 78.7764 590.809 78.661 591.61Z" fill="#003483"/>
<path d="M91.9247 614.74C90.7817 621.75 89.7793 628.79 88.6198 635.796C88.5606 636.153 88.2024 636.498 87.8798 636.292C84.1133 633.881 80.0163 632.251 76.3915 629.528C75.8071 629.089 76.4667 628.092 77.0465 628.527C80.5899 631.189 84.609 632.771 88.2921 635.129C88.0452 635.294 87.7984 635.459 87.552 635.625C88.711 628.619 89.7139 621.579 90.8564 614.569C90.9863 613.775 92.0545 613.942 91.9247 614.74Z" fill="#003483"/>
<path d="M100.088 634.521C99.3621 640.565 98.2077 646.534 97.7949 652.627C97.7697 652.997 97.3507 653.32 97.0549 653.124C92.839 650.333 88.2201 648.539 83.9134 645.962C83.2986 645.594 83.7083 644.429 84.3262 644.798C88.6323 647.376 93.2518 649.168 97.4677 651.959C97.2209 652.125 96.974 652.29 96.7272 652.455C97.14 646.362 98.2948 640.394 99.0199 634.349C99.1163 633.547 100.185 633.717 100.088 634.521Z" fill="#003483"/>
<path d="M351.805 637.093C354.902 632.576 359.391 629.46 362.05 624.578C365.007 619.149 365.274 612.391 366.2 606.049C367.126 599.706 369.255 592.846 374.191 589.99C377.177 588.263 380.923 588.19 383.324 585.491C384.886 583.734 385.561 581.184 386.112 578.733C388.423 568.454 390.152 556.777 397.518 550.541C400.136 548.325 404.144 547.219 406.37 549.957C407.182 550.957 407.599 552.301 407.917 553.628C409.254 559.202 409.205 565.22 407.778 570.763C406.349 576.315 403.54 581.743 404.29 587.474C404.867 591.891 407.516 595.695 407.916 600.139C408.518 606.82 404.02 612.487 399.85 617.114C395.679 621.741 391.15 627.347 391.667 634.039C391.875 636.736 392.919 639.292 392.997 641.998C393.15 647.302 389.575 651.809 385.653 654.486C381.729 657.162 377.257 658.676 373.513 661.684C365.206 668.358 362.177 680.706 358.216 691.537C357.696 692.961 357.079 694.466 355.923 695.224C355.2 695.698 354.34 695.818 353.513 695.754C348.432 695.363 345.378 688.757 344.906 682.834C343.818 669.168 344.211 648.168 351.805 637.093Z" fill="#06D6A0"/>
<path d="M396.853 569.017C392.591 580.576 388.699 592.209 383.835 603.463C379.014 614.615 373.685 625.456 367.906 635.967C362.571 645.671 357.166 655.256 354.205 666.365C351.426 676.785 349.863 688.477 350.113 699.399C350.131 700.202 351.184 700.118 351.279 699.379C352.793 687.598 352.967 675.936 356.241 664.496C359.554 652.921 365.691 643.024 371.142 632.745C376.306 623.007 381.083 612.983 385.447 602.725C390.02 591.974 394.6 580.894 397.862 569.494C398.084 568.721 397.132 568.258 396.853 569.017Z" fill="#003483"/>
</g>
</g>
<defs>
<filter id="filter0_d_486_7428" x="211" y="188" width="173.548" height="111.803" filterUnits="userSpaceOnUse" color-interpolation-filters="sRGB">
<feFlood flood-opacity="0" result="BackgroundImageFix"/>
<feColorMatrix in="SourceAlpha" type="matrix" values="0 0 0 0 0 0 0 0 0 0 0 0 0 0 0 0 0 0 127 0" result="hardAlpha"/>
<feOffset dy="4"/>
<feGaussianBlur stdDeviation="2"/>
<feComposite in2="hardAlpha" operator="out"/>
<feColorMatrix type="matrix" values="0 0 0 0 0 0 0 0 0 0 0 0 0 0 0 0 0 0 0.25 0"/>
<feBlend mode="normal" in2="BackgroundImageFix" result="effect1_dropShadow_486_7428"/>
<feBlend mode="normal" in="SourceGraphic" in2="effect1_dropShadow_486_7428" result="shape"/>
</filter>
<filter id="filter1_d_486_7428" x="23" y="188" width="173.548" height="111.803" filterUnits="userSpaceOnUse" color-interpolation-filters="sRGB">
<feFlood flood-opacity="0" result="BackgroundImageFix"/>
<feColorMatrix in="SourceAlpha" type="matrix" values="0 0 0 0 0 0 0 0 0 0 0 0 0 0 0 0 0 0 127 0" result="hardAlpha"/>
<feOffset dy="4"/>
<feGaussianBlur stdDeviation="2"/>
<feComposite in2="hardAlpha" operator="out"/>
<feColorMatrix type="matrix" values="0 0 0 0 0 0 0 0 0 0 0 0 0 0 0 0 0 0 0.25 0"/>
<feBlend mode="normal" in2="BackgroundImageFix" result="effect1_dropShadow_486_7428"/>
<feBlend mode="normal" in="SourceGraphic" in2="effect1_dropShadow_486_7428" result="shape"/>
</filter>
<clipPath id="clip0_486_7428">
<rect width="430" height="651" fill="white"/>
</clipPath>
</defs>
</svg>
